<?xml version="1.0" encoding="UTF-8"?>
<svg width="200px" height="80px" viewBox="0 0 200 80" version="1.1" xmlns="http://www.w3.org/2000/svg" xmlns:xlink="http://www.w3.org/1999/xlink">
    <!-- Generator: Sketch 63.1 (92452) - https://sketch.com -->
    <title>Customer - Logo</title>
    <desc>Created with Sketch.</desc>
    <g id="Customer---Logo" stroke="none" stroke-width="1" fill="none" fill-rule="evenodd">
        <g id="calendly" transform="translate(2.000000, 14.000000)" fill="#FFFFFF" fill-rule="nonzero">
            <g id="White" transform="translate(97.568182, 27.000000) scale(-1, 1) rotate(-180.000000) translate(-97.568182, -27.000000) translate(0.000000, 0.000000)">
                <g id="icon">
                    <path d="M13.2764178,53.8009618 C12.8027294,53.4837447 12.6593764,53.1540875 12.6219799,52.2584157 L12.5908162,51.5431221 L8.50837009,51.5058023 C5.87192017,51.4871425 4.32620012,51.4498229 4.1454506,51.4000633 C3.0360225,51.1326058 2.25692973,50.6972097 1.46537148,49.9010569 C0.954286627,49.3848014 0.623951294,48.8934258 0.34971064,48.2341118 C-0.0242538882,47.31978 -2.36675566e-12,49.0489245 -2.36675566e-12,25.6992541 L-2.36675566e-12,4.27154663 L0.150262891,3.80505082 C0.767304364,1.85198837 2.21953328,0.520920321 4.20777802,0.0979641201 C4.81235401,-0.0326547067 46.7275448,-0.0326547067 47.3383536,0.0979641201 C48.3355923,0.309442221 49.164547,0.738618366 49.9124761,1.44147205 C50.6728706,2.15054568 51.1652572,2.99645809 51.4644289,4.08494831 C51.532989,4.33996602 51.5454545,8.04705273 51.5454545,25.8236531 L51.5454545,47.2513606 L51.3460068,47.8235955 C51.2338175,48.1408126 51.0842316,48.4953495 51.0219042,48.6073084 C50.9533441,48.7254874 50.8660857,48.8872059 50.8162237,48.9680652 C50.2365787,49.988136 49.0772887,50.8962479 47.8993004,51.2507846 C47.064113,51.4995824 46.8521997,51.5120223 42.8320811,51.5120223 L38.9241517,51.5120223 L38.8992208,51.655081 C38.8805226,51.7297203 38.8555915,52.102917 38.8493588,52.4885536 C38.8306606,53.1416477 38.8181952,53.1976273 38.6436783,53.446425 C38.3756704,53.8196216 38.0079387,53.9937801 37.46569,54 C36.935907,54 36.5931061,53.8258415 36.3001673,53.4028853 C36.1194178,53.1354277 36.1069522,53.0856682 36.0695558,52.333055 L36.0259266,51.5431221 L25.7730592,51.5431221 L15.520205,51.5431221 L15.4765757,52.3081752 C15.4391794,52.9799292 15.4142483,53.104328 15.2708953,53.3531258 C15.1836369,53.5024045 14.990422,53.7076627 14.8533016,53.8009618 C14.6351556,53.9440205 14.5167335,53.9751202 14.092907,53.9875601 C13.6067532,54.0124399 13.5755894,54 13.2764178,53.8009618 Z M12.6219799,46.5671668 C12.6531436,44.5208051 12.6593764,44.4461659 12.7964967,44.1911482 C12.9710134,43.861491 13.126832,43.7122125 13.4696329,43.5504939 C14.142769,43.2394967 14.9592582,43.5193942 15.3207573,44.1973681 C15.4516448,44.4399459 15.4578776,44.539465 15.4890413,46.5671668 L15.520205,48.6819478 L25.7730658,48.6819478 L36.0259266,48.6819478 L36.0570904,46.536067 C36.088254,44.209808 36.0757886,44.3031071 36.4622186,43.867711 C37.0979583,43.1586373 38.3507395,43.3452357 38.7434022,44.203588 C38.8493588,44.427506 38.8618243,44.645204 38.8618243,46.5111872 C38.8618243,48.0226337 38.8805226,48.5824286 38.9366172,48.6384081 C39.036341,48.7379273 46.0731069,48.7441472 46.627821,48.6446281 C47.3695173,48.5140093 47.9429296,48.1345927 48.3542905,47.5125983 C48.7718843,46.8657241 48.7407206,48.7379273 48.7407206,25.6681544 L48.7407206,4.70694272 L48.5288074,4.27776658 C48.1797738,3.58113284 47.6375252,3.12085696 46.9082944,2.89693898 C46.4782352,2.76632015 5.06789644,2.76632015 4.63783723,2.89693898 C3.90237366,3.12085696 3.35389234,3.58735278 3.01732427,4.27154663 L2.80467129,4.70694272 L2.80467129,25.6681544 C2.80467129,48.4393699 2.78048008,46.8159646 3.13574637,47.4503988 C3.31026316,47.767616 3.85874446,48.2776514 4.1890798,48.4331499 C4.70639739,48.6819478 5.02426724,48.7006076 8.88233462,48.6943877 L12.5908162,48.6819478 L12.6219799,46.5671668 Z" id="Shape"></path>
                    <path d="M25.3795346,34.2254737 C24.5435371,34.0340904 23.9619735,33.8108099 23.2289612,33.4089051 C22.3687317,32.9368263 21.7689943,32.4583681 20.9269388,31.5716255 C19.618421,30.1936658 18.9217564,28.8667417 18.5219314,26.9911856 C18.3704826,26.2894469 18.3704826,24.0375035 18.5279893,23.310247 C18.7703075,22.1300501 19.2670597,20.9434738 19.9031447,20.0056957 C20.387781,19.2911981 21.3994592,18.2258311 22.1082398,17.6899579 C22.9805851,17.0392547 24.3557404,16.3694132 25.2280857,16.1844095 C25.3795346,16.1525122 25.6400266,16.0950973 25.8035913,16.0632 C26.3003435,15.9547494 28.1661931,15.9164729 28.7114089,15.9994056 C30.1532017,16.2290655 31.3647924,16.7202826 32.4976297,17.5240924 C33.115541,17.964274 33.224584,18.1492778 33.0610194,18.4491117 C32.8732227,18.7872221 32.6611944,18.7617043 32.0311672,18.3151433 C31.2618073,17.7728906 30.0744484,17.1540848 29.7897246,17.1540848 C29.7473188,17.1540848 29.6625076,17.1285669 29.601928,17.0966698 C29.5474064,17.0647726 29.347494,17.0073576 29.1657554,16.9754604 C28.9840168,16.9371837 28.6871771,16.8797687 28.5114964,16.841492 C28.0934977,16.7521798 26.6880524,16.7521798 26.2215901,16.8351125 C25.4461721,16.9818397 25.1796221,17.0520136 24.6525801,17.2370175 C23.3622361,17.6899579 22.1385296,18.5575622 21.163199,19.7122412 C19.745638,21.3836553 19.0853211,23.3421443 19.1943642,25.543052 C19.2549437,26.8061817 19.479088,27.7630982 19.9637243,28.7901885 C20.7088526,30.3595313 22.1809352,31.9033565 23.7196554,32.7199252 C24.5920006,33.1856245 25.2402016,33.3833872 26.3245752,33.5173556 C26.9970082,33.6002883 27.2029785,33.6002883 27.9905124,33.5173556 C29.6382758,33.3514901 30.8195766,32.9176879 32.0917468,32.011807 C32.6490786,31.6162816 32.842933,31.5588667 33.0004399,31.7502499 C33.1640045,31.9416331 33.1821785,32.1649137 33.0428455,32.3562969 C32.7399478,32.7645812 31.3647924,33.5620116 30.3955199,33.8937427 C29.3717258,34.2509915 28.8749736,34.3275448 27.4089489,34.3530625 C26.1428366,34.3785804 25.9974458,34.3658214 25.3795346,34.2254737 Z" id="Path" stroke="#FFFFFF"></path>
                </g>
                <g id="logo" transform="translate(58.909091, 11.045455)" stroke="#FFFFFF">
                    <path d="M43.2322967,30.6207844 C43.1547847,30.5805245 43.0643541,30.4758487 43.025598,30.3872769 C42.9739235,30.2745492 42.9545455,26.602845 42.9545455,18.3495625 L42.9545455,6.47288793 L43.122488,6.31184827 C43.3808612,6.05418482 43.7877991,6.08639275 44.0074162,6.36821216 L44.1818182,6.59366767 L44.1818182,18.3978745 L44.1818182,30.2101333 L44.0332536,30.4194848 C43.8782297,30.6529924 43.4777512,30.7576682 43.2322967,30.6207844 Z" id="Path"></path>
                    <path d="M106.780772,30.6077814 C106.688913,30.5755875 106.546948,30.4468126 106.47179,30.3341345 C106.346527,30.1490204 106.329825,29.6741626 106.329825,25.0946019 C106.329825,21.9074208 106.296422,20.0643287 106.246316,20.0643287 C106.204562,20.0643287 105.862176,20.3701693 105.486387,20.7403974 C103.323511,22.9134755 100.175231,23.7746582 97.1856187,23.0261536 C96.5091979,22.8571364 96.2503208,22.7605551 95.5989526,22.4386177 C94.2711637,21.7866942 93.0435854,20.7162521 92.2001471,19.460696 C91.4986737,18.4224476 91.1729897,17.6256523 90.8890599,16.241321 C90.7721477,15.6859789 90.8055512,13.4163196 90.9475161,12.7804931 C91.5320772,10.1003636 93.6197956,7.69388086 96.2419699,6.66368091 C97.5029519,6.16467781 99.5572668,5.99566063 100.993617,6.26125906 C102.73895,6.58319654 104.576142,7.58120274 105.720212,8.83675893 C105.937334,9.07821205 106.171159,9.27942297 106.229615,9.27942297 C106.304773,9.27942297 106.329825,8.96553393 106.329825,7.95947929 L106.329825,6.6395356 L106.572001,6.39003405 C106.772422,6.18077468 106.880983,6.1405325 107.189965,6.1405325 C107.507298,6.1405325 107.599158,6.18077468 107.782877,6.39003405 L108,6.6395356 L107.983298,18.4707382 L107.958246,30.3019407 L107.724421,30.4951032 C107.482246,30.6963141 107.114807,30.7365564 106.780772,30.6077814 Z M101.010319,21.5049989 C101.528073,21.3681755 101.628283,21.3359817 102.446669,20.9496568 C103.081335,20.6438162 103.323511,20.4667506 104.08344,19.7423913 C104.676352,19.1790006 105.093896,18.6960944 105.32772,18.3097694 C106.396632,16.5552102 106.630457,14.325793 105.962387,12.3780712 C105.260913,10.3418167 103.432072,8.61945113 101.294248,7.97557616 C100.784845,7.82265585 100.500915,7.79851055 99.3986002,7.79046211 C98.0457587,7.79046211 97.820285,7.83070429 96.8181802,8.21702928 C95.0728476,8.89309799 93.3358659,10.7120448 92.8097608,12.4183135 C92.7513047,12.6195244 92.6594451,12.8931712 92.600989,13.0219462 C92.5425329,13.1668182 92.5091295,13.810693 92.5091295,14.6718758 C92.5091295,15.9757227 92.5258312,16.1286429 92.734603,16.7403242 C93.0185327,17.5854101 93.1688485,17.8992991 93.5863922,18.4948835 C94.8139706,20.2735881 96.5258996,21.3601271 98.5217585,21.6257255 C98.9560039,21.6820645 100.634529,21.6015802 101.010319,21.5049989 Z" id="Shape"></path>
                    <path d="M115.546154,30.5014367 L115.363636,30.3002055 L115.363636,18.427565 L115.363636,6.55492452 L115.514685,6.34564407 C115.634266,6.18465913 115.728671,6.13636364 115.948951,6.13636364 C116.175525,6.13636364 116.257343,6.17660987 116.408392,6.38589032 L116.590909,6.63541699 L116.590909,18.4034172 L116.590909,30.1633682 L116.446154,30.3887472 C116.238462,30.7268156 115.804196,30.7831603 115.546154,30.5014367 Z" id="Path"></path>
                    <path d="M7.20470281,23.2290991 C5.51139413,22.9144581 4.20884899,22.2851761 2.87374023,21.1314924 C0.952486135,19.4695425 0,17.3719359 0,14.7741307 C0,13.225129 0.236086308,12.1279193 0.830372528,10.933897 C1.81542229,8.96537385 3.7610991,7.29535624 5.91029859,6.57732934 C7.64431181,6.00452136 9.96447035,5.98838593 11.6984836,6.53699075 C12.7405197,6.86776719 14.2221648,7.69067442 14.5722238,8.1343989 C14.8815782,8.52164935 14.7106192,9.08638961 14.2140238,9.32035342 C13.8721058,9.48170778 13.758133,9.44136919 12.9440424,8.91696753 C11.2018882,7.80362246 8.89801151,7.40023657 7.00118014,7.88429964 C5.11248969,8.360295 3.3052083,9.78021335 2.33644035,11.5551113 C1.45722238,13.1525194 1.31068605,15.2501261 1.93753591,17.0411595 C2.4992585,18.6385676 3.97276268,20.2521112 5.5846623,21.0508152 C7.92110265,22.2125667 10.7215747,21.9947383 13.0417333,20.486075 C13.4406377,20.227908 13.847683,20.0181474 13.9616557,20.0181474 C14.4094057,20.0181474 14.8001692,20.6070908 14.6699147,21.0992215 C14.5315193,21.6074878 12.536997,22.7127651 11.1937473,23.0193385 C9.89934308,23.3097763 8.14904805,23.4065889 7.20470281,23.2290991 Z" id="Path"></path>
                    <path d="M26.2827706,23.2093862 C25.3876049,23.0402071 25.1499503,22.9515896 24.2230974,22.5004455 C22.432766,21.6223259 20.9117766,19.9144235 20.1988129,17.9890053 C19.7710346,16.8289207 19.6442854,16.0958115 19.6363636,14.7262672 C19.6363636,13.4695089 19.7393473,12.7847367 20.0799855,11.7454942 C20.5869821,10.1987147 21.6643496,8.7083282 23.0110589,7.66908572 C24.0012865,6.91986439 24.9281394,6.49288879 26.1243342,6.25926064 C26.7422362,6.13036235 28.5484111,6.10619392 28.9048931,6.21897993 C29.0316421,6.25926064 29.3326713,6.33176593 29.5703259,6.38815894 C30.2119933,6.54122565 31.1230026,6.95208896 31.7884355,7.38712071 C32.3588066,7.76575944 33.5391577,8.88556336 33.7768123,9.28031438 C34.0223888,9.68312153 34.0857633,9.42532496 34.0857633,7.96716302 L34.0857633,6.57345023 L34.2917306,6.35593436 C34.5848379,6.05785706 35.0601471,6.0659132 35.3690981,6.3639905 L35.5909091,6.58150638 L35.5909091,14.710155 L35.5909091,22.8388036 L35.3611763,23.0724317 C35.0363817,23.3946774 34.6006816,23.4027335 34.2996524,23.0804878 L34.0857633,22.8549158 L34.0857633,21.517596 C34.0857633,20.6636448 34.054076,20.1561079 33.9986232,20.1238832 C33.9590141,20.0916586 33.6342196,20.3816799 33.2777376,20.7603185 C31.76467,22.4037718 29.6812314,23.3221722 27.5106527,23.2980037 C27.0511871,23.2899475 26.5045815,23.2496669 26.2827706,23.2093862 Z M28.6751603,21.6867751 C29.7683714,21.4289784 30.1644623,21.2678556 30.9566444,20.7200378 C32.2637447,19.8338621 33.3331904,18.3757001 33.7530468,16.9014259 C34.3788706,14.718211 34.0699197,12.4947155 32.8895684,10.7062517 C31.4161099,8.45858776 28.9365803,7.32267156 26.5600343,7.79798401 C25.7440869,7.95910688 25.5698068,8.01549988 24.9281394,8.34580175 C23.3120882,9.17558452 21.8544733,10.9882168 21.426695,12.7122314 C21.2128058,13.5903511 21.1731968,13.8642599 21.1731968,14.6618181 C21.1731968,16.4502819 21.6643496,17.9003877 22.7258735,19.269932 C23.6844136,20.5025219 24.9519048,21.3081363 26.5204253,21.6867751 C26.9640472,21.7915049 28.2315384,21.7915049 28.6751603,21.6867751 Z" id="Shape"></path>
                    <path d="M56.1441031,23.2100571 C55.5933391,23.1129556 54.867332,22.9106606 54.4834662,22.7488247 C54.3666374,22.7002739 54.1830494,22.6193559 54.0662207,22.5708051 C53.4653871,22.3199594 52.372204,21.5350551 51.729646,20.9119866 C50.1858376,19.3988203 49.3513467,17.6833593 49.1427239,15.6037672 C48.8673418,12.9334738 49.693488,10.5544853 51.5293681,8.68527997 C52.3805488,7.81945759 53.0064172,7.37440871 54.0244961,6.89699264 C55.3596817,6.27392421 56.0105846,6.13636364 57.6962564,6.13636364 C58.9062683,6.13636364 59.21503,6.16063903 59.8242084,6.32247499 C60.692079,6.54904533 61.9271256,7.10737939 62.6531328,7.61716264 C63.8130753,8.41015884 65.0815015,9.89904965 65.0815015,10.4412001 C65.0815015,10.764872 64.7393602,11.1532783 64.3638393,11.2422881 C64.0300428,11.3232061 63.7713507,11.1532783 63.37914,10.5868525 C61.8520214,8.41825064 59.1065461,7.27730714 56.5530038,7.75472321 C55.1927834,8.00556895 54.0829105,8.54771941 53.0898662,9.44590897 C51.8464747,10.5706689 51.070398,11.9624581 50.803361,13.5484505 C50.7449466,13.888306 50.7282567,14.2200697 50.7532915,14.2928959 C50.803361,14.4223647 51.3958495,14.4304564 58.3054348,14.4304564 C67.1093145,14.4304564 66.2497889,14.3252631 66.2497889,15.4095641 C66.2497889,15.7575114 66.2080644,16.2187438 66.1579948,16.4291306 C65.9994416,17.0926579 65.8993027,17.4567889 65.8241985,17.650992 C65.7824739,17.7480936 65.7157147,17.9099295 65.6739901,18.015123 C65.2901242,18.9780469 64.5891518,20.013797 63.7546609,20.855344 C62.4027855,22.2147661 61.0675999,22.8863853 59.0230971,23.2424244 C58.3888839,23.3557095 56.8617655,23.3395259 56.1441031,23.2100571 Z M58.564127,21.7049827 C59.7407593,21.5188714 60.4417317,21.2680257 61.3179472,20.7177835 C62.1190586,20.2160919 63.187207,19.1560664 63.6294872,18.4278046 C64.105147,17.6348085 64.5474273,16.4776814 64.4806681,16.1621012 C64.4556333,16.0083571 64.2887351,16.0083571 57.6962564,16.0083571 L50.9368795,16.0083571 L50.9118448,16.2268355 C50.8534304,16.6961599 51.4876435,18.0960409 52.1552363,18.969955 C53.6740099,20.9605374 56.2609319,22.0691137 58.564127,21.7049827 Z" id="Shape"></path>
                    <path d="M71.5873641,23.2127138 C71.1662203,22.9704961 71.1896171,23.4549315 71.1818182,14.6866496 L71.1818182,6.56428163 L71.3767922,6.34628567 C71.5249725,6.17673326 71.6341579,6.13636364 71.9227194,6.13636364 C72.2112809,6.13636364 72.3204664,6.17673326 72.4686466,6.34628567 L72.6636206,6.56428163 L72.6636206,11.6185583 C72.6636206,16.7535742 72.6792185,17.0200138 72.9599811,17.9727369 C73.3421302,19.2322691 74.4417836,20.5402448 75.6350244,21.1377152 C76.6020954,21.6140768 76.8672601,21.6786682 77.9669135,21.6786682 C78.7702063,21.6705942 79.035371,21.6382985 79.4877107,21.484894 C80.2832046,21.2184545 80.8135339,20.8793496 81.5154403,20.1769182 C82.2329447,19.4664129 82.6384906,18.804351 82.934851,17.8839237 L83.1454231,17.2380097 L83.1688199,11.9899588 C83.1844178,9.10756782 83.1922168,6.69346442 83.1922168,6.63694695 C83.1922168,6.58042948 83.2780053,6.44317276 83.3871908,6.33821175 C83.5275721,6.18480718 83.6601544,6.13636364 83.925319,6.13636364 C84.2138806,6.13636364 84.2996691,6.17673326 84.4790452,6.38665529 L84.6818182,6.64502087 L84.6506224,12.1433634 C84.6194265,17.9808108 84.6350245,17.6659277 84.2450764,18.8366468 C83.8395305,20.0719572 82.8490626,21.3072676 81.5934299,22.1711775 C80.9383173,22.6233173 80.7277454,22.7202045 79.5657004,23.0835311 C79.4409169,23.1239006 78.9651803,23.2046399 78.5128408,23.2611573 C77.8187332,23.3418967 77.5769655,23.3418967 76.9140539,23.2288616 C75.9001891,23.0673832 75.6584212,22.9947179 75.1124941,22.7202045 C74.4261856,22.3810996 73.8334646,21.9451077 73.3031353,21.4041548 C73.0457697,21.1296413 72.7962029,20.9116453 72.7494092,20.9116453 C72.6948164,20.9116453 72.6636206,21.2346024 72.6636206,21.8643684 C72.6636206,22.6394651 72.6324247,22.8413133 72.5232393,22.97857 C72.2580746,23.3257488 71.9227194,23.406488 71.5873641,23.2127138 Z" id="Path"></path>
                    <path d="M122.94704,23.1508142 L122.727273,22.9865131 L122.727273,17.689757 C122.727273,14.7714556 122.758668,12.2834668 122.797912,12.158285 C122.837157,12.0331032 122.907796,11.7357963 122.962737,11.5010804 C123.01768,11.2663645 123.088319,11.0394724 123.119714,10.9925292 C123.14326,10.9534099 123.221749,10.7891088 123.276691,10.6404553 C123.567098,9.91283596 124.351981,8.91138134 125.191806,8.20723356 C127.083374,6.61116526 129.963896,6.21214818 132.240056,7.22142666 C132.852265,7.49526192 133.456626,7.90210286 134.068835,8.45759722 C134.351392,8.71578473 134.618253,8.91920521 134.657498,8.91920521 C134.77523,8.91920521 134.751683,7.47179032 134.618253,6.78329028 C134.249358,4.85079581 132.82087,3.02783545 131.039186,2.2063297 C130.050232,1.76036945 129.665639,1.6821308 128.339187,1.6821308 C127.020583,1.6821308 126.957793,1.69777853 125.851108,2.12809107 C125.317388,2.33151154 125.215352,2.35498313 124.972039,2.26892063 C124.634539,2.15938652 124.454016,1.89337513 124.454016,1.50218193 C124.454016,1.07969326 124.697329,0.868448927 125.513608,0.586789816 C126.149363,0.375545483 126.659538,0.250363655 127.18541,0.187772741 C127.452269,0.164301149 127.695583,0.101710235 127.71913,0.0704147779 C127.774071,-0.0234715926 128.904303,-0.0234715926 128.959245,0.0704147779 C128.982791,0.101710235 129.233955,0.156477284 129.524361,0.187772741 C131.211859,0.359897754 132.710987,1.11098872 133.998196,2.44104564 C135.002846,3.47379571 135.395287,4.06840939 135.795577,5.17939811 C136.235113,6.38427319 136.227273,6.25909138 136.227273,14.8809897 C136.227273,19.2545299 136.203716,22.8926267 136.18017,22.9630415 C136.078136,23.2290529 135.450229,23.4011779 135.089182,23.2681722 C134.743834,23.1351665 134.735985,23.0569279 134.735985,17.9010013 C134.735985,12.9563192 134.720287,12.6903078 134.43773,11.7749156 C134.23366,11.1255349 133.723487,10.3509724 133.048487,9.6624723 C132.765929,9.37298932 132.177267,8.96614839 131.706336,8.73143246 C130.317093,8.05075627 128.488315,8.066404 127.083374,8.77837565 C126.039479,9.31039841 124.917097,10.546569 124.571748,11.5401997 C124.2264,12.5338305 124.2264,12.565126 124.21855,17.8305866 L124.21855,22.876979 L124.006632,23.0960472 C123.747621,23.3698824 123.268842,23.393354 122.94704,23.1508142 Z" id="Path"></path>
                </g>
            </g>
        </g>
    </g>
</svg>