<svg width="50" height="45" viewBox="0 0 50 45" fill="none" xmlns="http://www.w3.org/2000/svg">
<g style="mix-blend-mode:multiply" opacity="0.8">
<circle cx="20.6818" cy="24.3183" r="20.6818" fill="url(#paint0_radial)"/>
</g>
<path fill-rule="evenodd" clip-rule="evenodd" d="M23.8716 14.8636C23.8716 14.3114 23.4239 13.8636 22.8716 13.8636H18.5743C18.022 13.8636 17.5743 14.3114 17.5743 14.8636V20.2104C17.5743 20.7627 17.1266 21.2104 16.5743 21.2104L11.2272 21.2104C10.6749 21.2104 10.2272 21.6581 10.2272 22.2104L10.2272 26.5076C10.2272 27.0599 10.6749 27.5076 11.2272 27.5076H16.5743C17.1266 27.5076 17.5743 27.9554 17.5743 28.5076V33.8546C17.5743 34.4068 18.022 34.8546 18.5743 34.8546H22.8716C23.4239 34.8546 23.8716 34.4068 23.8716 33.8546V28.5076C23.8716 27.9554 24.3193 27.5076 24.8716 27.5076H30.2181C30.7704 27.5076 31.2181 27.0599 31.2181 26.5076V22.2104C31.2181 21.6581 30.7704 21.2104 30.2181 21.2104L24.8716 21.2104C24.3193 21.2104 23.8716 20.7627 23.8716 20.2104V14.8636Z" fill="#F7F7FF"/>
<circle cx="38.3522" cy="10.7386" r="10.7386" fill="url(#paint1_radial)" fill-opacity="0.8"/>
<mask id="mask0" mask-type="alpha" maskUnits="userSpaceOnUse" x="28" y="1" width="20" height="20">
<circle cx="38.2386" cy="10.625" r="9.60226" fill="#FAFAFA"/>
</mask>
<g mask="url(#mask0)">
<g filter="url(#filter0_ddd)">
<ellipse cx="38.1517" cy="9.51536" rx="3.37901" ry="3.37901" fill="white"/>
</g>
<g filter="url(#filter1_ddd)">
<ellipse cx="38.4625" cy="19.9596" rx="6.75801" ry="6.45083" fill="white"/>
</g>
</g>
<defs>
<filter id="filter0_ddd" x="18.7727" y="-1.86365" width="38.758" height="38.758" filterUnits="userSpaceOnUse" color-interpolation-filters="sRGB">
<feFlood flood-opacity="0" result="BackgroundImageFix"/>
<feColorMatrix in="SourceAlpha" type="matrix" values="0 0 0 0 0 0 0 0 0 0 0 0 0 0 0 0 0 0 127 0"/>
<feOffset dy="8"/>
<feGaussianBlur stdDeviation="8"/>
<feColorMatrix type="matrix" values="0 0 0 0 0 0 0 0 0 0 0 0 0 0 0.117647 0 0 0 0.1 0"/>
<feBlend mode="normal" in2="BackgroundImageFix" result="effect1_dropShadow"/>
<feColorMatrix in="SourceAlpha" type="matrix" values="0 0 0 0 0 0 0 0 0 0 0 0 0 0 0 0 0 0 127 0"/>
<feOffset dy="4"/>
<feGaussianBlur stdDeviation="4"/>
<feColorMatrix type="matrix" values="0 0 0 0 0 0 0 0 0 0 0 0 0 0 0.117647 0 0 0 0.1 0"/>
<feBlend mode="normal" in2="effect1_dropShadow" result="effect2_dropShadow"/>
<feColorMatrix in="SourceAlpha" type="matrix" values="0 0 0 0 0 0 0 0 0 0 0 0 0 0 0 0 0 0 127 0"/>
<feOffset/>
<feGaussianBlur stdDeviation="1"/>
<feColorMatrix type="matrix" values="0 0 0 0 0 0 0 0 0 0 0 0 0 0 0.117647 0 0 0 0.1 0"/>
<feBlend mode="normal" in2="effect2_dropShadow" result="effect3_dropShadow"/>
<feBlend mode="normal" in="SourceGraphic" in2="effect3_dropShadow" result="shape"/>
</filter>
<filter id="filter1_ddd" x="15.7045" y="5.50879" width="45.516" height="44.9017" filterUnits="userSpaceOnUse" color-interpolation-filters="sRGB">
<feFlood flood-opacity="0" result="BackgroundImageFix"/>
<feColorMatrix in="SourceAlpha" type="matrix" values="0 0 0 0 0 0 0 0 0 0 0 0 0 0 0 0 0 0 127 0"/>
<feOffset dy="8"/>
<feGaussianBlur stdDeviation="8"/>
<feColorMatrix type="matrix" values="0 0 0 0 0 0 0 0 0 0 0 0 0 0 0.117647 0 0 0 0.1 0"/>
<feBlend mode="normal" in2="BackgroundImageFix" result="effect1_dropShadow"/>
<feColorMatrix in="SourceAlpha" type="matrix" values="0 0 0 0 0 0 0 0 0 0 0 0 0 0 0 0 0 0 127 0"/>
<feOffset dy="4"/>
<feGaussianBlur stdDeviation="4"/>
<feColorMatrix type="matrix" values="0 0 0 0 0 0 0 0 0 0 0 0 0 0 0.117647 0 0 0 0.1 0"/>
<feBlend mode="normal" in2="effect1_dropShadow" result="effect2_dropShadow"/>
<feColorMatrix in="SourceAlpha" type="matrix" values="0 0 0 0 0 0 0 0 0 0 0 0 0 0 0 0 0 0 127 0"/>
<feOffset/>
<feGaussianBlur stdDeviation="1"/>
<feColorMatrix type="matrix" values="0 0 0 0 0 0 0 0 0 0 0 0 0 0 0.117647 0 0 0 0.1 0"/>
<feBlend mode="normal" in2="effect2_dropShadow" result="effect3_dropShadow"/>
<feBlend mode="normal" in="SourceGraphic" in2="effect3_dropShadow" result="shape"/>
</filter>
<radialGradient id="paint0_radial" cx="0" cy="0" r="1" gradientUnits="userSpaceOnUse" gradientTransform="translate(28.125 19.4318) rotate(135) scale(39.7747 46.0107)">
<stop stop-color="#5701B1"/>
<stop offset="0.71875" stop-color="#CE91FF"/>
</radialGradient>
<radialGradient id="paint1_radial" cx="0" cy="0" r="1" gradientUnits="userSpaceOnUse" gradientTransform="translate(38.3522 10.7386) rotate(88.0908) scale(15.3494)">
<stop offset="0.619911" stop-color="#CE91FF"/>
<stop offset="1" stop-color="white"/>
</radialGradient>
</defs>
</svg>
