<?xml version="1.0" encoding="UTF-8"?>
<svg width="200px" height="80px" viewBox="0 0 200 80" version="1.1" xmlns="http://www.w3.org/2000/svg" xmlns:xlink="http://www.w3.org/1999/xlink">
    <!-- Generator: Sketch 63.1 (92452) - https://sketch.com -->
    <title>Customer - Logo</title>
    <desc>Created with Sketch.</desc>
    <g id="Customer---Logo" stroke="none" stroke-width="1" fill="none" fill-rule="evenodd">
        <g id="freshworks" transform="translate(1.000000, 21.000000)" fill="#FFFFFF" fill-rule="nonzero">
            <g id="White" transform="translate(100.223306, 21.254545) scale(-1, 1) rotate(-180.000000) translate(-100.223306, -21.254545) translate(0.950578, 0.890909)">
                <path d="M96.4409362,39.2570258 C96.2534614,39.158266 96.0067842,38.9212424 95.8982462,38.7434748 C95.7009043,38.4175674 95.7009043,38.2002958 95.6713031,26.0627147 C95.651569,17.3718511 95.6713031,13.5695984 95.7502398,13.214063 C95.8982462,12.5029924 96.4902716,11.9894413 97.1513666,11.9894413 C97.6052527,11.9894413 98.1972782,12.3844806 98.404487,12.8190238 C98.6018288,13.223939 98.6116959,13.3918307 98.6116959,18.3792013 C98.6116959,24.0973945 98.6511643,24.5615656 99.2135883,25.6281715 C99.9338859,26.9811811 101.354747,27.6922516 103.347899,27.6922516 C106.012013,27.6922516 107.255267,26.5565138 107.492077,23.8998749 C107.541412,23.3468199 107.580881,20.6803049 107.590748,17.96441 C107.590748,13.243691 107.600615,13.0165434 107.788089,12.710388 C108.19264,12.0388213 108.942539,11.8413016 109.652969,12.2067129 C110.501539,12.6511321 110.462071,12.3054727 110.422602,19.1001479 C110.393001,24.8578451 110.393001,25.1047445 110.185792,25.8256912 C109.337223,28.8477415 107.205931,30.2797587 103.545241,30.2995107 C101.571823,30.2995107 100.269367,29.8748436 99.164253,28.8674935 L98.6116959,28.3638184 L98.6116959,33.331437 C98.6116959,37.8743885 98.5919617,38.3385595 98.4340883,38.6545909 C98.069006,39.3755376 97.1711009,39.6520651 96.4409362,39.2570258 Z" id="Path"></path>
                <path d="M168.520027,39.3459097 C168.411489,39.3064057 168.194413,39.1286381 168.026673,38.9508704 L167.73066,38.6447149 L167.701059,25.8355672 C167.681324,13.1153032 167.681324,13.0264194 167.878667,12.700512 C168.135211,12.2857208 168.855508,11.9499374 169.299527,12.0289453 C169.467267,12.0585732 169.753413,12.177085 169.931021,12.2857208 C170.513179,12.6412561 170.542781,12.8288997 170.542781,16.2657413 L170.542781,19.3667995 L171.539357,20.1568779 L172.5458,20.9568324 L173.098357,20.2457617 C173.404237,19.8605984 174.894168,17.9545341 176.4137,16.0089658 C177.923364,14.0633975 179.285022,12.3844806 179.423161,12.2857208 C180.340801,11.633906 181.692592,12.3351007 181.692592,13.4708386 C181.692592,13.6584822 181.63339,13.9251337 181.56432,14.0633975 C181.49525,14.2016612 180.242131,15.8410741 178.781801,17.7175105 C177.331339,19.593947 175.861143,21.4901354 175.515794,21.9345546 L174.8843,22.734509 L177.982566,25.2133803 C181.209106,27.8008874 181.39658,27.9885311 181.39658,28.7094777 C181.39658,29.0847651 181.0907,29.5983161 180.696016,29.8847196 C180.38027,30.1217431 179.679706,30.1513711 179.304757,29.9538515 C179.15675,29.8748436 177.133997,28.2453066 174.795497,26.3392422 L170.542781,22.8628968 L170.542781,30.6352941 C170.542781,38.2200477 170.532914,38.4175674 170.345439,38.7335988 C169.980357,39.3360337 169.151522,39.6125612 168.520027,39.3459097 Z" id="Path"></path>
                <path d="M197.085252,39.3459097 C196.996449,39.2866538 196.986581,39.2471498 197.055651,39.2471498 C197.114854,39.2471498 197.203658,39.2965297 197.233259,39.3459097 C197.312196,39.4644214 197.272727,39.4644214 197.085252,39.3459097 Z" id="Path"></path>
                <path d="M46.4345248,38.3484355 C43.9085499,37.9040164 42.1916762,36.3633633 41.4812457,33.9141199 C41.3036381,33.331437 41.2543026,32.8178861 41.2148343,31.4747525 L41.1556317,29.7662078 L40.4748026,29.7662078 C40.0505177,29.7662078 39.6854354,29.7069519 39.4979606,29.6180681 C38.8664669,29.2822847 38.6197896,28.3539424 39.0144733,27.7218796 C39.2907518,27.2675845 39.6755683,27.0996928 40.4945367,27.0996928 L41.185233,27.0996928 L41.185233,20.1371259 C41.185233,13.2930709 41.185233,13.1548071 41.3924419,12.7696439 C41.5404482,12.4733644 41.7081888,12.3153487 42.0338027,12.167209 C42.9317079,11.7721698 43.8394802,12.2363409 44.0368219,13.1844351 C44.1058916,13.5103425 44.14536,15.9793378 44.14536,20.3840255 L44.14536,27.0996928 L45.901702,27.0996928 C47.8356516,27.0996928 47.993525,27.1391968 48.3684744,27.6922516 C48.5658162,27.9786551 48.5954174,28.1267948 48.5658162,28.561338 C48.5263478,28.9860052 48.4572783,29.1440209 48.2007339,29.4007965 L47.8948541,29.7168279 L46.0102399,29.7464558 L44.1256257,29.7760838 L44.1650941,31.4747525 C44.1946954,33.0944134 44.2045626,33.2030492 44.4709739,33.7659802 C45.023531,34.960974 45.9510374,35.5535328 47.4212337,35.6621686 C48.319139,35.7214245 48.6052846,35.8300603 48.980234,36.2349755 C49.1874428,36.4522471 49.2269112,36.5905109 49.2269112,37.0843099 C49.2269112,37.6274889 49.19731,37.6867448 48.8519618,38.0324042 C48.4967466,38.3978154 48.4671454,38.4076914 47.7172464,38.4274433 C47.3028287,38.4373193 46.7206704,38.3978154 46.4345248,38.3484355 Z" id="Path"></path>
                <path d="M197.085252,37.7657527 C196.996449,37.7064968 196.986581,37.6669929 197.055651,37.6669929 C197.114854,37.6669929 197.203658,37.7163728 197.233259,37.7657527 C197.312196,37.8842645 197.272727,37.8842645 197.085252,37.7657527 Z" id="Path"></path>
                <path d="M197.085252,36.1855956 C196.996449,36.1263397 196.986581,36.0868358 197.055651,36.0868358 C197.114854,36.0868358 197.203658,36.1362157 197.233259,36.1855956 C197.312196,36.3041074 197.272727,36.3041074 197.085252,36.1855956 Z" id="Path"></path>
                <path d="M197.085252,34.6054386 C196.996449,34.5461827 196.986581,34.5066788 197.055651,34.5066788 C197.114854,34.5066788 197.203658,34.5560587 197.233259,34.6054386 C197.312196,34.7239504 197.272727,34.7239504 197.085252,34.6054386 Z" id="Path"></path>
                <path d="M14.386217,33.4697007 C8.03181114,32.5314826 2.67398134,28.018159 0.749898828,21.9543066 C0.118405078,19.9692342 0,19.1692798 0,16.7792923 C0,14.8929798 0.0296012695,14.4683126 0.226943066,13.5695984 C0.749898828,11.1499829 1.7464749,8.81925133 3.07853204,6.95269087 C3.92710175,5.75769712 5.75251338,3.93064057 6.94643125,3.08130617 C8.81131123,1.74804869 11.1399444,0.750574581 13.5573815,0.22714757 C14.4552866,0.0296279441 14.8795715,0 16.7641857,0 C19.1520214,0 19.9512557,0.118511776 21.9345407,0.750574581 C27.3811743,2.47887132 31.6634914,7.05145067 33.0843523,12.6610081 C33.5579725,14.4979405 33.5875739,15.0411195 33.5875739,22.7641369 C33.5875739,29.7464558 33.5777068,30.0723632 33.390232,30.674798 C32.9955485,31.9487997 31.9200356,33.0252815 30.6471811,33.4203208 C30.0354214,33.6079645 29.7295417,33.6178405 22.6449712,33.6079645 C17.0996667,33.5980885 15.0670461,33.5684605 14.386217,33.4697007 Z M28.9007062,31.6525202 C28.6836302,31.4451246 18.0765085,25.36152 17.2575401,24.9763569 C13.5869827,23.2381841 9.29479863,23.1196723 5.40716523,24.6405735 C4.84474111,24.8578451 4.38098789,25.0652406 4.38098789,25.1047445 C4.38098789,25.2726362 5.58477285,26.6849016 6.42347549,27.5046081 C7.46938701,28.5218341 8.22915293,29.094641 9.46253916,29.7958357 C11.0511406,30.7044259 13.2515017,31.4253726 15.0867804,31.6228923 C16.1524261,31.75128 29.0191113,31.771032 28.9007062,31.6525202 Z M29.9367506,29.9242235 C29.9367506,29.8057117 23.4639397,18.7051087 23.069256,18.1421777 C22.3982939,17.1743315 20.3656735,15.1991353 19.3789644,14.5374445 C17.2970085,13.1449312 14.8006348,12.2264649 12.5805396,12.0190693 L11.9490458,11.9598134 L12.0082483,12.5918762 C12.2154572,14.804096 13.1330966,17.3027193 14.5243563,19.3964274 C15.2051854,20.4334054 17.2772744,22.5271134 18.2738504,23.1986801 C18.9842809,23.6727273 29.7196746,29.9340995 29.8676809,29.9538515 C29.9071494,29.9637274 29.9367506,29.9439755 29.9367506,29.9242235 Z M31.6141559,15.347275 C31.2490735,11.7524178 29.6900734,8.53284788 27.0654275,6.00459665 C26.3056616,5.27377404 25.2104146,4.38493571 25.0722753,4.38493571 C24.9637373,4.38493571 24.2039714,6.46876777 23.9770283,7.43661395 C23.1975282,10.6660598 23.5330093,14.2016612 24.8946676,17.1644555 C25.1808133,17.7866424 30.420238,26.9811811 31.4562825,28.6798498 L31.6634914,29.0255092 L31.6930926,22.754261 C31.7128267,18.5668449 31.6832255,16.1077256 31.6141559,15.347275 Z M5.50583613,22.5666173 C6.93656417,22.0629424 8.57450108,21.7666629 10.3111089,21.697531 C11.7122356,21.6481511 13.4685777,21.7666629 13.9421979,21.9444306 C14.0211347,21.9740585 13.8829954,21.737035 13.6363182,21.4111276 C11.5938306,18.7544886 10.4887165,15.9892138 10.0446975,12.4437365 L9.98549492,11.9598134 L9.33426699,12.0190693 C7.16350722,12.2067129 4.52899423,13.1646831 2.65424717,14.4386848 L1.96355088,14.9127318 L1.88461416,15.5546706 C1.78594326,16.3743771 1.87474708,18.3792013 2.07208886,19.4161794 C2.25956357,20.4432813 2.71344971,21.9444306 3.08839912,22.7937649 L3.38441181,23.4357037 L4.00603848,23.1591762 C4.35138662,23.0011605 5.02234874,22.734509 5.50583613,22.5666173 Z M21.7668002,13.1054272 C21.5694584,11.663534 21.6681293,9.12540675 21.9838762,7.58475367 C22.2502876,6.34038002 22.6548383,5.07625441 23.1383256,4.00964843 L23.4146042,3.3874616 L22.7732433,3.09118216 C21.8753382,2.69614291 20.3854076,2.24184776 19.3296289,2.0640801 C18.1949137,1.86656047 16.359635,1.78755262 15.5406665,1.88631244 L14.8993057,1.96532029 L14.4256854,2.65663898 C13.1528307,4.53307544 12.195723,7.16996246 12.0082483,9.34267834 L11.9490458,9.99449312 L12.4325332,10.053749 C14.6328942,10.3302765 16.5273755,10.8635795 18.2541162,11.6931619 C19.1816226,12.1474571 20.9280975,13.243691 21.5990596,13.8066219 C21.7668002,13.9448857 21.8950723,14.0535215 21.9049395,14.0633975 C21.9049395,14.0633975 21.8457369,13.6288543 21.7668002,13.1054272 Z M5.68344375,10.8635795 C6.699754,10.5277961 8.28835547,10.1920127 9.43293789,10.063625 L9.99536201,10.0043691 L10.0545646,9.44143816 C10.2716405,7.41686199 10.8537988,5.35278189 11.6826344,3.61460917 L12.1759889,2.58750711 L11.8997104,2.65663898 C11.4162229,2.77515075 10.2617734,3.28870178 9.48227335,3.73312095 C7.06483633,5.11575834 5.11115254,7.07120264 3.72975996,9.49081807 C3.28574092,10.2710206 2.77265225,11.4265104 2.65424717,11.9104335 L2.58517753,12.186961 L3.61135488,11.6931619 C4.17377901,11.4265104 5.10128545,11.0512231 5.68344375,10.8635795 Z" id="Shape"></path>
                <path d="M197.085252,33.0252815 C196.996449,32.9660257 196.986581,32.9265217 197.055651,32.9265217 C197.114854,32.9265217 197.203658,32.9759016 197.233259,33.0252815 C197.312196,33.1437933 197.272727,33.1437933 197.085252,33.0252815 Z" id="Path"></path>
                <path d="M197.085252,31.4451246 C196.996449,31.3858687 196.986581,31.3463648 197.055651,31.3463648 C197.114854,31.3463648 197.203658,31.3957447 197.233259,31.4451246 C197.312196,31.5636364 197.272727,31.5636364 197.085252,31.4451246 Z" id="Path"></path>
                <path d="M67.9349136,30.2501308 C63.7216663,29.7069519 61.3140963,26.3688702 61.3140963,21.0753442 C61.3140963,16.9274321 62.7349572,14.0140176 65.3793373,12.7400159 C66.4153817,12.2462169 67.2442173,12.0190693 68.5466731,11.8808056 C71.0923823,11.6042781 73.9143701,12.4141085 75.453636,13.8658778 C75.9864589,14.3695529 76.0456615,14.4584367 76.0851298,14.9028558 C76.1640665,15.7324383 75.6213766,16.3348732 74.7728068,16.3348732 C74.4471929,16.3348732 74.1906485,16.2163614 73.4506168,15.7423143 C71.9508192,14.774468 70.8851734,14.4880646 69.2176352,14.5868244 C67.6783693,14.6757082 66.652192,15.1300034 65.7148184,16.1472295 C64.8761157,17.0459439 64.2840903,18.527341 64.2742232,19.7223348 L64.2742232,20.087746 L69.5531163,20.087746 C72.9671295,20.087746 74.9997499,20.1272499 75.3253639,20.1963818 C76.3120728,20.4037774 76.6278198,21.0358403 76.6179526,22.7937649 C76.6080855,25.6084196 75.5424399,27.8601433 73.6183573,29.1440209 C72.1580281,30.1316191 70.0859391,30.5266583 67.9349136,30.2501308 Z M71.0331798,27.3860963 C72.5724458,26.9021732 73.5591548,25.4800318 73.7170283,23.5245875 L73.7762308,22.754261 L69.0202935,22.754261 C64.797179,22.754261 64.2742232,22.7740129 64.2742232,22.9122767 C64.2742232,22.9912845 64.3432929,23.3764478 64.4320967,23.7714871 C65.024122,26.4281261 66.9284704,27.8206394 69.7011227,27.6231197 C70.1056734,27.5934919 70.7075659,27.4848561 71.0331798,27.3860963 Z" id="Shape"></path>
                <path d="M143.437885,30.2600068 C142.391974,30.1118672 141.62234,29.8847196 140.74417,29.4600524 C139.579852,28.8872454 138.40567,27.7120036 137.803777,26.5071339 C137.01441,24.917101 136.698663,23.3468199 136.698663,21.0457162 C136.698663,17.8360223 137.478162,15.5447946 139.106232,13.9053818 C140.280416,12.7400159 141.721011,12.1079531 143.743765,11.8906815 C145.697449,11.6734099 147.858341,12.0882012 149.269335,12.9572875 C151.755842,14.4584367 153.038564,17.6385026 152.841221,21.7666629 C152.624146,26.4380021 150.719797,29.2032768 147.11831,30.0723632 C146.20067,30.2896347 144.33579,30.3883945 143.437885,30.2600068 Z M146.615088,27.3860963 C148.124752,26.9219252 149.131196,25.7466833 149.644284,23.8603709 C149.83176,23.1986801 149.861361,22.8332688 149.861361,21.0753442 C149.861361,18.8137445 149.733089,18.1323017 149.131196,16.9274321 C148.30236,15.2781431 146.980171,14.5571964 144.789676,14.5571964 C142.135429,14.5571964 140.665233,15.6534304 139.935068,18.1619297 C139.727859,18.8828763 139.708125,19.1495279 139.708125,21.0753442 C139.708125,23.0011605 139.727859,23.267812 139.935068,23.9887587 C140.684967,26.5861418 142.461043,27.8008874 145.233695,27.6231197 C145.667848,27.5934919 146.289475,27.4848561 146.615088,27.3860963 Z" id="Shape"></path>
                <path d="M57.6139376,30.1019912 C56.6074945,29.9044715 55.3642412,29.2625327 54.6834119,28.571214 L54.1111208,28.008283 L54.1111208,28.561338 C54.1111208,29.5291842 53.5782978,30.0822392 52.6507915,30.0822392 C52.1475699,30.0822392 51.8219558,29.8847196 51.4766078,29.3711685 L51.2496647,29.0452611 L51.2496647,21.0852202 C51.2496647,12.0585732 51.2003292,12.6511321 52.0488989,12.2067129 C52.7297282,11.8511776 53.479627,12.0289453 53.8841776,12.6511321 C54.0420511,12.8980316 54.0716523,13.3720787 54.1209878,18.0137899 C54.1900575,23.5937194 54.1999245,23.7319832 54.8116841,24.9368529 C54.9794246,25.2726362 55.3149057,25.7664353 55.5714499,26.0330868 C56.3805514,26.9021732 57.1896528,27.2577085 58.6401149,27.3959723 C59.626824,27.4848561 59.8833682,27.6033679 60.2681848,28.1267948 C60.5641975,28.5119581 60.5444633,29.2230288 60.2385835,29.657572 C59.8044315,30.2600068 59.0545327,30.3883945 57.6139376,30.1019912 Z" id="Path"></path>
                <path d="M83.465713,30.1019912 C81.7883077,29.7267039 80.5351873,28.8279895 79.8938265,27.5243601 C79.5780796,26.8824212 79.5287441,26.7046536 79.4892759,25.8158152 C79.4300733,24.5911936 79.6175479,23.801115 80.1602379,22.9616566 C80.9298709,21.7765389 82.2125926,21.0062123 85.1431183,19.9889862 C87.3040109,19.2384117 88.2907199,18.7544886 88.7742073,18.2211856 C89.1984922,17.7471384 89.2774289,17.5002389 89.2182264,16.7792923 C89.1491567,16.0089658 88.8136757,15.5349186 88.0341756,15.1596313 C87.2152072,14.7645921 86.2778336,14.6164523 85.0937828,14.6855842 C83.455846,14.79422 82.3507319,15.2287632 81.2456177,16.1867334 C80.5450544,16.7990443 80.3378455,16.8780522 79.7458201,16.7990443 C79.1340606,16.7200365 78.7591112,16.2953692 78.6999086,15.6238025 C78.6604402,15.1398794 78.6900416,15.0509955 78.9959213,14.6559563 C79.7655543,13.6387303 81.265352,12.7301399 82.9723585,12.2264649 C84.0380043,11.9104335 85.991688,11.8017977 87.1658717,11.9795654 C89.3464986,12.3153487 91.0041696,13.3523268 91.6652646,14.804096 C91.8034039,15.1003754 91.9810116,15.6830584 92.0698153,16.1077256 C92.3855622,17.6187507 91.9119419,19.2087837 90.8660304,20.2358857 C89.9582581,21.1247241 88.853144,21.6876551 86.1495614,22.6258732 C83.8110611,23.4357037 82.8736877,23.9887587 82.5184724,24.7689613 C82.2717951,25.3121401 82.2816623,25.7763113 82.5579407,26.3096143 C82.9427573,27.0799409 83.584118,27.3762203 85.0543144,27.4651042 C86.6823843,27.563864 88.0144415,27.1688247 89.0011504,26.2799863 C89.6227771,25.7269314 89.8299859,25.6182956 90.2937392,25.6182956 C90.7772265,25.6182956 91.2311128,25.904699 91.4383215,26.3392422 C91.7836697,27.0601889 91.5863279,27.6033679 90.6785557,28.4527022 C89.9681252,29.124269 88.9912833,29.667448 87.9552389,29.9637274 C86.9586628,30.2600068 84.5017575,30.3291386 83.465713,30.1019912 Z" id="Path"></path>
                <path d="M162.658976,30.1513711 C161.346653,29.8945956 160.182336,29.2822847 159.432438,28.4625782 L159.01802,28.018159 L158.978551,28.6205939 C158.919349,29.5588122 158.416127,30.0822392 157.55769,30.0822392 C157.005133,30.0822392 156.531513,29.8155877 156.314437,29.3711685 C156.146696,29.0551371 156.136661,28.4428262 156.136661,21.0457162 C156.136661,12.3746046 156.117095,12.7498919 156.67952,12.3054727 C157.271545,11.8413016 158.287855,11.9993173 158.731874,12.6215042 C158.94895,12.9276596 158.94895,12.9474115 159.008153,18.1125498 C159.057489,22.3295939 159.096957,23.3863238 159.215361,23.7912391 C159.906058,26.0824667 161.208513,27.1787007 163.517413,27.3959723 C164.504122,27.4848561 164.770533,27.6033679 165.145483,28.1070429 C165.579634,28.6897258 165.273755,29.7760838 164.583058,30.1019912 C164.217976,30.2698827 163.379273,30.2995107 162.658976,30.1513711 Z" id="Path"></path>
                <path d="M188.254207,30.1118672 C186.527466,29.7267039 185.29408,28.8773694 184.662586,27.6231197 C184.317238,26.9416771 184.129764,25.9540789 184.198834,25.1738764 C184.297504,23.8603709 184.780992,22.8925247 185.747967,22.0234384 C186.636005,21.2234839 187.553643,20.7889407 190.434835,19.7914665 C192.723999,18.9915121 193.493632,18.537217 193.83898,17.7668904 C194.302733,16.7496644 193.779777,15.5546706 192.654929,15.0608715 C191.964233,14.7645921 190.868986,14.6263283 189.783605,14.6855842 C188.224606,14.784344 187.119492,15.2287632 185.965042,16.2064854 C185.412485,16.6706565 185.234878,16.7694164 184.840194,16.8089203 C184.198834,16.8681762 183.744947,16.5817727 183.508137,15.9793378 C183.251592,15.3077711 183.409467,14.9324837 184.297504,14.0831494 C184.859928,13.5498464 185.274345,13.2733189 186.053846,12.8881556 C187.642448,12.0980771 188.313409,11.9499374 190.375631,11.9499374 C191.885296,11.9400614 192.201043,11.9696894 192.881873,12.167209 C195.437448,12.9079076 196.730038,14.3794289 196.858309,16.6805325 C196.95698,18.2804415 196.621499,19.1692798 195.565721,20.2457617 C194.717151,21.1049721 193.67124,21.6382751 191.066327,22.5666173 C189.063308,23.267812 188.352878,23.6035954 187.800321,24.1072705 C187.277365,24.5813176 187.119492,24.907225 187.119492,25.5195357 C187.119492,26.7540335 188.027263,27.3959723 189.882277,27.4749801 C191.589283,27.544112 192.763467,27.1490727 193.927784,26.1318466 C194.431006,25.6973034 194.490208,25.6676755 195.02303,25.6676755 C195.516385,25.6676755 195.634791,25.7071794 195.901202,25.9639549 C196.266284,26.3096143 196.424158,26.8429173 196.295885,27.2774605 C196.157746,27.7712595 195.467049,28.5218341 194.667816,29.0650131 C193.957385,29.5390602 192.931208,29.9439755 191.875429,30.1513711 C191.164998,30.2995107 188.984372,30.2698827 188.254207,30.1118672 Z" id="Path"></path>
                <path d="M113.728078,30.0624873 C113.155786,29.9340995 112.622963,29.2526567 112.622963,28.6502219 C112.622963,28.5218341 113.905685,24.897349 115.48442,20.5815451 C117.674913,14.5670724 118.405078,12.68076 118.612287,12.4634885 C118.977369,12.0783252 119.480591,11.9400614 119.983812,12.0783252 C120.802781,12.2955968 120.77318,12.2363409 122.49992,18.1718057 C123.358357,21.154352 124.108256,23.7023552 124.147724,23.830743 C124.206927,24.0085107 124.611478,22.724633 125.844864,18.4483331 C127.62094,12.3054727 127.62094,12.3153487 128.420175,12.0783252 C128.913529,11.9301855 129.446352,12.0783252 129.821301,12.4536125 C130.018643,12.6708841 130.768541,14.6164523 132.899833,20.4729093 C134.448966,24.7294573 135.741555,28.3341904 135.781024,28.4823302 C135.850093,28.8674935 135.662618,29.3909205 135.337005,29.6871999 C134.814049,30.190875 133.995081,30.220503 133.412922,29.7662078 C133.107041,29.5291842 133.07744,29.4501764 130.768541,22.8332688 C129.771965,19.9692342 128.923396,17.6582546 128.893795,17.6977585 C128.854326,17.7372625 128.084693,20.3642735 127.176921,23.5443395 C126.269149,26.7244055 125.45018,29.4205484 125.371244,29.5489362 C124.90749,30.2600068 123.526098,30.2501308 123.052477,29.5390602 C122.963674,29.4106725 122.154572,26.7046536 121.2468,23.5344635 C120.339028,20.3642735 119.569395,17.7372625 119.539793,17.6977585 C119.500325,17.6582546 118.572819,20.2062578 117.467705,23.3764478 C116.362591,26.5367619 115.385749,29.2526567 115.296945,29.4205484 C115.010799,29.9242235 114.32997,30.200751 113.728078,30.0624873 Z" id="Path"></path>
                <path d="M197.085252,29.8649676 C196.996449,29.8057117 196.986581,29.7662078 197.055651,29.7662078 C197.114854,29.7662078 197.203658,29.8155877 197.233259,29.8649676 C197.312196,29.9834794 197.272727,29.9834794 197.085252,29.8649676 Z" id="Path"></path>
                <path d="M197.085252,28.2848105 C196.996449,28.2255546 196.986581,28.1860507 197.055651,28.1860507 C197.114854,28.1860507 197.203658,28.2354306 197.233259,28.2848105 C197.312196,28.4033223 197.272727,28.4033223 197.085252,28.2848105 Z" id="Path"></path>
                <path d="M197.085252,26.7046536 C196.996449,26.6453977 196.986581,26.6058937 197.055651,26.6058937 C197.114854,26.6058937 197.203658,26.6552737 197.233259,26.7046536 C197.312196,26.8231653 197.272727,26.8231653 197.085252,26.7046536 Z" id="Path"></path>
                <path d="M197.085252,25.1244965 C196.996449,25.0652406 196.986581,25.0257367 197.055651,25.0257367 C197.114854,25.0257367 197.203658,25.0751166 197.233259,25.1244965 C197.312196,25.2430083 197.272727,25.2430083 197.085252,25.1244965 Z" id="Path"></path>
                <path d="M197.085252,23.5443395 C196.996449,23.4850836 196.986581,23.4455797 197.055651,23.4455797 C197.114854,23.4455797 197.203658,23.4949596 197.233259,23.5443395 C197.312196,23.6628513 197.272727,23.6628513 197.085252,23.5443395 Z" id="Path"></path>
                <path d="M197.085252,21.9641825 C196.996449,21.9049267 196.986581,21.8654227 197.055651,21.8654227 C197.114854,21.8654227 197.203658,21.9148026 197.233259,21.9641825 C197.312196,22.0826943 197.272727,22.0826943 197.085252,21.9641825 Z" id="Path"></path>
                <path d="M197.085252,20.3840255 C196.996449,20.3247696 196.986581,20.2852656 197.055651,20.2852656 C197.114854,20.2852656 197.203658,20.3346455 197.233259,20.3840255 C197.312196,20.5025372 197.272727,20.5025372 197.085252,20.3840255 Z" id="Path"></path>
                <path d="M197.085252,18.8038685 C196.996449,18.7446126 196.986581,18.7051087 197.055651,18.7051087 C197.114854,18.7051087 197.203658,18.7544886 197.233259,18.8038685 C197.312196,18.9223803 197.272727,18.9223803 197.085252,18.8038685 Z" id="Path"></path>
                <path d="M197.085252,17.2237114 C196.996449,17.1644555 196.986581,17.1249516 197.055651,17.1249516 C197.114854,17.1249516 197.203658,17.1743315 197.233259,17.2237114 C197.312196,17.3422232 197.272727,17.3422232 197.085252,17.2237114 Z" id="Path"></path>
                <path d="M197.085252,15.6435544 C196.996449,15.5842985 196.986581,15.5447946 197.055651,15.5447946 C197.114854,15.5447946 197.203658,15.5941745 197.233259,15.6435544 C197.312196,15.7620662 197.272727,15.7620662 197.085252,15.6435544 Z" id="Path"></path>
                <path d="M197.085252,14.0633975 C196.996449,14.0041416 196.986581,13.9646377 197.055651,13.9646377 C197.114854,13.9646377 197.203658,14.0140176 197.233259,14.0633975 C197.312196,14.1819093 197.272727,14.1819093 197.085252,14.0633975 Z" id="Path"></path>
                <path d="M197.085252,12.4832404 C196.996449,12.4239845 196.986581,12.3844806 197.055651,12.3844806 C197.114854,12.3844806 197.203658,12.4338605 197.233259,12.4832404 C197.312196,12.6017522 197.272727,12.6017522 197.085252,12.4832404 Z" id="Path"></path>
                <path d="M197.085252,10.9030834 C196.996449,10.8438275 196.986581,10.8043236 197.055651,10.8043236 C197.114854,10.8043236 197.203658,10.8537035 197.233259,10.9030834 C197.312196,11.0215952 197.272727,11.0215952 197.085252,10.9030834 Z" id="Path"></path>
                <path d="M197.085252,9.32292639 C196.996449,9.2636705 196.986581,9.22416657 197.055651,9.22416657 C197.114854,9.22416657 197.203658,9.27354648 197.233259,9.32292639 C197.312196,9.44143816 197.272727,9.44143816 197.085252,9.32292639 Z" id="Path"></path>
                <path d="M197.085252,7.74276938 C196.996449,7.68351349 196.986581,7.64400956 197.055651,7.64400956 C197.114854,7.64400956 197.203658,7.69338947 197.233259,7.74276938 C197.312196,7.86128115 197.272727,7.86128115 197.085252,7.74276938 Z" id="Path"></path>
                <path d="M197.085252,6.16261236 C196.996449,6.10335647 196.986581,6.06385254 197.055651,6.06385254 C197.114854,6.06385254 197.203658,6.11323245 197.233259,6.16261236 C197.312196,6.28112413 197.272727,6.28112413 197.085252,6.16261236 Z" id="Path"></path>
                <path d="M197.085252,4.58245535 C196.996449,4.52319946 196.986581,4.48369553 197.055651,4.48369553 C197.114854,4.48369553 197.203658,4.53307544 197.233259,4.58245535 C197.312196,4.70096712 197.272727,4.70096712 197.085252,4.58245535 Z" id="Path"></path>
                <path d="M197.085252,3.00229833 C196.996449,2.94304244 196.986581,2.90353851 197.055651,2.90353851 C197.114854,2.90353851 197.203658,2.95291842 197.233259,3.00229833 C197.312196,3.1208101 197.272727,3.1208101 197.085252,3.00229833 Z" id="Path"></path>
                <path d="M197.085252,1.42214132 C196.996449,1.36288543 196.986581,1.3233815 197.055651,1.3233815 C197.114854,1.3233815 197.203658,1.37276141 197.233259,1.42214132 C197.312196,1.54065309 197.272727,1.54065309 197.085252,1.42214132 Z" id="Path"></path>
            </g>
        </g>
    </g>
</svg>