<?xml version="1.0" encoding="UTF-8"?>
<svg width="200px" height="80px" viewBox="0 0 200 80" version="1.1" xmlns="http://www.w3.org/2000/svg" xmlns:xlink="http://www.w3.org/1999/xlink">
    <!-- Generator: Sketch 63.1 (92452) - https://sketch.com -->
    <title>Artboard</title>
    <desc>Created with Sketch.</desc>
    <g id="Artboard" stroke="none" stroke-width="1" fill="none" fill-rule="evenodd">
        <g id="ga" transform="translate(0.000000, 20.000000)" fill="#ffffff" fill-rule="nonzero">
            <path d="M39.1,19.5441913 C39.1022521,28.7347806 32.702237,36.6859303 23.7233359,38.6475706 C14.7444348,40.6092109 5.61153716,36.051571 1.78069667,27.6974152 C-2.05014381,19.3432594 0.455649827,9.44875501 7.80109983,3.92494476 C15.1465498,-1.59886549 25.3479052,-1.26019233 32.3108086,4.73863864 L32.3108086,4.73863864 L19.7625326,22.627077 C19.6402333,22.7958148 19.450987,22.9034778 19.2434475,22.9223868 C19.0359079,22.9412957 18.8303205,22.8696061 18.6795399,22.7257486 L12.7856527,16.8343323 C11.8929391,15.9468059 10.451048,15.9468059 9.55833434,16.8343323 L9.46928827,16.9281907 C9.04059234,17.3557688 8.79965969,17.9363578 8.79965969,18.5418322 C8.79965969,19.1473067 9.04059234,19.7278956 9.46928827,20.1554738 L18.3185423,29.0022247 C18.690245,29.3727548 19.2067955,29.5599182 19.7295793,29.5134903 C20.2523631,29.4670624 20.7278448,29.1917977 21.0284308,28.7615623 L22.549434,26.5956004 L35.4659274,8.20417762 C35.5188738,8.27396972 35.5694134,8.34376182 35.6151398,8.4111473 C37.8904613,11.6772354 39.1069922,15.5637067 39.1,19.5441913 Z" id="Path"></path>
            <path d="M39.6833177,3.52115143 L36.3465589,8.02051282 L36.3465589,8.02051282 C36.20441,7.82869794 36.0597672,7.64161923 35.9051491,7.4569086 C35.3843095,6.8138089 34.8185987,6.20463123 34.2118313,5.6334832 C34.1045962,5.52928746 33.9923734,5.42272364 33.8776567,5.3185279 C33.6656802,5.12671302 33.4462223,4.93963431 33.2267643,4.75965985 L33.0846154,4.63651944 L35.812877,0.942306922 C36.5667106,-0.0621989216 38.0328152,-0.301037703 39.0961314,0.407441627 C40.1594476,1.11592096 40.4216498,2.50631712 39.6833177,3.52115143 Z" id="Path"></path>
            <path d="M51.3047587,29.6789354 C49.6799094,28.7715557 48.3506029,27.4179924 47.4749103,25.7792009 C46.5509467,24.0237099 46.0850301,22.0645696 46.1201015,20.0823429 C46.0812202,18.0670893 46.5696086,16.0765057 47.5371454,14.3067264 C48.4365622,12.6733955 49.775383,11.322806 51.4028986,10.406992 C53.061951,9.47890737 54.9366909,9.0023405 56.8388896,9.02513995 C58.2625871,9.00048494 59.6814574,9.19694856 61.0445418,9.60747483 C62.2627749,10.0054549 63.4269526,10.5521642 64.5105545,11.2351486 C64.6917,11.3363495 64.8409182,11.4859557 64.9414125,11.6671265 C65.0687698,11.8729822 65.1359218,12.1102165 65.1352986,12.352086 C65.1422591,12.6931911 65.0072566,13.0219451 64.7623679,13.2602358 C64.5174791,13.4985265 64.1845645,13.6250825 63.8427247,13.6098338 C63.6174764,13.610343 63.395266,13.5580195 63.1940442,13.4570903 C62.2866467,12.9096744 61.3145604,12.4767683 60.300115,12.1683163 C59.2789772,11.8734426 58.2203146,11.7279326 57.1572457,11.7363384 C55.6910567,11.7147484 54.2419733,12.0523929 52.9372316,12.7196252 C51.6945274,13.3637181 50.6709064,14.3602471 49.9954293,15.5835672 C49.2853116,16.8421107 48.9302527,18.3417025 48.9302527,20.0823429 C48.9023763,21.574774 49.2461535,23.0508022 49.9308006,24.378256 C50.5885092,25.6284056 51.5942181,26.6626493 52.8271234,27.3567557 C54.1981625,28.1067618 55.7448227,28.4791097 57.308046,28.4355072 C59.1905671,28.4472014 61.0452808,27.9824226 62.6985575,27.0846812 L62.6985575,21.526247 L57.6192212,21.526247 C56.9212161,21.526247 56.3553712,20.9620656 56.3553712,20.2661125 C56.3553712,19.5701594 56.9212161,19.005978 57.6192212,19.005978 L63.6871371,19.005978 C64.0798564,19.0047046 64.4568593,19.1596896 64.7345553,19.4365692 C65.0122512,19.7134488 65.1676932,20.0893434 65.1664161,20.4809081 L65.1664161,27.4522204 C65.1727062,27.85953 65.0604638,28.2599276 64.8432726,28.6049571 C64.6397712,28.9320578 64.3454079,29.1932213 63.9959187,29.3567419 C61.8131613,30.4759096 59.396245,31.0654833 56.9418167,31.0774937 C54.9720331,31.1146359 53.0273791,30.6321658 51.3047587,29.6789354 L51.3047587,29.6789354 Z" id="Path"></path>
            <path d="M70.3338964,28.841755 C68.8929069,27.3531748 68.173229,25.2593387 68.1748628,22.5602465 C68.1608026,21.1136694 68.4411774,19.6798323 68.9982853,18.3492632 C69.5261914,17.0834603 70.4008549,15.9995325 71.5175663,15.2272411 C72.6530399,14.4346638 74.0507343,14.0383751 75.7106497,14.0383751 C77.1331422,14.0010396 78.5355599,14.3863486 79.7468906,15.1473173 C80.8645939,15.8661596 81.7613752,16.8909068 82.3347901,18.1044967 C82.9270559,19.3635125 83.2272403,20.7444974 83.2121273,22.1406468 C83.2243563,22.5335904 83.0743326,22.913751 82.7985548,23.1886407 C82.5227771,23.4635305 82.1465249,23.6079512 81.7613351,23.5867674 L71.0739964,23.5867674 C71.2373739,25.085338 71.7846885,26.2508929 72.7159402,27.0834321 C73.6471919,27.9159713 74.9395079,28.332241 76.5928881,28.332241 C78.0722246,28.3669747 79.536535,28.0235071 80.8521394,27.3331939 C81.0284967,27.2462787 81.2223721,27.2026549 81.4182424,27.2058154 C81.746741,27.2021137 82.0638559,27.3283461 82.3029315,27.5579795 C82.5516206,27.7870788 82.6895121,28.1155989 82.6803335,28.4571218 C82.6803335,28.9291716 82.4058593,29.3262928 81.8618123,29.6484855 C81.0949595,30.0955532 80.2800295,30.4509021 79.4332058,30.7074753 C78.427053,30.9741754 77.3896862,31.0985569 76.3502725,31.0771228 C73.7803446,31.0771228 71.7748858,30.3320002 70.3338964,28.841755 Z M80.3816122,21.2090354 C80.3535918,20.2725825 80.0756965,19.3616163 79.5777949,18.5740488 C79.1414354,17.9019068 78.5340965,17.3632168 77.82067,17.0155354 C76.4881356,16.3496517 74.9282624,16.3496517 73.595728,17.0155354 C72.8868989,17.3612311 72.2862162,17.9007901 71.860659,18.5740488 C71.3707109,19.3688989 71.0990415,20.2831892 71.0739964,21.2215235 L80.3816122,21.2090354 Z" id="Shape"></path>
            <path d="M88.1184203,27.0270699 L88.1184203,17.5015865 L85.829168,17.5015865 C85.6660277,17.5035445 85.509004,17.4424565 85.3938734,17.3322411 C85.2787429,17.2220257 85.2153119,17.0720706 85.2179487,16.9165418 C85.2205447,16.7082753 85.3276632,16.5137903 85.5060678,16.3935834 L89.8917142,12.3078221 C90.0285778,12.1507971 90.2246663,12.0513187 90.4377284,12.0307692 C90.6041627,12.0286285 90.7633171,12.0957769 90.8735379,12.2146925 C90.9887661,12.3316866 91.0524309,12.4864241 91.0513683,12.6469092 L91.0513683,15.1040971 L94.6931329,15.1040971 C95.0286031,15.093337 95.3537367,15.2156711 95.5910842,15.4419584 C95.8284317,15.6682457 95.9567451,15.9782284 95.9454591,16.2980659 C95.9506661,16.6139245 95.8225093,16.9185261 95.5897984,17.1433959 C95.3554363,17.3778192 95.0276589,17.5062927 94.6881236,17.4968107 L91.0513683,17.4968107 L91.0513683,26.7763365 C91.0513683,27.5723157 91.2500707,28.0793545 91.6474755,28.2974528 C92.110529,28.5275452 92.6284692,28.6386512 93.150267,28.6198244 C93.5873972,28.6196036 94.0220814,28.5576406 94.440163,28.4359532 L94.7156747,28.3738668 C94.8379174,28.3524901 94.9621053,28.3428901 95.0863633,28.3452115 C95.3889928,28.3449045 95.6789214,28.4611552 95.8903567,28.6675831 C96.121402,28.8678436 96.250961,29.1531612 96.2460174,29.4508267 C96.2463549,29.9208801 95.9498544,30.3449059 95.4946216,30.5253986 C94.6564176,30.8949988 93.7431492,31.084142 92.8196529,31.0794872 C89.683828,31.0825841 88.1167505,29.7318073 88.1184203,27.0270699 Z" id="Path"></path>
            <path d="M98.6401372,30.6648707 C98.3814659,30.3970175 98.2414556,30.0357603 98.251819,29.6629247 C98.2633602,29.4476304 98.315752,29.2365255 98.4061815,29.0409437 L106.322084,10.3016492 C106.475572,9.94160688 106.715948,9.62555504 107.021539,9.38198857 C107.335958,9.13879104 107.724549,9.01223844 108.121372,9.02380497 L108.432509,9.02380497 C108.830011,9.01267347 109.219221,9.1391504 109.534754,9.38198857 C109.83857,9.62729652 110.078579,9.94286538 110.234209,10.3016492 L118.1477,29.0506244 C118.238129,29.2462062 118.290521,29.457311 118.302062,29.6726053 C118.312035,30.0434784 118.172969,30.4027982 117.916156,30.669711 C117.651919,30.942795 117.284624,31.0905673 116.905564,31.0762978 C116.623842,31.075704 116.34859,30.991499 116.114456,30.8342819 C115.87529,30.6790228 115.686642,30.4569184 115.571775,30.1953598 L113.543356,25.3405199 L103.000878,25.3405199 L100.982106,30.1977799 C100.86724,30.4593386 100.678591,30.681443 100.439425,30.836702 C100.20548,30.9943172 99.9301047,31.0785599 99.6483174,31.078718 C99.268764,31.0916495 98.9018303,30.9410271 98.6401372,30.6648707 L98.6401372,30.6648707 Z M104.08624,22.7533695 L112.467642,22.7533695 L108.278147,12.6322627 L104.08624,22.7533695 Z" id="Shape"></path>
            <path d="M123.487056,30.0492337 C122.227471,29.3723634 121.175026,28.3483226 120.447025,27.0912481 C119.664724,25.7195967 119.270072,24.1498919 119.307619,22.5593344 C119.269747,20.9679487 119.664406,19.3973511 120.447025,18.0249224 C121.175726,16.7684263 122.227991,15.7445598 123.487056,15.0669369 C124.769188,14.3776867 126.196213,14.0241927 127.64225,14.0376378 C128.608814,14.0179298 129.571722,14.1657211 130.490764,14.4748401 C131.272895,14.7555416 132.021222,15.1277196 132.721089,15.5840847 C133.052735,15.7811848 133.277317,16.1252338 133.329468,16.516091 C133.381618,16.9069481 133.255477,17.3006943 132.987759,17.5827236 C132.782836,17.8353292 132.480569,17.9823996 132.161084,17.9849497 C131.920298,17.9815751 131.684267,17.9153934 131.475016,17.7925807 C130.909279,17.4813045 130.319843,17.2181101 129.712574,17.0056166 C129.120054,16.8266569 128.504407,16.7424009 127.887101,16.7557867 C126.097991,16.7557867 124.694341,17.2862588 123.676148,18.347203 C122.657956,19.4081471 122.148052,20.8071943 122.146436,22.5443446 C122.146436,24.2781639 122.65634,25.6763783 123.676148,26.738988 C124.695957,27.8015977 126.098799,28.3370664 127.884676,28.345394 C128.501983,28.3587798 129.11763,28.2745238 129.710149,28.0955642 C130.317419,27.8830706 130.906855,27.6198763 131.472592,27.3086001 C131.681843,27.1857874 131.917874,27.1196057 132.158659,27.1162311 C132.477847,27.1201216 132.779597,27.2669407 132.985334,27.5184572 C133.253052,27.8004865 133.379194,28.1942327 133.327043,28.5850898 C133.274893,28.9759469 133.050311,29.319996 132.718665,29.5170961 C132.018798,29.9734612 131.270471,30.3456391 130.488339,30.6263407 C129.570912,30.9402686 128.608825,31.0931268 127.64225,31.0785327 C126.196077,31.0932131 124.768764,30.739648 123.487056,30.0492337 Z" id="Path"></path>
            <path d="M140.531085,30.0717844 C139.270908,29.3947733 138.217986,28.369162 137.490073,27.1096491 C136.708143,25.7360734 136.313678,24.1641665 136.351208,22.5713776 C136.313353,20.9777594 136.707825,19.4049584 137.490073,18.0306043 C138.218688,16.7716728 139.271429,15.746237 140.531085,15.068469 C141.810293,14.3790626 143.234098,14.0250846 144.677038,14.037726 C145.645556,14.01748 146.610479,14.1654809 147.53147,14.4755416 C148.313231,14.756637 149.061203,15.129337 149.760738,15.5863424 C150.149388,15.8185949 150.387208,16.2485332 150.383479,16.7121539 C150.380154,17.0443096 150.251499,17.3620321 150.024858,17.5977923 C149.820032,17.8507523 149.517909,17.9980291 149.198575,18.0005827 C148.957948,17.9968792 148.722106,17.9306262 148.512833,17.8079438 C147.949782,17.4957466 147.363068,17.2313516 146.758496,17.0173739 C146.166258,16.8381632 145.550902,16.753789 144.933889,16.7671936 C143.145628,16.7671936 141.742643,17.2984099 140.724934,18.3608424 C139.707225,19.4232749 139.197563,20.8242849 139.195947,22.5638722 C139.195947,24.3001238 139.70561,25.7002998 140.724934,26.7644002 C141.744259,27.8285006 143.147244,28.3597169 144.933889,28.358049 C145.550902,28.3714536 146.166258,28.2870794 146.758496,28.1078687 C147.365478,27.895077 147.954634,27.6315135 148.520102,27.3198006 C148.729375,27.1971182 148.965218,27.1308652 149.205844,27.1271617 C149.524881,27.1310576 149.826487,27.2780827 150.032127,27.5299521 C150.299,27.8124663 150.424848,28.2062168 150.373247,28.5972377 C150.321646,28.9882586 150.098357,29.3328944 149.768008,29.5313948 C149.068473,29.9884002 148.3205,30.3611002 147.53874,30.6421956 C146.617608,30.9514079 145.652688,31.0985625 144.684308,31.0775094 C143.240824,31.1003451 141.814207,30.7548821 140.531085,30.0717844 L140.531085,30.0717844 Z" id="Path"></path>
            <path d="M154.550711,28.8535558 C153.110436,27.3637892 152.390299,25.2682842 152.390299,22.5670408 C152.375543,21.1194934 152.65494,19.6845352 153.210864,18.3527011 C153.739771,17.0859361 154.614752,16.0012662 155.731344,15.2281907 C156.874419,14.4349816 158.272237,14.0383771 159.924797,14.0383771 C161.346584,14.0010118 162.748306,14.386628 163.959036,15.1482032 C165.075453,15.8677704 165.97096,16.8933569 166.543202,18.1077395 C167.13843,19.3659973 167.441034,20.7474755 167.427452,22.144607 C167.440133,22.5360091 167.292134,22.9150462 167.019154,23.1902946 C166.746174,23.465543 166.372995,23.6120143 165.989627,23.5943798 L155.290444,23.5943798 C155.45374,25.0941449 155.999967,26.2606288 156.929124,27.0938315 C157.858281,27.9270343 159.150772,28.3436357 160.806598,28.3436357 C161.58615,28.3584901 162.364495,28.2745277 163.123775,28.0936749 C163.795186,27.9163183 164.445674,27.6648753 165.063736,27.3437924 C165.239916,27.2565419 165.433758,27.2128692 165.629559,27.2163124 C165.957801,27.2131283 166.274575,27.3393882 166.513809,27.5687571 C166.761286,27.7988306 166.898885,28.1270778 166.891024,28.4686161 C166.891024,28.9418753 166.617502,29.3393131 166.070459,29.6609293 C165.30483,30.1083173 164.491119,30.4639525 163.645507,30.7207633 C162.635979,30.9834407 161.595792,31.1028792 160.554305,31.0757077 C157.992184,31.0857061 155.990986,30.3449888 154.550711,28.8535558 Z M164.593443,21.2147527 C164.565084,20.2768835 164.285531,19.3648567 163.785125,18.5776659 C163.351833,17.9052701 162.747215,17.3660434 162.03622,17.0179102 C160.704347,16.3514959 159.145247,16.3514959 157.813374,17.0179102 C157.104897,17.3638815 156.504512,17.9038706 156.079166,18.5776659 C155.588598,19.3728977 155.316213,20.2879339 155.290444,21.2272507 L164.593443,21.2147527 Z" id="Shape"></path>
            <path d="M170.849119,37.6683424 C170.577555,37.3923645 170.428671,37.0183818 170.436167,36.6310501 L170.436167,15.6376405 C170.430094,15.255649 170.578985,14.8875159 170.848815,14.617373 C171.118644,14.34723 171.48635,14.1981655 171.867897,14.2042461 C172.253825,14.1979693 172.626148,14.3468935 172.901513,14.6176776 C173.182762,14.8813029 173.339131,15.2519858 173.331773,15.6376405 L173.331773,16.4570766 C174.879723,14.8429607 176.693083,14.0359001 178.771853,14.0359001 C180.084877,14.0347942 181.374812,14.3815682 182.510671,15.0410117 C183.716251,15.736636 184.70767,16.7506176 185.376604,17.972167 C186.132315,19.3520211 186.511028,20.9070625 186.474511,22.4803037 C186.510443,24.0534814 186.131766,25.6083731 185.376604,26.9884404 C184.708707,28.2120413 183.717149,29.2278773 182.510671,29.9245469 C181.374812,30.5839905 180.084877,30.9307644 178.771853,30.9296559 C176.693083,30.9296559 174.879723,30.122598 173.331773,28.5084821 L173.331773,36.6310501 C173.345007,37.0236574 173.195032,37.4041806 172.917581,37.6819539 C172.64013,37.9597272 172.260049,38.1098771 171.867897,38.0966278 C171.483129,38.1043205 171.113056,37.9487452 170.849119,37.6683424 L170.849119,37.6683424 Z M182.139757,26.7235471 C183.094244,25.7332919 183.571487,24.3213531 183.571487,22.4877306 C183.571487,20.6541081 183.094244,19.2413441 182.139757,18.2494385 C181.18527,17.2591833 179.923337,16.7639775 178.353956,16.7639775 C177.397641,16.7591706 176.454017,16.9832553 175.60177,17.4176241 C174.744218,17.8515044 173.973207,18.4388257 173.326828,19.1505707 L173.326828,25.8347931 C173.972561,26.5472434 174.743712,27.1346705 175.60177,27.5677396 C176.454017,28.0021085 177.397641,28.2261932 178.353956,28.2213862 C179.926634,28.2213862 181.188567,27.7220544 182.139757,26.7235471 Z" id="Shape"></path>
            <path d="M191.383289,27.0233076 L191.383289,17.5002037 L189.093542,17.5002037 C188.930747,17.5029844 188.773955,17.4416631 188.660144,17.3307024 C188.542288,17.2221727 188.47774,17.0714265 188.482275,16.9153051 C188.484536,16.7064552 188.592845,16.5115944 188.772878,16.3924774 L193.156966,12.3077366 C193.294285,12.1499954 193.49152,12.0504384 193.705603,12.0307692 C193.871272,12.0289912 194.029533,12.0961175 194.139002,12.2146303 C194.254255,12.3315952 194.317933,12.486294 194.31687,12.6467391 L194.31687,15.1033131 L197.959422,15.1033131 C198.465147,15.1075111 198.919863,15.3977748 199.116388,15.8418518 C199.312913,16.2859288 199.213639,16.7988357 198.863796,17.1468772 C198.628068,17.380855 198.299662,17.5091583 197.959422,17.5002037 L194.31687,17.5002037 L194.31687,26.7774114 C194.31687,27.5731918 194.515616,28.0801039 194.913106,28.2981477 C195.37626,28.5281827 195.894312,28.639261 196.416222,28.6204388 C196.852627,28.6202285 197.28658,28.5582781 197.703892,28.4366135 L197.979463,28.3745427 C198.101747,28.3532825 198.22595,28.3436857 198.350232,28.3458946 C198.653624,28.3457562 198.944327,28.4619013 199.156904,28.6681856 C199.386267,28.8693717 199.514752,29.1541967 199.510136,29.4512335 C199.510474,29.9211696 199.213909,30.3450894 198.758578,30.525537 C197.920193,30.8950449 197.006727,31.0841409 196.083032,31.0794872 C192.94987,31.0794872 191.383289,29.7273693 191.383289,27.0233076 Z" id="Path"></path>
        </g>
    </g>
</svg>