<svg width="466" height="491" viewBox="0 0 466 491" fill="none" xmlns="http://www.w3.org/2000/svg">
<path fill-rule="evenodd" clip-rule="evenodd" d="M326 191.5L289 191.5C286.515 191.5 284.5 189.485 284.5 187L284.5 -1.81403e-06L287.5 -1.6829e-06L287.5 187C287.5 187.828 288.171 188.5 289 188.5L326 188.5L326 191.5Z" fill="url(#paint0_linear)" fill-opacity="0.4"/>
<path fill-rule="evenodd" clip-rule="evenodd" d="M325.5 190.25L289 190.25C287.205 190.25 285.75 188.795 285.75 187L285.75 -1.73753e-06L286.25 -1.71568e-06L286.25 187C286.25 188.519 287.481 189.75 289 189.75L325.5 189.75L325.5 190.25Z" fill="#5581FA"/>
<g filter="url(#filter0_d)">
<path d="M18 119.984C18 118.976 18.8173 118.158 19.8256 118.158H242.544C243.552 118.158 244.369 118.976 244.369 119.984V382.408C244.369 383.416 243.552 384.233 242.544 384.233H19.8256C18.8173 384.233 18 383.416 18 382.408V119.984Z" fill="white"/>
</g>
<path d="M25.3022 127.742C25.3022 126.482 26.3238 125.46 27.5841 125.46H235.241C236.502 125.46 237.523 126.482 237.523 127.742V196.657C237.523 197.918 236.502 198.939 235.241 198.939H27.5841C26.3238 198.939 25.3022 197.918 25.3022 196.657V127.742Z" fill="url(#paint1_linear)"/>
<path d="M45.502 168.514C47.5466 168.514 48.735 167.403 48.735 165.741C48.735 164.323 47.9299 163.531 46.1537 163.186L45.3614 163.019C44.403 162.828 43.9429 162.508 43.9429 161.767C43.9429 160.988 44.5308 160.566 45.5531 160.566C46.537 160.566 47.176 160.949 47.636 161.55L48.6456 160.655C47.9555 159.774 46.9715 159.288 45.6297 159.288C43.7385 159.288 42.5117 160.259 42.5117 161.844C42.5117 163.262 43.3934 164.067 45.1186 164.387L45.9109 164.527C46.946 164.732 47.3038 165.128 47.3038 165.818C47.3038 166.674 46.7159 167.236 45.5786 167.236C44.6074 167.236 43.8663 166.84 43.2401 166.074L42.2433 167.006C42.9845 167.927 44.0068 168.514 45.502 168.514Z" fill="#0E0E0D"/>
<path d="M54.3917 168.361H55.7846V161.716H54.3917V166.163C54.3917 166.943 53.6888 167.313 52.9732 167.313C52.117 167.313 51.6953 166.776 51.6953 165.767V161.716H50.3024V165.946C50.3024 167.582 51.1075 168.514 52.4748 168.514C53.5738 168.514 54.0978 167.914 54.3406 167.262H54.3917V168.361Z" fill="#0E0E0D"/>
<path d="M57.7791 168.361H59.172V167.262H59.2359C59.517 168.042 60.2199 168.514 61.1016 168.514C62.7756 168.514 63.7468 167.224 63.7468 165.039C63.7468 162.853 62.7756 161.563 61.1016 161.563C60.2199 161.563 59.517 162.023 59.2359 162.815H59.172V158.905H57.7791V168.361ZM60.6799 167.313C59.8365 167.313 59.172 166.853 59.172 166.176V163.901C59.172 163.224 59.8365 162.764 60.6799 162.764C61.6383 162.764 62.2773 163.441 62.2773 164.463V165.614C62.2773 166.636 61.6383 167.313 60.6799 167.313Z" fill="#0E0E0D"/>
<path d="M67.4501 168.514C69.0475 168.514 70.0826 167.658 70.0826 166.38C70.0826 165.307 69.4308 164.668 67.9741 164.451L67.3607 164.374C66.6578 164.259 66.3384 164.029 66.3384 163.518C66.3384 163.019 66.6962 162.687 67.4629 162.687C68.1785 162.687 68.7408 163.032 69.0858 163.441L69.942 162.623C69.3414 161.959 68.6641 161.563 67.4629 161.563C66.0061 161.563 64.9966 162.317 64.9966 163.607C64.9966 164.834 65.8272 165.422 67.1818 165.588L67.7951 165.665C68.4852 165.754 68.7408 166.074 68.7408 166.495C68.7408 167.058 68.3319 167.39 67.5268 167.39C66.7345 167.39 66.1339 167.032 65.6483 166.444L64.7538 167.262C65.3799 168.042 66.1978 168.514 67.4501 168.514Z" fill="#0E0E0D"/>
<path d="M74.2247 168.514C75.5026 168.514 76.4099 167.914 76.8444 166.828L75.7838 166.265C75.5026 166.93 75.0298 167.364 74.2247 167.364C73.2024 167.364 72.6785 166.661 72.6785 165.639V164.451C72.6785 163.428 73.2024 162.726 74.2247 162.726C74.9787 162.726 75.4515 163.122 75.6432 163.735L76.7933 163.198C76.3971 162.214 75.5537 161.563 74.2247 161.563C72.3079 161.563 71.2089 162.917 71.2089 165.039C71.2089 167.16 72.3079 168.514 74.2247 168.514Z" fill="#0E0E0D"/>
<path d="M79.5633 168.361V164.118C79.5633 163.428 80.1767 163.058 81.2757 163.058H81.8252V161.716H81.4546C80.3939 161.716 79.8189 162.317 79.6272 162.994H79.5633V161.716H78.1704V168.361H79.5633Z" fill="#0E0E0D"/>
<path d="M83.7652 160.528C84.3402 160.528 84.583 160.221 84.583 159.799V159.582C84.583 159.16 84.3402 158.854 83.7652 158.854C83.1901 158.854 82.9345 159.16 82.9345 159.582V159.799C82.9345 160.221 83.1901 160.528 83.7652 160.528ZM83.0623 168.361H84.4552V161.716H83.0623V168.361Z" fill="#0E0E0D"/>
<path d="M86.4443 170.917H87.8372V167.262H87.901C88.1822 168.042 88.885 168.514 89.7668 168.514C91.4408 168.514 92.412 167.224 92.412 165.039C92.412 162.853 91.4408 161.563 89.7668 161.563C88.885 161.563 88.1822 162.023 87.901 162.815H87.8372V161.716H86.4443V170.917ZM89.3451 167.313C88.5017 167.313 87.8372 166.853 87.8372 166.176V163.901C87.8372 163.224 88.5017 162.764 89.3451 162.764C90.3035 162.764 90.9424 163.441 90.9424 164.463V165.614C90.9424 166.636 90.3035 167.313 89.3451 167.313Z" fill="#0E0E0D"/>
<path d="M96.986 168.361V167.224H95.6954V162.853H97.0883V161.716H95.6954V159.901H94.443V161.064C94.443 161.524 94.2897 161.716 93.8297 161.716H93.2674V162.853H94.3025V166.917C94.3025 167.824 94.8136 168.361 95.7721 168.361H96.986Z" fill="#0E0E0D"/>
<path d="M99.302 160.528C99.8771 160.528 100.12 160.221 100.12 159.799V159.582C100.12 159.16 99.8771 158.854 99.302 158.854C98.727 158.854 98.4714 159.16 98.4714 159.582V159.799C98.4714 160.221 98.727 160.528 99.302 160.528ZM98.5992 168.361H99.9921V161.716H98.5992V168.361Z" fill="#0E0E0D"/>
<path d="M104.588 168.514C106.441 168.514 107.642 167.16 107.642 165.039C107.642 162.917 106.441 161.563 104.588 161.563C102.735 161.563 101.534 162.917 101.534 165.039C101.534 167.16 102.735 168.514 104.588 168.514ZM104.588 167.364C103.642 167.364 103.003 166.776 103.003 165.601V164.476C103.003 163.301 103.642 162.713 104.588 162.713C105.534 162.713 106.173 163.301 106.173 164.476V165.601C106.173 166.776 105.534 167.364 104.588 167.364Z" fill="#0E0E0D"/>
<path d="M110.587 168.361V163.914C110.587 163.134 111.303 162.764 112.031 162.764C112.887 162.764 113.283 163.288 113.283 164.323V168.361H114.676V164.144C114.676 162.508 113.871 161.563 112.517 161.563C111.494 161.563 110.932 162.099 110.651 162.815H110.587V161.716H109.194V168.361H110.587Z" fill="#0E0E0D"/>
<path d="M51.053 237.276V233.173H54.9707V232.035H51.053V229.176H55.3942V228.038H49.7692V237.276H51.053Z" fill="#4C4C4C"/>
<path d="M58.0676 237.276V232.776C58.0676 232.101 58.7294 231.651 59.8676 231.651H60.4765V230.42H60.0662C58.9676 230.42 58.3588 231.055 58.1338 231.73H58.0676V230.42H56.8368V237.276H58.0676Z" fill="#4C4C4C"/>
<path d="M64.356 237.435C65.6398 237.435 66.6324 236.839 67.1089 235.952L66.3148 235.277C65.9442 235.979 65.3221 236.389 64.4618 236.389C63.231 236.389 62.5295 235.568 62.5295 234.43V234.152H67.3604V233.636C67.3604 231.717 66.2751 230.261 64.356 230.261C62.4501 230.261 61.2457 231.677 61.2457 233.848C61.2457 236.018 62.4501 237.435 64.356 237.435ZM64.356 231.254C65.3883 231.254 66.0501 232.021 66.0501 233.16V233.292H62.5295V233.199C62.5295 232.074 63.2839 231.254 64.356 231.254Z" fill="#4C4C4C"/>
<path d="M71.6586 237.435C72.9424 237.435 73.9351 236.839 74.4116 235.952L73.6175 235.277C73.2469 235.979 72.6248 236.389 71.7645 236.389C70.5336 236.389 69.8322 235.568 69.8322 234.43V234.152H74.663V233.636C74.663 231.717 73.5777 230.261 71.6586 230.261C69.7527 230.261 68.5483 231.677 68.5483 233.848C68.5483 236.018 69.7527 237.435 71.6586 237.435ZM71.6586 231.254C72.691 231.254 73.3527 232.021 73.3527 233.16V233.292H69.8322V233.199C69.8322 232.074 70.5866 231.254 71.6586 231.254Z" fill="#4C4C4C"/>
<path d="M79.5083 228.038V233.491C79.5083 236.191 80.3554 237.435 82.8568 237.435C85.3583 237.435 86.2848 236.191 86.2848 233.491V228.038H85.0009V233.742C85.0009 235.423 84.4583 236.283 82.8965 236.283C81.3348 236.283 80.7921 235.423 80.7921 233.742V228.038H79.5083Z" fill="#4C4C4C"/>
<path d="M89.7212 237.276V232.577C89.7212 231.743 90.5021 231.333 91.3094 231.333C92.2756 231.333 92.7521 231.929 92.7521 233.08V237.276H93.9829V232.895C93.9829 231.227 93.1227 230.261 91.7197 230.261C90.6874 230.261 90.105 230.791 89.7874 231.545H89.7212V230.42H88.4903V237.276H89.7212Z" fill="#4C4C4C"/>
<path d="M96.6994 228.991C97.2156 228.991 97.4406 228.713 97.4406 228.316V228.13C97.4406 227.733 97.2156 227.455 96.6994 227.455C96.1832 227.455 95.9582 227.733 95.9582 228.13V228.316C95.9582 228.713 96.1832 228.991 96.6994 228.991ZM96.0773 237.276H97.3082V230.42H96.0773V237.276Z" fill="#4C4C4C"/>
<path d="M102.455 237.276V236.23H101.091V231.466H102.56V230.42H101.091V228.527H99.9796V229.785C99.9796 230.248 99.834 230.42 99.3707 230.42H98.7619V231.466H99.8605V235.979C99.8605 236.773 100.31 237.276 101.158 237.276H102.455Z" fill="#4C4C4C"/>
<path d="M106.312 237.435C107.926 237.435 108.932 236.601 108.932 235.264C108.932 234.205 108.31 233.543 106.801 233.318L106.219 233.226C105.425 233.107 105.028 232.855 105.028 232.246C105.028 231.664 105.451 231.28 106.285 231.28C107.106 231.28 107.688 231.664 108.019 232.101L108.8 231.36C108.217 230.671 107.49 230.261 106.325 230.261C104.882 230.261 103.837 230.976 103.837 232.326C103.837 233.596 104.75 234.139 106.06 234.324L106.643 234.417C107.476 234.536 107.741 234.893 107.741 235.396C107.741 236.032 107.265 236.416 106.391 236.416C105.557 236.416 104.922 236.045 104.406 235.396L103.572 236.111C104.207 236.918 105.041 237.435 106.312 237.435Z" fill="#4C4C4C"/>
<path d="M51.7414 272.874H53.0252V264.774H55.884V263.636H48.8826V264.774H51.7414V272.874Z" fill="#4C4C4C"/>
<path d="M62.0369 272.874V271.829H61.2693V268.215C61.2693 266.733 60.2898 265.86 58.5825 265.86C57.3119 265.86 56.5045 266.455 56.0943 267.196L56.8354 267.871C57.1928 267.289 57.709 266.892 58.5163 266.892C59.5487 266.892 60.0384 267.408 60.0384 268.321V268.943H58.7413C56.7825 268.943 55.8163 269.658 55.8163 270.982C55.8163 272.239 56.6501 273.033 58.0795 273.033C59.059 273.033 59.7869 272.583 60.0648 271.736H60.131C60.2237 272.398 60.581 272.874 61.3354 272.874H62.0369ZM58.3575 272.04C57.5898 272.04 57.1001 271.683 57.1001 271.048V270.783C57.1001 270.148 57.6031 269.804 58.7281 269.804H60.0384V270.862C60.0384 271.551 59.3237 272.04 58.3575 272.04Z" fill="#4C4C4C"/>
<path d="M62.6989 272.874H64.0489L65.8356 270.28H65.8753L67.5695 272.874H68.9989L66.5636 269.367L68.9592 266.018H67.6092L65.915 268.493H65.8753L64.2209 266.018H62.7915L65.1871 269.42L62.6989 272.874Z" fill="#4C4C4C"/>
<path d="M76.2506 273.033C78.302 273.033 79.5065 271.921 79.5065 270.214C79.5065 268.798 78.6991 267.99 76.8859 267.593L76.105 267.435C75.0065 267.196 74.4903 266.826 74.4903 266.005C74.4903 265.092 75.1653 264.602 76.2903 264.602C77.3359 264.602 78.0109 265.026 78.5006 265.701L79.4403 264.946C78.7388 263.993 77.7462 263.477 76.3565 263.477C74.4638 263.477 73.2197 264.417 73.2197 266.058C73.2197 267.501 74.1329 268.282 75.8668 268.639L76.6476 268.798C77.7991 269.049 78.2359 269.473 78.2359 270.28C78.2359 271.26 77.5609 271.908 76.3035 271.908C75.2712 271.908 74.5035 271.458 73.855 270.624L72.9417 271.445C73.6829 272.424 74.7417 273.033 76.2506 273.033Z" fill="#4C4C4C"/>
<path d="M85.4609 272.874H86.6918V266.018H85.4609V270.704C85.4609 271.564 84.6668 271.961 83.8859 271.961C82.9197 271.961 82.43 271.365 82.43 270.214V266.018H81.1991V270.399C81.1991 272.067 82.0727 273.033 83.4756 273.033C84.6138 273.033 85.1432 272.411 85.3947 271.749H85.4609V272.874Z" fill="#4C4C4C"/>
<path d="M88.8653 275.521H90.0961V271.749H90.1491C90.4667 272.596 91.1814 273.033 92.1211 273.033C93.8417 273.033 94.8741 271.67 94.8741 269.446C94.8741 267.223 93.8417 265.86 92.1211 265.86C91.1814 265.86 90.4667 266.296 90.1491 267.143H90.0961V266.018H88.8653V275.521ZM91.7638 271.961C90.8373 271.961 90.0961 271.432 90.0961 270.704V268.189C90.0961 267.461 90.8373 266.932 91.7638 266.932C92.8623 266.932 93.5638 267.712 93.5638 268.864V270.029C93.5638 271.18 92.8623 271.961 91.7638 271.961Z" fill="#4C4C4C"/>
<path d="M96.6074 275.521H97.8383V271.749H97.8912C98.2089 272.596 98.9236 273.033 99.8633 273.033C101.584 273.033 102.616 271.67 102.616 269.446C102.616 267.223 101.584 265.86 99.8633 265.86C98.9236 265.86 98.2089 266.296 97.8912 267.143H97.8383V266.018H96.6074V275.521ZM99.5059 271.961C98.5794 271.961 97.8383 271.432 97.8383 270.704V268.189C97.8383 267.461 98.5794 266.932 99.5059 266.932C100.604 266.932 101.306 267.712 101.306 268.864V270.029C101.306 271.18 100.604 271.961 99.5059 271.961Z" fill="#4C4C4C"/>
<path d="M106.983 273.033C108.85 273.033 110.107 271.63 110.107 269.446C110.107 267.262 108.85 265.86 106.983 265.86C105.117 265.86 103.86 267.262 103.86 269.446C103.86 271.63 105.117 273.033 106.983 273.033ZM106.983 271.974C105.911 271.974 105.17 271.299 105.17 269.962V268.93C105.17 267.593 105.911 266.918 106.983 266.918C108.055 266.918 108.797 267.593 108.797 268.93V269.962C108.797 271.299 108.055 271.974 106.983 271.974Z" fill="#4C4C4C"/>
<path d="M113.012 272.874V268.374C113.012 267.699 113.674 267.249 114.812 267.249H115.421V266.018H115.011C113.912 266.018 113.304 266.654 113.079 267.329H113.012V266.018H111.781V272.874H113.012Z" fill="#4C4C4C"/>
<path d="M119.774 272.874V271.829H118.411V267.064H119.88V266.018H118.411V264.126H117.299V265.383C117.299 265.846 117.154 266.018 116.69 266.018H116.082V267.064H117.18V271.577C117.18 272.371 117.63 272.874 118.477 272.874H119.774Z" fill="#4C4C4C"/>
<path d="M49.7692 310.298H52.9324C55.2751 310.298 56.7839 308.763 56.7839 305.679C56.7839 302.595 55.2751 301.06 52.9324 301.06H49.7692V310.298ZM51.053 309.16V302.198H52.9324C54.4016 302.198 55.4074 303.178 55.4074 304.938V306.42C55.4074 308.181 54.4016 309.16 52.9324 309.16H51.053Z" fill="#4C4C4C"/>
<path d="M59.2296 302.013C59.7457 302.013 59.9707 301.735 59.9707 301.338V301.153C59.9707 300.756 59.7457 300.478 59.2296 300.478C58.7134 300.478 58.4884 300.756 58.4884 301.153V301.338C58.4884 301.735 58.7134 302.013 59.2296 302.013ZM58.6075 310.298H59.8384V303.442H58.6075V310.298Z" fill="#4C4C4C"/>
<path d="M64.1112 310.457C65.7259 310.457 66.7318 309.623 66.7318 308.286C66.7318 307.228 66.1097 306.566 64.6009 306.341L64.0186 306.248C63.2244 306.129 62.8274 305.878 62.8274 305.269C62.8274 304.686 63.2509 304.303 64.0847 304.303C64.9053 304.303 65.4877 304.686 65.8186 305.123L66.5994 304.382C66.0171 303.694 65.2891 303.284 64.1244 303.284C62.6818 303.284 61.6362 303.998 61.6362 305.348C61.6362 306.619 62.5494 307.161 63.8597 307.347L64.4421 307.439C65.2759 307.559 65.5406 307.916 65.5406 308.419C65.5406 309.054 65.0641 309.438 64.1906 309.438C63.3568 309.438 62.7215 309.067 62.2053 308.419L61.3715 309.134C62.0068 309.941 62.8406 310.457 64.1112 310.457Z" fill="#4C4C4C"/>
<path d="M71.0893 310.457C72.3996 310.457 73.2996 309.822 73.7364 308.789L72.8364 308.234C72.4922 308.975 71.9231 309.398 71.0893 309.398C69.9114 309.398 69.3158 308.591 69.3158 307.466V306.275C69.3158 305.15 69.9114 304.342 71.0893 304.342C71.8834 304.342 72.4393 304.753 72.6643 305.428L73.6834 304.925C73.2864 303.945 72.4393 303.284 71.0893 303.284C69.1305 303.284 68.0055 304.673 68.0055 306.87C68.0055 309.067 69.1305 310.457 71.0893 310.457Z" fill="#4C4C4C"/>
<path d="M77.7337 310.457C79.5999 310.457 80.8573 309.054 80.8573 306.87C80.8573 304.686 79.5999 303.284 77.7337 303.284C75.8676 303.284 74.6102 304.686 74.6102 306.87C74.6102 309.054 75.8676 310.457 77.7337 310.457ZM77.7337 309.398C76.6617 309.398 75.9205 308.723 75.9205 307.386V306.354C75.9205 305.017 76.6617 304.342 77.7337 304.342C78.8058 304.342 79.547 305.017 79.547 306.354V307.386C79.547 308.723 78.8058 309.398 77.7337 309.398Z" fill="#4C4C4C"/>
<path d="M86.7274 310.298H87.9583V303.442H86.7274V308.128C86.7274 308.988 85.9333 309.385 85.1524 309.385C84.1862 309.385 83.6965 308.789 83.6965 307.638V303.442H82.4657V307.823C82.4657 309.491 83.3392 310.457 84.7421 310.457C85.8804 310.457 86.4098 309.835 86.6612 309.173H86.7274V310.298Z" fill="#4C4C4C"/>
<path d="M91.3627 310.298V305.6C91.3627 304.766 92.1436 304.356 92.9509 304.356C93.9171 304.356 94.3936 304.951 94.3936 306.103V310.298H95.6244V305.917C95.6244 304.25 94.7641 303.284 93.3612 303.284C92.3288 303.284 91.7465 303.813 91.4288 304.567H91.3627V303.442H90.1318V310.298H91.3627Z" fill="#4C4C4C"/>
<path d="M100.697 310.298V309.253H99.3335V304.488H100.803V303.442H99.3335V301.55H98.2218V302.807C98.2218 303.27 98.0762 303.442 97.6129 303.442H97.0041V304.488H98.1026V309.001C98.1026 309.795 98.5526 310.298 99.3997 310.298H100.697Z" fill="#4C4C4C"/>
<path d="M52.4295 346.055C54.4809 346.055 55.6854 344.943 55.6854 343.236C55.6854 341.82 54.878 341.013 53.0648 340.616L52.2839 340.457C51.1854 340.218 50.6692 339.848 50.6692 339.027C50.6692 338.114 51.3442 337.624 52.4692 337.624C53.5148 337.624 54.1898 338.048 54.6795 338.723L55.6192 337.968C54.9177 337.016 53.9251 336.499 52.5354 336.499C50.6427 336.499 49.3986 337.439 49.3986 339.08C49.3986 340.523 50.3118 341.304 52.0457 341.661L52.8265 341.82C53.978 342.071 54.4148 342.495 54.4148 343.302C54.4148 344.282 53.7398 344.93 52.4824 344.93C51.4501 344.93 50.6824 344.48 50.0339 343.646L49.1207 344.467C49.8618 345.446 50.9207 346.055 52.4295 346.055Z" fill="#4C4C4C"/>
<path d="M60.0648 346.055C61.3486 346.055 62.3413 345.46 62.8177 344.573L62.0236 343.898C61.653 344.599 61.031 345.01 60.1707 345.01C58.9398 345.01 58.2383 344.189 58.2383 343.051V342.773H63.0692V342.257C63.0692 340.338 61.9839 338.882 60.0648 338.882C58.1589 338.882 56.9545 340.298 56.9545 342.468C56.9545 344.639 58.1589 346.055 60.0648 346.055ZM60.0648 339.874C61.0971 339.874 61.7589 340.642 61.7589 341.78V341.913H58.2383V341.82C58.2383 340.695 58.9927 339.874 60.0648 339.874Z" fill="#4C4C4C"/>
<path d="M67.7248 345.896V344.851H66.3616V340.086H67.8307V339.041H66.3616V337.148H65.2498V338.405C65.2498 338.868 65.1042 339.041 64.641 339.041H64.0322V340.086H65.1307V344.599C65.1307 345.393 65.5807 345.896 66.4278 345.896H67.7248Z" fill="#4C4C4C"/>
<path d="M73.673 345.896H74.9039V339.041H73.673V343.726C73.673 344.586 72.8789 344.983 72.098 344.983C71.1319 344.983 70.6422 344.388 70.6422 343.236V339.041H69.4113V343.421C69.4113 345.089 70.2848 346.055 71.6878 346.055C72.826 346.055 73.3554 345.433 73.6069 344.771H73.673V345.896Z" fill="#4C4C4C"/>
<path d="M77.0774 348.543H78.3083V344.771H78.3612C78.6789 345.618 79.3936 346.055 80.3333 346.055C82.0539 346.055 83.0862 344.692 83.0862 342.468C83.0862 340.245 82.0539 338.882 80.3333 338.882C79.3936 338.882 78.6789 339.318 78.3612 340.166H78.3083V339.041H77.0774V348.543ZM79.9759 344.983C79.0495 344.983 78.3083 344.454 78.3083 343.726V341.211C78.3083 340.483 79.0495 339.954 79.9759 339.954C81.0745 339.954 81.7759 340.735 81.7759 341.886V343.051C81.7759 344.202 81.0745 344.983 79.9759 344.983Z" fill="#4C4C4C"/>
<path d="M89.3371 345.896V341.793H93.2548V340.655H89.3371V337.796H93.6783V336.658H88.0533V345.896H89.3371Z" fill="#4C4C4C"/>
<path d="M96.3517 345.896V341.396C96.3517 340.721 97.0135 340.271 98.1517 340.271H98.7605V339.041H98.3503C97.2517 339.041 96.6429 339.676 96.4179 340.351H96.3517V339.041H95.1208V345.896H96.3517Z" fill="#4C4C4C"/>
<path d="M102.64 346.055C103.924 346.055 104.917 345.46 105.393 344.573L104.599 343.898C104.228 344.599 103.606 345.01 102.746 345.01C101.515 345.01 100.814 344.189 100.814 343.051V342.773H105.644V342.257C105.644 340.338 104.559 338.882 102.64 338.882C100.734 338.882 99.5297 340.298 99.5297 342.468C99.5297 344.639 100.734 346.055 102.64 346.055ZM102.64 339.874C103.672 339.874 104.334 340.642 104.334 341.78V341.913H100.814V341.82C100.814 340.695 101.568 339.874 102.64 339.874Z" fill="#4C4C4C"/>
<path d="M109.943 346.055C111.227 346.055 112.219 345.46 112.696 344.573L111.902 343.898C111.531 344.599 110.909 345.01 110.049 345.01C108.818 345.01 108.116 344.189 108.116 343.051V342.773H112.947V342.257C112.947 340.338 111.862 338.882 109.943 338.882C108.037 338.882 106.832 340.298 106.832 342.468C106.832 344.639 108.037 346.055 109.943 346.055ZM109.943 339.874C110.975 339.874 111.637 340.642 111.637 341.78V341.913H108.116V341.82C108.116 340.695 108.871 339.874 109.943 339.874Z" fill="#4C4C4C"/>
<path d="M159.466 168.514C161.792 168.514 163.313 166.904 163.313 163.901C163.313 160.898 161.792 159.288 159.466 159.288C157.14 159.288 155.62 160.898 155.62 163.901C155.62 166.904 157.14 168.514 159.466 168.514ZM159.466 167.224C158.086 167.224 157.166 166.227 157.166 164.604V163.198C157.166 161.575 158.086 160.579 159.466 160.579C160.846 160.579 161.766 161.575 161.766 163.198V164.604C161.766 166.227 160.846 167.224 159.466 167.224Z" fill="#0E0E0D"/>
<path d="M166.404 168.361V163.914C166.404 163.134 167.12 162.764 167.848 162.764C168.704 162.764 169.1 163.288 169.1 164.323V168.361H170.493V164.144C170.493 162.508 169.688 161.563 168.334 161.563C167.311 161.563 166.749 162.099 166.468 162.815H166.404V161.716H165.011V168.361H166.404Z" fill="#0E0E0D"/>
<path d="M175.031 168.514C176.27 168.514 177.242 167.978 177.74 167.173L176.922 166.368C176.539 166.981 175.989 167.364 175.171 167.364C174.047 167.364 173.421 166.636 173.421 165.614V165.396H177.983V164.872C177.983 163.032 176.986 161.563 175.031 161.563C173.14 161.563 171.977 162.917 171.977 165.039C171.977 167.16 173.14 168.514 175.031 168.514ZM175.031 162.649C175.951 162.649 176.513 163.326 176.513 164.348V164.476H173.421V164.387C173.421 163.364 174.072 162.649 175.031 162.649Z" fill="#0E0E0D"/>
<path d="M185.599 168.361V167.224H184.308V162.853H185.701V161.716H184.308V159.901H183.056V161.064C183.056 161.524 182.902 161.716 182.442 161.716H181.88V162.853H182.915V166.917C182.915 167.824 183.426 168.361 184.385 168.361H185.599Z" fill="#0E0E0D"/>
<path d="M187.915 160.528C188.49 160.528 188.733 160.221 188.733 159.799V159.582C188.733 159.16 188.49 158.854 187.915 158.854C187.34 158.854 187.084 159.16 187.084 159.582V159.799C187.084 160.221 187.34 160.528 187.915 160.528ZM187.212 168.361H188.605V161.716H187.212V168.361Z" fill="#0E0E0D"/>
<path d="M191.987 168.361V163.901C191.987 163.134 192.664 162.764 193.354 162.764C194.172 162.764 194.568 163.275 194.568 164.31V168.361H195.961V163.901C195.961 163.134 196.613 162.764 197.316 162.764C198.159 162.764 198.542 163.288 198.542 164.31V168.361H199.935V164.144C199.935 162.508 199.156 161.563 197.84 161.563C196.766 161.563 196.076 162.176 195.833 162.917H195.795C195.475 161.997 194.721 161.563 193.827 161.563C192.817 161.563 192.319 162.125 192.051 162.815H191.987V161.716H190.594V168.361H191.987Z" fill="#0E0E0D"/>
<path d="M204.47 168.514C205.709 168.514 206.68 167.978 207.179 167.173L206.361 166.368C205.978 166.981 205.428 167.364 204.61 167.364C203.486 167.364 202.86 166.636 202.86 165.614V165.396H207.422V164.872C207.422 163.032 206.425 161.563 204.47 161.563C202.578 161.563 201.416 162.917 201.416 165.039C201.416 167.16 202.578 168.514 204.47 168.514ZM204.47 162.649C205.39 162.649 205.952 163.326 205.952 164.348V164.476H202.86V164.387C202.86 163.364 203.511 162.649 204.47 162.649Z" fill="#0E0E0D"/>
<path d="M170.89 267.626C170.89 263.719 174.058 260.552 177.965 260.552H193.025C196.932 260.552 200.099 263.719 200.099 267.626C200.099 271.533 196.932 274.7 193.025 274.7H177.965C174.058 274.7 170.89 271.533 170.89 267.626Z" fill="#11499D"/>
<path d="M199.187 267.626C199.187 271.029 196.428 273.787 193.025 273.787C189.623 273.787 186.864 271.029 186.864 267.626C186.864 264.223 189.623 261.465 193.025 261.465C196.428 261.465 199.187 264.223 199.187 267.626Z" fill="#F6F6FF"/>
<path d="M170.89 233.853C170.89 229.946 174.058 226.779 177.965 226.779H193.025C196.932 226.779 200.099 229.946 200.099 233.853C200.099 237.76 196.932 240.927 193.025 240.927H177.965C174.058 240.927 170.89 237.76 170.89 233.853Z" fill="#11499D"/>
<path d="M199.187 233.853C199.187 237.256 196.428 240.014 193.025 240.014C189.623 240.014 186.864 237.256 186.864 233.853C186.864 230.45 189.623 227.692 193.025 227.692C196.428 227.692 199.187 230.45 199.187 233.853Z" fill="#F6F6FF"/>
<path d="M170.89 302.768C170.89 298.861 174.058 295.694 177.965 295.694H193.025C196.932 295.694 200.099 298.861 200.099 302.768C200.099 306.675 196.932 309.842 193.025 309.842H177.965C174.058 309.842 170.89 306.675 170.89 302.768Z" fill="#11499D"/>
<path d="M199.187 302.768C199.187 306.171 196.428 308.929 193.025 308.929C189.623 308.929 186.864 306.171 186.864 302.768C186.864 299.365 189.623 296.606 193.025 296.606C196.428 296.606 199.187 299.365 199.187 302.768Z" fill="#F6F6FF"/>
<path opacity="0.7" d="M170.89 340.192C170.89 336.285 174.058 333.118 177.965 333.118H193.025C196.932 333.118 200.099 336.285 200.099 340.192C200.099 344.099 196.932 347.266 193.025 347.266H177.965C174.058 347.266 170.89 344.099 170.89 340.192Z" fill="#6B6BBC" fill-opacity="0.6"/>
<path opacity="0.7" d="M184.582 340.192C184.582 343.595 181.824 346.353 178.421 346.353C175.018 346.353 172.26 343.595 172.26 340.192C172.26 336.789 175.018 334.031 178.421 334.031C181.824 334.031 184.582 336.789 184.582 340.192Z" fill="#F6F6FF" fill-opacity="0.6"/>
<g filter="url(#filter1_d)">
<path d="M222 200.543C222 199.691 222.816 199 223.823 199H446.177C447.184 199 448 199.691 448 200.543V464.457C448 465.309 447.184 466 446.177 466H223.823C222.816 466 222 465.309 222 464.457V200.543Z" fill="white"/>
</g>
<path d="M225.201 205.389C225.201 204.129 226.223 203.107 227.483 203.107H442.442C443.703 203.107 444.724 204.129 444.724 205.389V262.438C444.724 263.698 443.703 264.72 442.442 264.72H227.483C226.223 264.72 225.201 263.698 225.201 262.438V205.389Z" fill="#F6F6FF"/>
<path d="M225 427.826C225 426.817 225.817 426 226.826 426H442.698C443.706 426 444.523 426.817 444.523 427.826V460.686C444.523 461.694 443.706 462.511 442.698 462.511H226.826C225.817 462.511 225 461.694 225 460.686V427.826Z" fill="#5C07D1" style="mix-blend-mode:multiply"/>
<path d="M244.687 230.034V228.488H243.537V222.661H244.687V221.115H240.444V222.661H241.594V228.488H240.444V230.034H244.687Z" fill="#0E0E0D"/>
<path d="M248.094 230.034V225.69C248.094 225.025 248.695 224.706 249.308 224.706C249.998 224.706 250.241 225.127 250.241 225.984V230.034H252.132V225.83C252.132 224.143 251.404 223.172 250.037 223.172C248.976 223.172 248.414 223.76 248.171 224.463H248.094V223.326H246.203V230.034H248.094Z" fill="#0E0E0D"/>
<path d="M257.396 230.034L259.594 223.326H257.805L257 226.035L256.374 228.463H256.271L255.645 226.035L254.815 223.326H252.949L255.147 230.034H257.396Z" fill="#0E0E0D"/>
<path d="M263.214 230.188C265.182 230.188 266.357 228.833 266.357 226.674C266.357 224.514 265.182 223.172 263.214 223.172C261.246 223.172 260.07 224.514 260.07 226.674C260.07 228.833 261.246 230.188 263.214 230.188ZM263.214 228.693C262.473 228.693 262.038 228.207 262.038 227.364V225.996C262.038 225.153 262.473 224.667 263.214 224.667C263.955 224.667 264.389 225.153 264.389 225.996V227.364C264.389 228.207 263.955 228.693 263.214 228.693Z" fill="#0E0E0D"/>
<path d="M268.651 222.61C269.417 222.61 269.75 222.214 269.75 221.677V221.396C269.75 220.859 269.417 220.463 268.651 220.463C267.884 220.463 267.552 220.859 267.552 221.396V221.677C267.552 222.214 267.884 222.61 268.651 222.61ZM267.705 230.034H269.596V223.326H267.705V230.034Z" fill="#0E0E0D"/>
<path d="M274.071 230.188C275.387 230.188 276.345 229.613 276.792 228.335L275.323 227.696C275.131 228.233 274.825 228.693 274.071 228.693C273.304 228.693 272.908 228.156 272.908 227.313V226.06C272.908 225.217 273.304 224.667 274.071 224.667C274.735 224.667 275.106 225.076 275.221 225.587L276.754 224.923C276.358 223.824 275.425 223.172 274.071 223.172C272.052 223.172 270.94 224.527 270.94 226.674C270.94 228.82 272.052 230.188 274.071 230.188Z" fill="#0E0E0D"/>
<path d="M280.699 230.188C281.926 230.188 282.91 229.766 283.511 229.076L282.565 227.9C282.143 228.335 281.709 228.705 280.916 228.705C279.907 228.705 279.434 228.143 279.434 227.261V227.159H283.741V226.597C283.741 224.782 282.846 223.172 280.623 223.172C278.604 223.172 277.479 224.552 277.479 226.674C277.479 228.82 278.642 230.188 280.699 230.188ZM280.661 224.565C281.415 224.565 281.785 225.115 281.785 225.932V226.047H279.434V225.945C279.434 225.115 279.907 224.565 280.661 224.565Z" fill="#0E0E0D"/>
<path d="M251.54 444.107V442.32H244.525V444.107H247.027V451.558H249.039V444.107H251.54Z" fill="white"/>
<path d="M254.764 451.717C256.802 451.717 258.02 450.314 258.02 448.077C258.02 445.84 256.802 444.451 254.764 444.451C252.725 444.451 251.508 445.84 251.508 448.077C251.508 450.314 252.725 451.717 254.764 451.717ZM254.764 450.168C253.996 450.168 253.546 449.665 253.546 448.792V447.376C253.546 446.502 253.996 445.999 254.764 445.999C255.531 445.999 255.981 446.502 255.981 447.376V448.792C255.981 449.665 255.531 450.168 254.764 450.168Z" fill="white"/>
<path d="M262.938 451.558V450.036H261.667V446.132H263.044V444.609H261.667V442.73H259.907V443.868C259.907 444.345 259.748 444.609 259.219 444.609H258.729V446.132H259.708V449.533C259.708 450.857 260.423 451.558 261.773 451.558H262.938Z" fill="white"/>
<path d="M270.625 451.558V450.036H269.976V446.992C269.976 445.351 268.971 444.451 267.012 444.451C265.556 444.451 264.762 444.954 264.206 445.774L265.371 446.807C265.675 446.383 266.085 445.986 266.866 445.986C267.687 445.986 268.018 446.409 268.018 447.084V447.521H266.919C265.079 447.521 263.941 448.223 263.941 449.692C263.941 450.896 264.709 451.717 266.098 451.717C267.157 451.717 267.925 451.24 268.137 450.34H268.216C268.335 451.082 268.838 451.558 269.54 451.558H270.625ZM266.826 450.354C266.244 450.354 265.913 450.115 265.913 449.612V449.414C265.913 448.911 266.31 448.633 267.065 448.633H268.018V449.454C268.018 450.089 267.475 450.354 266.826 450.354Z" fill="white"/>
<path d="M274.772 451.558V450.036H273.898V441.764H271.94V449.652C271.94 450.883 272.548 451.558 273.885 451.558H274.772Z" fill="white"/>
<path d="M245.388 292.56H248.869C251.318 292.56 252.933 291.011 252.933 287.941C252.933 284.87 251.318 283.322 248.869 283.322H245.388V292.56ZM247.4 290.773V285.108H248.869C250.06 285.108 250.802 285.757 250.802 287.226V288.655C250.802 290.125 250.06 290.773 248.869 290.773H247.4Z" fill="#0E0E0D"/>
<path d="M257.41 292.719C258.68 292.719 259.699 292.282 260.321 291.567L259.342 290.35C258.905 290.8 258.455 291.183 257.635 291.183C256.589 291.183 256.099 290.601 256.099 289.688V289.582H260.56V289C260.56 287.12 259.633 285.452 257.33 285.452C255.239 285.452 254.074 286.882 254.074 289.079C254.074 291.302 255.279 292.719 257.41 292.719ZM257.37 286.895C258.151 286.895 258.535 287.464 258.535 288.311V288.43H256.099V288.325C256.099 287.464 256.589 286.895 257.37 286.895Z" fill="#0E0E0D"/>
<path d="M264.299 292.719C266.086 292.719 267.277 291.739 267.277 290.402C267.277 289.198 266.496 288.51 264.987 288.311L264.206 288.205C263.637 288.126 263.478 287.927 263.478 287.557C263.478 287.213 263.743 286.975 264.405 286.975C264.987 286.975 265.569 287.252 266.006 287.689L267.131 286.538C266.43 285.85 265.755 285.452 264.299 285.452C262.644 285.452 261.599 286.379 261.599 287.716C261.599 288.973 262.366 289.661 263.941 289.86L264.696 289.952C265.186 290.019 265.397 290.191 265.397 290.535C265.397 290.945 265.133 291.197 264.365 291.197C263.611 291.197 263.015 290.852 262.525 290.31L261.374 291.475C262.089 292.269 262.962 292.719 264.299 292.719Z" fill="#0E0E0D"/>
<path d="M271.418 292.719C272.781 292.719 273.774 292.123 274.237 290.8L272.715 290.138C272.517 290.694 272.199 291.17 271.418 291.17C270.624 291.17 270.214 290.614 270.214 289.741V288.444C270.214 287.57 270.624 287.001 271.418 287.001C272.106 287.001 272.49 287.425 272.609 287.954L274.198 287.266C273.787 286.127 272.821 285.452 271.418 285.452C269.327 285.452 268.176 286.855 268.176 289.079C268.176 291.302 269.327 292.719 271.418 292.719Z" fill="#0E0E0D"/>
<path d="M358.794 293.354H357.378V292.613C359.244 292.203 360.409 290.614 360.409 287.941C360.409 284.804 358.794 283.163 356.346 283.163C353.897 283.163 352.282 284.804 352.282 287.941C352.282 290.694 353.527 292.295 355.499 292.653V293.036C355.499 294.307 356.121 294.995 357.55 294.995H358.794V293.354ZM356.346 290.932C355.141 290.932 354.413 290.098 354.413 288.629V287.253C354.413 285.783 355.141 284.95 356.346 284.95C357.55 284.95 358.278 285.783 358.278 287.253V288.629C358.278 290.098 357.55 290.932 356.346 290.932Z" fill="#0E0E0D"/>
<path d="M365.582 292.56V291.038H364.312V287.133H365.688V285.611H364.312V283.732H362.551V284.87C362.551 285.347 362.392 285.611 361.863 285.611H361.373V287.133H362.353V290.535C362.353 291.858 363.067 292.56 364.417 292.56H365.582Z" fill="#0E0E0D"/>
<path d="M370.278 288.854L369.762 290.866H369.683L369.18 288.854L368.161 285.611H366.215L368.65 292.917L368.412 293.685H367.102V295.207H368.319C369.511 295.207 370.093 294.704 370.45 293.632L373.124 285.611H371.297L370.278 288.854Z" fill="#0E0E0D"/>
<path d="M416.558 292.56L413.554 283.322H411.065L408.021 292.56H410.06L410.721 290.363H413.805L414.467 292.56H416.558ZM413.315 288.655H411.198L412.217 285.148H412.283L413.315 288.655Z" fill="#0E0E0D"/>
<path d="M419.689 292.56V288.06C419.689 287.372 420.271 287.041 420.841 287.041C421.476 287.041 421.794 287.464 421.794 288.364V292.56H423.752V288.06C423.752 287.372 424.321 287.041 424.904 287.041C425.552 287.041 425.857 287.464 425.857 288.364V292.56H427.816V288.205C427.816 286.458 427.074 285.452 425.738 285.452C424.679 285.452 423.871 286.075 423.62 286.855H423.58C423.276 285.942 422.588 285.452 421.635 285.452C420.602 285.452 420.02 286.048 419.769 286.789H419.689V285.611H417.73V292.56H419.689Z" fill="#0E0E0D"/>
<path d="M433.157 292.56V291.038H431.886V287.133H433.263V285.611H431.886V283.732H430.126V284.87C430.126 285.347 429.967 285.611 429.438 285.611H428.948V287.133H429.927V290.535C429.927 291.858 430.642 292.56 431.992 292.56H433.157Z" fill="#0E0E0D"/>
<path d="M243.509 243.27H240.264V242.53L241.79 241.168C242.032 240.949 242.217 240.741 242.345 240.545C242.477 240.344 242.543 240.134 242.543 239.915V239.826C242.543 239.594 242.473 239.411 242.331 239.279C242.194 239.146 242.007 239.08 241.77 239.08C241.638 239.08 241.521 239.101 241.421 239.142C241.325 239.178 241.241 239.231 241.167 239.299C241.094 239.368 241.033 239.448 240.983 239.539C240.937 239.63 240.9 239.728 240.873 239.833L240.195 239.573C240.246 239.422 240.314 239.279 240.401 239.142C240.487 239 240.597 238.875 240.729 238.765C240.862 238.656 241.017 238.569 241.195 238.505C241.377 238.441 241.59 238.409 241.832 238.409C242.073 238.409 242.29 238.446 242.482 238.519C242.674 238.587 242.833 238.685 242.961 238.813C243.093 238.936 243.194 239.085 243.262 239.258C243.331 239.432 243.365 239.621 243.365 239.826C243.365 240.018 243.335 240.196 243.276 240.36C243.217 240.525 243.135 240.68 243.03 240.826C242.925 240.972 242.801 241.111 242.66 241.243C242.523 241.376 242.377 241.51 242.222 241.647L241.099 242.613H243.509V243.27Z" fill="#606559"/>
<path d="M246.368 243.27V242.339H244.15V241.675L246.087 238.491H247.1V241.729H247.751V242.339H247.1V243.27H246.368ZM244.807 241.729H246.368V239.197H246.32L244.807 241.729Z" fill="#606559"/>
<path d="M251.493 239.162H249.37L249.247 240.853H249.295C249.35 240.757 249.407 240.673 249.466 240.6C249.525 240.522 249.594 240.456 249.672 240.401C249.749 240.347 249.838 240.306 249.939 240.278C250.039 240.246 250.158 240.23 250.294 240.23C250.5 240.23 250.689 240.264 250.863 240.333C251.041 240.401 251.194 240.5 251.321 240.627C251.454 240.755 251.556 240.913 251.629 241.1C251.702 241.282 251.739 241.49 251.739 241.723C251.739 241.96 251.7 242.179 251.623 242.38C251.55 242.581 251.44 242.754 251.294 242.9C251.148 243.042 250.968 243.153 250.753 243.236C250.543 243.313 250.304 243.352 250.034 243.352C249.82 243.352 249.63 243.327 249.466 243.277C249.302 243.231 249.156 243.169 249.028 243.092C248.905 243.01 248.795 242.918 248.699 242.818C248.608 242.713 248.526 242.606 248.453 242.496L249.014 242.051C249.074 242.147 249.135 242.234 249.199 242.311C249.263 242.389 249.336 242.457 249.418 242.517C249.5 242.576 249.592 242.622 249.692 242.654C249.797 242.686 249.916 242.702 250.048 242.702C250.331 242.702 250.548 242.624 250.698 242.469C250.854 242.314 250.931 242.099 250.931 241.825V241.743C250.931 241.469 250.854 241.255 250.698 241.1C250.548 240.945 250.331 240.867 250.048 240.867C249.843 240.867 249.678 240.906 249.555 240.983C249.432 241.061 249.327 241.148 249.24 241.243L248.604 241.154L248.782 238.491H251.493V239.162Z" fill="#606559"/>
<path d="M254.326 243.27V238.491H257.386V239.176H255.1V240.504H257.174V241.189H255.1V242.585H257.386V243.27H254.326Z" fill="#606559"/>
<path d="M260.584 243.27L262.316 239.128H260.509V240.011H259.845V238.491H263.083V239.162L261.399 243.27H260.584Z" fill="#606559"/>
<path d="M265.312 240.456C265.609 240.456 265.828 240.395 265.969 240.271C266.111 240.144 266.181 239.982 266.181 239.785V239.737C266.181 239.518 266.113 239.352 265.976 239.238C265.839 239.119 265.654 239.06 265.421 239.06C265.193 239.06 264.999 239.112 264.839 239.217C264.68 239.317 264.545 239.459 264.436 239.642L263.922 239.197C263.995 239.092 264.077 238.991 264.169 238.895C264.26 238.799 264.367 238.717 264.49 238.649C264.614 238.576 264.753 238.519 264.908 238.478C265.063 238.432 265.241 238.409 265.442 238.409C265.666 238.409 265.873 238.437 266.065 238.491C266.257 238.546 266.421 238.628 266.558 238.738C266.695 238.843 266.802 238.973 266.88 239.128C266.957 239.279 266.996 239.45 266.996 239.642C266.996 239.792 266.971 239.929 266.921 240.052C266.875 240.175 266.809 240.285 266.722 240.381C266.64 240.472 266.542 240.547 266.428 240.607C266.318 240.666 266.202 240.709 266.079 240.737V240.771C266.216 240.798 266.343 240.844 266.462 240.908C266.585 240.967 266.692 241.047 266.784 241.148C266.875 241.243 266.946 241.36 266.996 241.497C267.051 241.629 267.078 241.782 267.078 241.955C267.078 242.165 267.037 242.357 266.955 242.53C266.873 242.699 266.756 242.845 266.606 242.969C266.46 243.092 266.282 243.188 266.072 243.256C265.862 243.32 265.629 243.352 265.373 243.352C265.15 243.352 264.954 243.327 264.785 243.277C264.616 243.231 264.465 243.169 264.333 243.092C264.205 243.01 264.091 242.918 263.991 242.818C263.895 242.713 263.81 242.606 263.737 242.496L264.306 242.051C264.365 242.147 264.426 242.236 264.49 242.318C264.559 242.396 264.634 242.464 264.716 242.524C264.803 242.578 264.899 242.622 265.004 242.654C265.113 242.686 265.237 242.702 265.373 242.702C265.666 242.702 265.889 242.633 266.044 242.496C266.2 242.355 266.277 242.161 266.277 241.914V241.866C266.277 241.62 266.195 241.433 266.031 241.305C265.866 241.177 265.634 241.113 265.332 241.113H264.826V240.456H265.312Z" fill="#606559"/>
<path d="M268.157 243.27V239.71H268.903V240.395H268.937C268.988 240.212 269.093 240.052 269.252 239.915C269.412 239.778 269.633 239.71 269.916 239.71H270.115V240.429H269.821C269.524 240.429 269.296 240.477 269.136 240.573C268.981 240.668 268.903 240.81 268.903 240.997V243.27H268.157Z" fill="#606559"/>
<path d="M272.983 242.681H272.949C272.871 242.891 272.743 243.055 272.565 243.174C272.392 243.293 272.186 243.352 271.949 243.352C271.497 243.352 271.148 243.19 270.902 242.866C270.655 242.537 270.532 242.079 270.532 241.49C270.532 240.901 270.655 240.445 270.902 240.121C271.148 239.792 271.497 239.628 271.949 239.628C272.186 239.628 272.392 239.687 272.565 239.806C272.743 239.92 272.871 240.084 272.949 240.299H272.983V238.204H273.729V243.27H272.983V242.681ZM272.175 242.708C272.403 242.708 272.595 242.654 272.75 242.544C272.905 242.43 272.983 242.282 272.983 242.099V240.881C272.983 240.698 272.905 240.552 272.75 240.442C272.595 240.328 272.403 240.271 272.175 240.271C271.915 240.271 271.707 240.356 271.552 240.525C271.397 240.689 271.319 240.908 271.319 241.182V241.798C271.319 242.072 271.397 242.293 271.552 242.462C271.707 242.626 271.915 242.708 272.175 242.708Z" fill="#606559"/>
<path d="M277.899 243.352C277.497 243.352 277.155 243.279 276.872 243.133C276.594 242.987 276.354 242.791 276.153 242.544L276.687 242.044C276.856 242.25 277.041 242.405 277.242 242.51C277.447 242.615 277.68 242.667 277.94 242.667C278.246 242.667 278.476 242.599 278.632 242.462C278.787 242.325 278.864 242.14 278.864 241.907C278.864 241.72 278.81 241.572 278.7 241.463C278.59 241.353 278.397 241.271 278.118 241.216L277.694 241.141C277.228 241.054 276.879 240.901 276.646 240.682C276.414 240.463 276.297 240.162 276.297 239.778C276.297 239.568 276.336 239.379 276.414 239.21C276.496 239.037 276.607 238.893 276.749 238.779C276.895 238.66 277.071 238.569 277.276 238.505C277.481 238.441 277.712 238.409 277.968 238.409C278.328 238.409 278.641 238.473 278.905 238.601C279.17 238.724 279.396 238.904 279.583 239.142L279.042 239.621C278.919 239.461 278.768 239.333 278.59 239.238C278.412 239.142 278.191 239.094 277.926 239.094C277.653 239.094 277.44 239.149 277.29 239.258C277.139 239.368 277.064 239.527 277.064 239.737C277.064 239.938 277.125 240.089 277.249 240.189C277.372 240.285 277.564 240.358 277.824 240.408L278.248 240.497C278.727 240.589 279.077 240.744 279.296 240.963C279.519 241.182 279.631 241.483 279.631 241.866C279.631 242.09 279.592 242.293 279.515 242.476C279.437 242.658 279.323 242.816 279.172 242.948C279.026 243.076 278.846 243.176 278.632 243.249C278.417 243.318 278.173 243.352 277.899 243.352Z" fill="#606559"/>
<path d="M281.477 243.27C281.217 243.27 281.021 243.204 280.889 243.071C280.756 242.934 280.69 242.743 280.69 242.496V240.319H280.136V239.71H280.437C280.56 239.71 280.644 239.683 280.69 239.628C280.74 239.573 280.765 239.484 280.765 239.361V238.738H281.436V239.71H282.183V240.319H281.436V242.661H282.128V243.27H281.477Z" fill="#606559"/>
<path d="M282.992 243.27V239.71H283.738V240.395H283.772C283.823 240.212 283.928 240.052 284.087 239.915C284.247 239.778 284.468 239.71 284.751 239.71H284.95V240.429H284.655C284.359 240.429 284.131 240.477 283.971 240.573C283.816 240.668 283.738 240.81 283.738 240.997V243.27H282.992Z" fill="#606559"/>
<path d="M286.976 243.352C286.72 243.352 286.492 243.309 286.291 243.222C286.09 243.135 285.919 243.012 285.778 242.852C285.636 242.688 285.527 242.492 285.449 242.263C285.376 242.031 285.34 241.773 285.34 241.49C285.34 241.207 285.376 240.951 285.449 240.723C285.527 240.49 285.636 240.294 285.778 240.134C285.919 239.97 286.09 239.845 286.291 239.758C286.492 239.671 286.72 239.628 286.976 239.628C287.236 239.628 287.464 239.673 287.66 239.765C287.861 239.856 288.028 239.984 288.16 240.148C288.292 240.308 288.391 240.495 288.454 240.709C288.523 240.924 288.557 241.154 288.557 241.401V241.682H286.113V241.798C286.113 242.072 286.193 242.298 286.353 242.476C286.517 242.649 286.75 242.736 287.051 242.736C287.27 242.736 287.455 242.688 287.606 242.592C287.756 242.496 287.884 242.366 287.989 242.202L288.427 242.633C288.295 242.852 288.103 243.028 287.852 243.16C287.601 243.288 287.309 243.352 286.976 243.352ZM286.976 240.21C286.848 240.21 286.729 240.233 286.62 240.278C286.515 240.324 286.424 240.388 286.346 240.47C286.273 240.552 286.216 240.65 286.175 240.764C286.134 240.878 286.113 241.004 286.113 241.141V241.189H287.77V241.12C287.77 240.846 287.699 240.627 287.558 240.463C287.416 240.294 287.222 240.21 286.976 240.21Z" fill="#606559"/>
<path d="M290.78 243.352C290.524 243.352 290.296 243.309 290.095 243.222C289.894 243.135 289.723 243.012 289.582 242.852C289.44 242.688 289.331 242.492 289.253 242.263C289.18 242.031 289.144 241.773 289.144 241.49C289.144 241.207 289.18 240.951 289.253 240.723C289.331 240.49 289.44 240.294 289.582 240.134C289.723 239.97 289.894 239.845 290.095 239.758C290.296 239.671 290.524 239.628 290.78 239.628C291.04 239.628 291.268 239.673 291.464 239.765C291.665 239.856 291.832 239.984 291.964 240.148C292.096 240.308 292.195 240.495 292.258 240.709C292.327 240.924 292.361 241.154 292.361 241.401V241.682H289.917V241.798C289.917 242.072 289.997 242.298 290.157 242.476C290.321 242.649 290.554 242.736 290.855 242.736C291.074 242.736 291.259 242.688 291.41 242.592C291.56 242.496 291.688 242.366 291.793 242.202L292.231 242.633C292.099 242.852 291.907 243.028 291.656 243.16C291.405 243.288 291.113 243.352 290.78 243.352ZM290.78 240.21C290.652 240.21 290.533 240.233 290.424 240.278C290.319 240.324 290.227 240.388 290.15 240.47C290.077 240.552 290.02 240.65 289.979 240.764C289.938 240.878 289.917 241.004 289.917 241.141V241.189H291.574V241.12C291.574 240.846 291.503 240.627 291.362 240.463C291.22 240.294 291.026 240.21 290.78 240.21Z" fill="#606559"/>
<path d="M294.173 243.27C293.913 243.27 293.717 243.204 293.584 243.071C293.452 242.934 293.386 242.743 293.386 242.496V240.319H292.831V239.71H293.132C293.256 239.71 293.34 239.683 293.386 239.628C293.436 239.573 293.461 239.484 293.461 239.361V238.738H294.132V239.71H294.878V240.319H294.132V242.661H294.823V243.27H294.173Z" fill="#606559"/>
<path d="M241.681 249.755L241.154 248.742H241.133V252.398H240.394V247.619H241.256L242.817 250.262L243.344 251.275H243.365V247.619H244.104V252.398H243.242L241.681 249.755Z" fill="#606559"/>
<path d="M246.623 252.48C246.367 252.48 246.139 252.436 245.938 252.35C245.737 252.263 245.566 252.14 245.425 251.98C245.283 251.816 245.174 251.619 245.096 251.391C245.023 251.159 244.987 250.901 244.987 250.618C244.987 250.335 245.023 250.079 245.096 249.851C245.174 249.618 245.283 249.422 245.425 249.262C245.566 249.098 245.737 248.972 245.938 248.886C246.139 248.799 246.367 248.756 246.623 248.756C246.883 248.756 247.111 248.801 247.307 248.893C247.508 248.984 247.675 249.112 247.807 249.276C247.939 249.436 248.038 249.623 248.101 249.837C248.17 250.052 248.204 250.282 248.204 250.529V250.809H245.76V250.926C245.76 251.2 245.84 251.425 246 251.603C246.164 251.777 246.397 251.864 246.698 251.864C246.917 251.864 247.102 251.816 247.253 251.72C247.403 251.624 247.531 251.494 247.636 251.33L248.074 251.761C247.942 251.98 247.75 252.156 247.499 252.288C247.248 252.416 246.956 252.48 246.623 252.48ZM246.623 249.338C246.495 249.338 246.376 249.36 246.267 249.406C246.162 249.452 246.07 249.516 245.993 249.598C245.92 249.68 245.863 249.778 245.822 249.892C245.781 250.006 245.76 250.132 245.76 250.269V250.316H247.417V250.248C247.417 249.974 247.346 249.755 247.205 249.591C247.063 249.422 246.869 249.338 246.623 249.338Z" fill="#606559"/>
<path d="M248.641 248.838H249.366L249.729 250.33L250.051 251.679H250.072L250.441 250.33L250.872 248.838H251.543L251.982 250.33L252.358 251.679H252.379L252.693 250.33L253.063 248.838H253.755L252.796 252.398H251.954L251.489 250.775L251.201 249.776H251.187L250.907 250.775L250.434 252.398H249.613L248.641 248.838Z" fill="#606559"/>
<path d="M257.268 252.398V250.515L255.625 247.619H256.508L257.671 249.748H257.692L258.849 247.619H259.698L258.041 250.501V252.398H257.268Z" fill="#606559"/>
<path d="M261.337 252.48C261.091 252.48 260.865 252.436 260.66 252.35C260.459 252.263 260.288 252.14 260.146 251.98C260.005 251.816 259.895 251.619 259.817 251.391C259.74 251.159 259.701 250.901 259.701 250.618C259.701 250.335 259.74 250.079 259.817 249.851C259.895 249.618 260.005 249.422 260.146 249.262C260.288 249.098 260.459 248.972 260.66 248.886C260.865 248.799 261.091 248.756 261.337 248.756C261.584 248.756 261.807 248.799 262.008 248.886C262.214 248.972 262.387 249.098 262.528 249.262C262.67 249.422 262.779 249.618 262.857 249.851C262.935 250.079 262.973 250.335 262.973 250.618C262.973 250.901 262.935 251.159 262.857 251.391C262.779 251.619 262.67 251.816 262.528 251.98C262.387 252.14 262.214 252.263 262.008 252.35C261.807 252.436 261.584 252.48 261.337 252.48ZM261.337 251.864C261.593 251.864 261.798 251.786 261.953 251.631C262.109 251.471 262.186 251.234 262.186 250.919V250.316C262.186 250.002 262.109 249.767 261.953 249.611C261.798 249.452 261.593 249.372 261.337 249.372C261.082 249.372 260.876 249.452 260.721 249.611C260.566 249.767 260.488 250.002 260.488 250.316V250.919C260.488 251.234 260.566 251.471 260.721 251.631C260.876 251.786 261.082 251.864 261.337 251.864Z" fill="#606559"/>
<path d="M263.805 252.398V248.838H264.551V249.522H264.585C264.635 249.34 264.74 249.18 264.9 249.043C265.06 248.906 265.281 248.838 265.564 248.838H265.763V249.557H265.468C265.172 249.557 264.944 249.604 264.784 249.7C264.629 249.796 264.551 249.938 264.551 250.125V252.398H263.805Z" fill="#606559"/>
<path d="M266.426 247.332H267.172V250.44H267.206L267.699 249.803L268.555 248.838H269.424L268.178 250.214L269.575 252.398H268.685L267.665 250.7L267.172 251.234V252.398H266.426V247.332Z" fill="#606559"/>
<path d="M270.628 251.446C270.797 251.446 270.922 251.489 271.005 251.576C271.087 251.663 271.128 251.775 271.128 251.912V252.021C271.128 252.245 271.066 252.477 270.943 252.719C270.824 252.966 270.662 253.173 270.457 253.342H269.902C270.048 253.196 270.169 253.055 270.265 252.918C270.361 252.781 270.434 252.628 270.484 252.459C270.366 252.436 270.277 252.386 270.217 252.309C270.158 252.226 270.128 252.131 270.128 252.021V251.912C270.128 251.775 270.169 251.663 270.252 251.576C270.334 251.489 270.459 251.446 270.628 251.446Z" fill="#606559"/>
<path d="M275.115 249.755L274.587 248.742H274.567V252.398H273.828V247.619H274.69L276.251 250.262L276.778 251.275H276.799V247.619H277.538V252.398H276.675L275.115 249.755Z" fill="#606559"/>
<path d="M279.844 252.398V250.515L278.201 247.619H279.084L280.248 249.748H280.269L281.426 247.619H282.274L280.618 250.501V252.398H279.844Z" fill="#606559"/>
<path d="M247.284 314.794V310.982H249.812C251.479 310.982 252.432 309.91 252.432 308.269C252.432 306.628 251.479 305.556 249.812 305.556H246V314.794H247.284ZM247.284 306.694H249.759C250.579 306.694 251.069 307.144 251.069 307.938V308.6C251.069 309.394 250.579 309.844 249.759 309.844H247.284V306.694Z" fill="#9797CF"/>
<path d="M255.151 314.794V310.294C255.151 309.619 255.813 309.169 256.951 309.169H257.56V307.938H257.15C256.051 307.938 255.443 308.574 255.218 309.249H255.151V307.938H253.921V314.794H255.151Z" fill="#9797CF"/>
<path d="M261.453 314.953C263.319 314.953 264.577 313.55 264.577 311.366C264.577 309.182 263.319 307.779 261.453 307.779C259.587 307.779 258.33 309.182 258.33 311.366C258.33 313.55 259.587 314.953 261.453 314.953ZM261.453 313.894C260.381 313.894 259.64 313.219 259.64 311.882V310.85C259.64 309.513 260.381 308.838 261.453 308.838C262.525 308.838 263.266 309.513 263.266 310.85V311.882C263.266 313.219 262.525 313.894 261.453 313.894Z" fill="#9797CF"/>
<path d="M270.769 314.794V310.982H273.297C274.964 310.982 275.917 309.91 275.917 308.269C275.917 306.628 274.964 305.556 273.297 305.556H269.485V314.794H270.769ZM270.769 306.694H273.244C274.064 306.694 274.554 307.144 274.554 307.938V308.6C274.554 309.394 274.064 309.844 273.244 309.844H270.769V306.694Z" fill="#9797CF"/>
<path d="M279.745 314.794V313.749H278.766V305H277.535V313.537C277.535 314.291 277.972 314.794 278.819 314.794H279.745Z" fill="#9797CF"/>
<path d="M286.91 314.794V313.749H286.142V310.135C286.142 308.653 285.163 307.779 283.455 307.779C282.185 307.779 281.377 308.375 280.967 309.116L281.708 309.791C282.065 309.209 282.582 308.812 283.389 308.812C284.421 308.812 284.911 309.328 284.911 310.241V310.863H283.614C281.655 310.863 280.689 311.578 280.689 312.901C280.689 314.159 281.523 314.953 282.952 314.953C283.932 314.953 284.66 314.503 284.938 313.656H285.004C285.096 314.318 285.454 314.794 286.208 314.794H286.91ZM283.23 313.96C282.463 313.96 281.973 313.603 281.973 312.968V312.703C281.973 312.068 282.476 311.724 283.601 311.724H284.911V312.782C284.911 313.471 284.196 313.96 283.23 313.96Z" fill="#9797CF"/>
<path d="M289.61 314.794V310.096C289.61 309.262 290.391 308.851 291.198 308.851C292.164 308.851 292.641 309.447 292.641 310.599V314.794H293.872V310.413C293.872 308.746 293.011 307.779 291.608 307.779C290.576 307.779 289.994 308.309 289.676 309.063H289.61V307.938H288.379V314.794H289.61Z" fill="#9797CF"/>
<path d="M245 332.882C245 335.45 246.072 337.7 247.382 338.812H248.574C247.144 337.541 246.151 335.357 246.151 333.425V332.34C246.151 330.407 247.144 328.224 248.574 326.953H247.382C246.072 328.065 245 330.315 245 332.882Z" fill="#9797CF"/>
<path d="M253.032 336.191V333.491H255.547V332.459H253.032V329.759H251.894V332.459H249.379V333.491H251.894V336.191H253.032Z" fill="#9797CF"/>
<path d="M259.923 332.882C259.923 330.315 258.851 328.065 257.54 326.953H256.349C257.779 328.224 258.771 330.407 258.771 332.34V333.425C258.771 335.357 257.779 337.541 256.349 338.812H257.54C258.851 337.7 259.923 335.45 259.923 332.882Z" fill="#9797CF"/>
<path d="M265.154 327.774V333.226C265.154 335.926 266.001 337.171 268.502 337.171C271.004 337.171 271.93 335.926 271.93 333.226V327.774H270.646V333.478C270.646 335.159 270.104 336.019 268.542 336.019C266.98 336.019 266.437 335.159 266.437 333.478V327.774H265.154Z" fill="#9797CF"/>
<path d="M276.24 337.171C277.855 337.171 278.861 336.337 278.861 335C278.861 333.941 278.239 333.279 276.73 333.054L276.147 332.962C275.353 332.843 274.956 332.591 274.956 331.982C274.956 331.4 275.38 331.016 276.214 331.016C277.034 331.016 277.617 331.4 277.947 331.837L278.728 331.096C278.146 330.407 277.418 329.997 276.253 329.997C274.811 329.997 273.765 330.712 273.765 332.062C273.765 333.332 274.678 333.875 275.989 334.06L276.571 334.153C277.405 334.272 277.669 334.629 277.669 335.132C277.669 335.768 277.193 336.151 276.319 336.151C275.486 336.151 274.85 335.781 274.334 335.132L273.5 335.847C274.136 336.654 274.969 337.171 276.24 337.171Z" fill="#9797CF"/>
<path d="M286.315 337.012V335.966H285.548V332.353C285.548 330.871 284.568 329.997 282.861 329.997C281.59 329.997 280.783 330.593 280.373 331.334L281.114 332.009C281.471 331.426 281.987 331.029 282.795 331.029C283.827 331.029 284.317 331.546 284.317 332.459V333.081H283.02C281.061 333.081 280.095 333.796 280.095 335.119C280.095 336.376 280.928 337.171 282.358 337.171C283.337 337.171 284.065 336.721 284.343 335.874H284.409C284.502 336.535 284.859 337.012 285.614 337.012H286.315ZM282.636 336.178C281.868 336.178 281.378 335.821 281.378 335.185V334.921C281.378 334.285 281.881 333.941 283.006 333.941H284.317V335C284.317 335.688 283.602 336.178 282.636 336.178Z" fill="#9797CF"/>
<path d="M293.674 337.713C293.674 336.562 292.946 335.86 291.252 335.86H289.69C289.068 335.86 288.685 335.741 288.685 335.344C288.685 334.96 289.068 334.735 289.465 334.616C289.69 334.669 289.968 334.696 290.233 334.696C291.887 334.696 292.893 333.743 292.893 332.353C292.893 331.599 292.589 330.963 292.033 330.553V330.182H293.383V329.15H292.337C291.755 329.15 291.504 329.521 291.504 330.09V330.235C291.133 330.09 290.71 329.997 290.233 329.997C288.592 329.997 287.586 330.963 287.586 332.353C287.586 333.293 288.049 334.047 288.857 334.431V334.484C288.182 334.643 287.665 334.987 287.665 335.675C287.665 336.165 287.904 336.509 288.34 336.681V336.826C287.639 336.999 287.215 337.409 287.215 338.15C287.215 339.209 288.089 339.818 290.273 339.818C292.589 339.818 293.674 339.129 293.674 337.713ZM292.523 337.832C292.523 338.534 291.887 338.878 290.723 338.878H289.796C288.724 338.878 288.314 338.428 288.314 337.859C288.314 337.475 288.486 337.184 288.87 336.985H291.173C292.179 336.985 292.523 337.316 292.523 337.832ZM290.246 333.769C289.373 333.769 288.83 333.359 288.83 332.525V332.181C288.83 331.347 289.373 330.937 290.246 330.937C291.12 330.937 291.662 331.347 291.662 332.181V332.525C291.662 333.359 291.12 333.769 290.246 333.769Z" fill="#9797CF"/>
<path d="M297.385 337.171C298.668 337.171 299.661 336.575 300.138 335.688L299.344 335.013C298.973 335.715 298.351 336.125 297.491 336.125C296.26 336.125 295.558 335.304 295.558 334.166V333.888H300.389V333.372C300.389 331.453 299.304 329.997 297.385 329.997C295.479 329.997 294.274 331.413 294.274 333.584C294.274 335.754 295.479 337.171 297.385 337.171ZM297.385 330.99C298.417 330.99 299.079 331.757 299.079 332.896V333.028H295.558V332.935C295.558 331.81 296.313 330.99 297.385 330.99Z" fill="#9797CF"/>
<path d="M245 357.747C245 360.315 246.072 362.565 247.382 363.676H248.574C247.144 362.406 246.151 360.222 246.151 358.29V357.204C246.151 355.272 247.144 353.088 248.574 351.818H247.382C246.072 352.929 245 355.179 245 357.747Z" fill="#9797CF"/>
<path d="M252.913 358.488V357.204H249.366V358.488H252.913Z" fill="#9797CF"/>
<path d="M257.286 357.747C257.286 355.179 256.214 352.929 254.904 351.818H253.713C255.142 353.088 256.135 355.272 256.135 357.204V358.29C256.135 360.222 255.142 362.406 253.713 363.676H254.904C256.214 362.565 257.286 360.315 257.286 357.747Z" fill="#9797CF"/>
<path d="M263.867 361.876V357.774H267.785V356.635H263.867V353.776H268.208V352.638H262.583V361.876H263.867Z" fill="#9797CF"/>
<path d="M270.882 361.876V357.376C270.882 356.701 271.543 356.251 272.682 356.251H273.29V355.021H272.88C271.782 355.021 271.173 355.656 270.948 356.331H270.882V355.021H269.651V361.876H270.882Z" fill="#9797CF"/>
<path d="M277.17 362.035C278.454 362.035 279.446 361.44 279.923 360.553L279.129 359.878C278.758 360.579 278.136 360.99 277.276 360.99C276.045 360.99 275.343 360.169 275.343 359.031V358.753H280.174V358.237C280.174 356.318 279.089 354.862 277.17 354.862C275.264 354.862 274.06 356.278 274.06 358.449C274.06 360.619 275.264 362.035 277.17 362.035ZM277.17 355.854C278.202 355.854 278.864 356.622 278.864 357.76V357.893H275.343V357.8C275.343 356.675 276.098 355.854 277.17 355.854Z" fill="#9797CF"/>
<path d="M284.472 362.035C285.756 362.035 286.749 361.44 287.225 360.553L286.431 359.878C286.061 360.579 285.439 360.99 284.578 360.99C283.347 360.99 282.646 360.169 282.646 359.031V358.753H287.477V358.237C287.477 356.318 286.392 354.862 284.472 354.862C282.567 354.862 281.362 356.278 281.362 358.449C281.362 360.619 282.567 362.035 284.472 362.035ZM284.472 355.854C285.505 355.854 286.167 356.622 286.167 357.76V357.893H282.646V357.8C282.646 356.675 283.4 355.854 284.472 355.854Z" fill="#9797CF"/>
<path d="M245 405.465C245 408.032 246.072 410.282 247.382 411.394H248.574C247.144 410.124 246.151 407.94 246.151 406.007V404.922C246.151 402.99 247.144 400.806 248.574 399.535H247.382C246.072 400.647 245 402.897 245 405.465Z" fill="#9797CF"/>
<path d="M252.913 406.206V404.922H249.366V406.206H252.913Z" fill="#9797CF"/>
<path d="M257.286 405.465C257.286 402.897 256.214 400.647 254.904 399.535H253.713C255.142 400.806 256.135 402.99 256.135 404.922V406.007C256.135 407.94 255.142 410.124 253.713 411.394H254.904C256.214 410.282 257.286 408.032 257.286 405.465Z" fill="#9797CF"/>
<path d="M262.583 409.594H265.746C268.089 409.594 269.598 408.059 269.598 404.975C269.598 401.891 268.089 400.356 265.746 400.356H262.583V409.594ZM263.867 408.456V401.494H265.746C267.215 401.494 268.221 402.474 268.221 404.234V405.716C268.221 407.476 267.215 408.456 265.746 408.456H263.867Z" fill="#9797CF"/>
<path d="M272.043 401.309C272.56 401.309 272.785 401.031 272.785 400.634V400.449C272.785 400.051 272.56 399.774 272.043 399.774C271.527 399.774 271.302 400.051 271.302 400.449V400.634C271.302 401.031 271.527 401.309 272.043 401.309ZM271.421 409.594H272.652V402.738H271.421V409.594Z" fill="#9797CF"/>
<path d="M276.925 409.753C278.54 409.753 279.546 408.919 279.546 407.582C279.546 406.524 278.924 405.862 277.415 405.637L276.832 405.544C276.038 405.425 275.641 405.174 275.641 404.565C275.641 403.982 276.065 403.599 276.899 403.599C277.719 403.599 278.302 403.982 278.632 404.419L279.413 403.678C278.831 402.99 278.103 402.579 276.938 402.579C275.496 402.579 274.45 403.294 274.45 404.644C274.45 405.915 275.363 406.457 276.674 406.643L277.256 406.735C278.09 406.854 278.354 407.212 278.354 407.715C278.354 408.35 277.878 408.734 277.004 408.734C276.171 408.734 275.535 408.363 275.019 407.715L274.185 408.429C274.821 409.237 275.654 409.753 276.925 409.753Z" fill="#9797CF"/>
<path d="M283.903 409.753C285.213 409.753 286.113 409.118 286.55 408.085L285.65 407.529C285.306 408.271 284.737 408.694 283.903 408.694C282.725 408.694 282.13 407.887 282.13 406.762V405.571C282.13 404.446 282.725 403.638 283.903 403.638C284.697 403.638 285.253 404.049 285.478 404.724L286.497 404.221C286.1 403.241 285.253 402.579 283.903 402.579C281.944 402.579 280.819 403.969 280.819 406.166C280.819 408.363 281.944 409.753 283.903 409.753Z" fill="#9797CF"/>
<path d="M245 381.606C245 384.174 246.072 386.424 247.382 387.535H248.574C247.144 386.265 246.151 384.081 246.151 382.149V381.063C246.151 379.131 247.144 376.947 248.574 375.676H247.382C246.072 376.788 245 379.038 245 381.606Z" fill="#9797CF"/>
<path d="M253.032 384.915V382.215H255.547V381.182H253.032V378.482H251.894V381.182H249.379V382.215H251.894V384.915H253.032Z" fill="#9797CF"/>
<path d="M259.923 381.606C259.923 379.038 258.851 376.788 257.54 375.676H256.349C257.779 376.947 258.771 379.131 258.771 381.063V382.149C258.771 384.081 257.779 386.265 256.349 387.535H257.54C258.851 386.424 259.923 384.174 259.923 381.606Z" fill="#9797CF"/>
<path d="M267.192 385.735H268.476V377.635H271.335V376.497H264.333V377.635H267.192V385.735Z" fill="#9797CF"/>
<path d="M277.487 385.735V384.69H276.72V381.076C276.72 379.594 275.74 378.721 274.033 378.721C272.762 378.721 271.955 379.316 271.545 380.057L272.286 380.732C272.643 380.15 273.159 379.753 273.967 379.753C274.999 379.753 275.489 380.269 275.489 381.182V381.804H274.192C272.233 381.804 271.267 382.519 271.267 383.843C271.267 385.1 272.101 385.894 273.53 385.894C274.509 385.894 275.237 385.444 275.515 384.597H275.581C275.674 385.259 276.031 385.735 276.786 385.735H277.487ZM273.808 384.901C273.04 384.901 272.551 384.544 272.551 383.909V383.644C272.551 383.009 273.054 382.665 274.179 382.665H275.489V383.724C275.489 384.412 274.774 384.901 273.808 384.901Z" fill="#9797CF"/>
<path d="M278.149 385.735H279.499L281.286 383.141H281.326L283.02 385.735H284.449L282.014 382.228L284.41 378.879H283.06L281.366 381.354H281.326L279.671 378.879H278.242L280.638 382.281L278.149 385.735Z" fill="#9797CF"/>
<path fill-rule="evenodd" clip-rule="evenodd" d="M130.272 432.986C130.272 434.75 131.702 436.181 133.466 436.181L221.549 436.181V433.442L133.466 433.442C133.214 433.442 133.01 433.238 133.01 432.986V401.951H130.272V432.986Z" fill="url(#paint2_linear)" fill-opacity="0.4"/>
<path fill-rule="evenodd" clip-rule="evenodd" d="M131.413 433.442C131.413 434.325 132.128 435.04 133.01 435.04L221.55 435.04L221.55 434.583L133.01 434.583C132.38 434.583 131.869 434.072 131.869 433.442L131.869 402.18L131.413 402.18L131.413 433.442Z" fill="#5581FA"/>
<path fill-rule="evenodd" clip-rule="evenodd" d="M334.801 183.738C330.348 183.738 326.738 187.348 326.738 191.801C326.738 196.254 330.348 199.864 334.801 199.864C339.254 199.864 342.864 196.254 342.864 191.801C342.864 187.348 339.254 183.738 334.801 183.738ZM324 191.801C324 185.836 328.836 181 334.801 181C340.767 181 345.602 185.836 345.602 191.801C345.602 197.767 340.767 202.602 334.801 202.602C328.836 202.602 324 197.767 324 191.801Z" fill="#C0CDEF"/>
<path fill-rule="evenodd" clip-rule="evenodd" d="M334.801 186.096C331.65 186.096 329.096 188.65 329.096 191.801C329.096 194.952 331.65 197.506 334.801 197.506C337.952 197.506 340.506 194.952 340.506 191.801C340.506 188.65 337.952 186.096 334.801 186.096ZM326.358 191.801C326.358 187.138 330.138 183.358 334.801 183.358C339.464 183.358 343.244 187.138 343.244 191.801C343.244 196.464 339.464 200.244 334.801 200.244C330.138 200.244 326.358 196.464 326.358 191.801Z" fill="#8AAAFF"/>
<g filter="url(#filter2_d)">
<path d="M338.338 191.801C338.338 193.754 336.755 195.338 334.801 195.338C332.848 195.338 331.264 193.754 331.264 191.801C331.264 189.848 332.848 188.264 334.801 188.264C336.755 188.264 338.338 189.848 338.338 191.801Z" fill="#5581FA"/>
</g>
<path fill-rule="evenodd" clip-rule="evenodd" d="M131.489 402.864C127.036 402.864 123.426 399.254 123.426 394.801C123.426 390.348 127.036 386.738 131.489 386.738C135.942 386.738 139.552 390.348 139.552 394.801C139.552 399.254 135.942 402.864 131.489 402.864ZM120.688 394.801C120.688 400.767 125.524 405.602 131.489 405.602C137.454 405.602 142.29 400.767 142.29 394.801C142.29 388.836 137.454 384 131.489 384C125.524 384 120.688 388.836 120.688 394.801Z" fill="#C0CDEF"/>
<path fill-rule="evenodd" clip-rule="evenodd" d="M131.489 400.506C128.338 400.506 125.784 397.952 125.784 394.801C125.784 391.651 128.338 389.096 131.489 389.096C134.64 389.096 137.194 391.651 137.194 394.801C137.194 397.952 134.64 400.506 131.489 400.506ZM123.046 394.801C123.046 399.464 126.826 403.245 131.489 403.245C136.152 403.245 139.932 399.464 139.932 394.801C139.932 390.138 136.152 386.358 131.489 386.358C126.826 386.358 123.046 390.138 123.046 394.801Z" fill="#8AAAFF"/>
<g filter="url(#filter3_d)">
<path d="M135.026 394.801C135.026 392.848 133.442 391.264 131.489 391.264C129.535 391.264 127.952 392.848 127.952 394.801C127.952 396.755 129.535 398.338 131.489 398.338C133.442 398.338 135.026 396.755 135.026 394.801Z" fill="#5581FA"/>
</g>
<path d="M262 2.23881C262 1.00235 262.884 0 263.974 0H440.026C441.116 0 442 1.00235 442 2.23881V27.7612C442 28.9977 441.116 30 440.026 30H263.974C262.884 30 262 28.9977 262 27.7612V2.23881Z" fill="white"/>
<path d="M315.419 19.479C316.83 19.479 317.864 18.7101 318.4 17.4748L317.584 16.9454C317.244 17.9034 316.502 18.5336 315.419 18.5336C313.959 18.5336 313.095 17.437 313.095 15.6345V14.3235C313.095 12.521 313.959 11.3235 315.419 11.3235C316.465 11.3235 317.171 11.916 317.511 12.8235L318.339 12.3067C317.803 11.084 316.83 10.3782 315.419 10.3782C313.277 10.3782 312 12.042 312 14.979C312 17.916 313.277 19.479 315.419 19.479Z" fill="#4C4C4C"/>
<path d="M324.995 19.3277V18.4454H324.277V14.8655C324.277 13.4916 323.377 12.6723 321.868 12.6723C320.737 12.6723 319.982 13.2521 319.642 13.9454L320.226 14.5126C320.566 13.9202 321.065 13.542 321.819 13.542C322.817 13.542 323.304 14.0462 323.304 14.9664V15.6092H322.063C320.238 15.6092 319.386 16.2899 319.386 17.5126C319.386 18.7227 320.165 19.479 321.491 19.479C322.367 19.479 323.036 19.063 323.304 18.2689H323.365C323.438 18.8739 323.73 19.3277 324.447 19.3277H324.995ZM321.649 18.6218C320.895 18.6218 320.408 18.2563 320.408 17.6134V17.3487C320.408 16.7185 320.907 16.3655 322.014 16.3655H323.304V17.437C323.304 18.105 322.61 18.6218 321.649 18.6218Z" fill="#4C4C4C"/>
<path d="M328.282 19.3277V18.4454H327.357V10H326.384V18.2815C326.384 18.8866 326.749 19.3277 327.418 19.3277H328.282Z" fill="#4C4C4C"/>
<path d="M332.059 19.479C333.239 19.479 334.14 18.8739 334.541 17.9916L333.848 17.4748C333.519 18.1933 332.911 18.5966 332.12 18.5966C330.952 18.5966 330.259 17.7521 330.259 16.6303V16.3277H334.772V15.8487C334.772 14.0084 333.738 12.6723 332.059 12.6723C330.356 12.6723 329.237 14.0084 329.237 16.0756C329.237 18.1429 330.356 19.479 332.059 19.479ZM332.059 13.5168C333.057 13.5168 333.726 14.2857 333.726 15.4328V15.5714H330.259V15.4832C330.259 14.3487 331.001 13.5168 332.059 13.5168Z" fill="#4C4C4C"/>
<path d="M337.35 19.3277V14.8151C337.35 13.9832 338.104 13.5798 338.883 13.5798C339.819 13.5798 340.306 14.1723 340.306 15.3319V19.3277H341.279V15.1555C341.279 13.5798 340.464 12.6723 339.175 12.6723C338.238 12.6723 337.702 13.1513 337.398 13.8824H337.35V12.8235H336.376V19.3277H337.35Z" fill="#4C4C4C"/>
<path d="M347.306 19.3277H348.279V10H347.306V13.8824H347.257C346.929 13.063 346.284 12.6723 345.42 12.6723C343.851 12.6723 342.865 13.9958 342.865 16.0756C342.865 18.1555 343.851 19.479 345.42 19.479C346.284 19.479 346.88 19.0756 347.257 18.2689H347.306V19.3277ZM345.688 18.5714C344.593 18.5714 343.912 17.7899 343.912 16.6303V15.521C343.912 14.3613 344.593 13.5798 345.688 13.5798C346.576 13.5798 347.306 14.1092 347.306 14.8277V17.2479C347.306 18.0924 346.576 18.5714 345.688 18.5714Z" fill="#4C4C4C"/>
<path d="M355.459 19.3277V18.4454H354.741V14.8655C354.741 13.4916 353.84 12.6723 352.332 12.6723C351.2 12.6723 350.446 13.2521 350.105 13.9454L350.689 14.5126C351.03 13.9202 351.529 13.542 352.283 13.542C353.281 13.542 353.767 14.0462 353.767 14.9664V15.6092H352.527C350.702 15.6092 349.85 16.2899 349.85 17.5126C349.85 18.7227 350.629 19.479 351.955 19.479C352.831 19.479 353.5 19.063 353.767 18.2689H353.828C353.901 18.8739 354.193 19.3277 354.911 19.3277H355.459ZM352.113 18.6218C351.359 18.6218 350.872 18.2563 350.872 17.6134V17.3487C350.872 16.7185 351.371 16.3655 352.478 16.3655H353.767V17.437C353.767 18.105 353.074 18.6218 352.113 18.6218Z" fill="#4C4C4C"/>
<path d="M357.821 19.3277V14.916C357.821 14.2983 358.454 13.8319 359.5 13.8319H360.072V12.8235H359.695C358.673 12.8235 358.101 13.4034 357.882 14.021H357.821V12.8235H356.848V19.3277H357.821Z" fill="#4C4C4C"/>
<path d="M364.288 19.3277H368.145C369.398 19.3277 370.335 18.2311 370.335 16.7815C370.335 15.3193 369.276 14.7773 368.668 14.7395V14.6639C369.227 14.5756 370.043 14.1092 370.043 12.7983C370.043 11.4244 369.179 10.5294 367.78 10.5294H364.288V19.3277ZM365.31 15.2437H367.828C368.704 15.2437 369.24 15.7227 369.24 16.605V17.0336C369.24 17.916 368.704 18.395 367.828 18.395H365.31V15.2437ZM365.31 11.4622H367.658C368.461 11.4622 368.948 11.9034 368.948 12.6849V13.1134C368.948 13.895 368.461 14.3361 367.658 14.3361H365.31V11.4622Z" fill="#4C4C4C"/>
<path d="M372.626 11.2983C373.039 11.2983 373.222 11.0714 373.222 10.7311V10.5672C373.222 10.2269 373.039 10 372.626 10C372.212 10 372.03 10.2269 372.03 10.5672V10.7311C372.03 11.0714 372.212 11.2983 372.626 11.2983ZM372.139 19.3277H373.112V12.8235H372.139V19.3277Z" fill="#4C4C4C"/>
<path d="M377.079 19.3277V18.4454H376.154V10H375.181V18.2815C375.181 18.8866 375.546 19.3277 376.215 19.3277H377.079Z" fill="#4C4C4C"/>
<path d="M380.334 19.3277V18.4454H379.409V10H378.436V18.2815C378.436 18.8866 378.801 19.3277 379.47 19.3277H380.334Z" fill="#4C4C4C"/>
<path d="M382.238 11.2983C382.651 11.2983 382.834 11.0714 382.834 10.7311V10.5672C382.834 10.2269 382.651 10 382.238 10C381.824 10 381.642 10.2269 381.642 10.5672V10.7311C381.642 11.0714 381.824 11.2983 382.238 11.2983ZM381.751 19.3277H382.724V12.8235H381.751V19.3277Z" fill="#4C4C4C"/>
<path d="M385.766 19.3277V14.8151C385.766 13.9832 386.52 13.5798 387.299 13.5798C388.236 13.5798 388.722 14.1723 388.722 15.3319V19.3277H389.696V15.1555C389.696 13.5798 388.881 12.6723 387.591 12.6723C386.654 12.6723 386.119 13.1513 385.815 13.8824H385.766V12.8235H384.793V19.3277H385.766Z" fill="#4C4C4C"/>
<path d="M397 20.0462C397 18.9748 396.331 18.3193 394.774 18.3193H393.435C392.863 18.3193 392.474 18.2185 392.474 17.8277C392.474 17.4244 392.888 17.2101 393.301 17.0966C393.484 17.1345 393.703 17.1597 393.91 17.1597C395.345 17.1597 396.282 16.2395 396.282 14.916C396.282 14.2227 396.015 13.6429 395.564 13.2395V12.8235H396.757V11.9412H395.82C395.297 11.9412 395.09 12.3067 395.09 12.8109V12.9244C394.749 12.7605 394.348 12.6723 393.898 12.6723C392.474 12.6723 391.537 13.5924 391.537 14.916C391.537 15.8235 391.975 16.542 392.717 16.9076V16.958C392.085 17.1218 391.635 17.437 391.635 18.0924C391.635 18.5336 391.841 18.8235 392.194 19V19.1387C391.574 19.3151 391.197 19.6933 391.197 20.3992C391.197 21.4202 392 22 393.958 22C395.978 22 397 21.3824 397 20.0462ZM396.088 20.1218C396.088 20.8277 395.455 21.1807 394.372 21.1807H393.472C392.486 21.1807 392.109 20.7143 392.109 20.1471C392.109 19.7437 392.292 19.4538 392.693 19.2647H394.786C395.759 19.2647 396.088 19.605 396.088 20.1218ZM393.91 16.3529C393.082 16.3529 392.559 15.9496 392.559 15.0924V14.7395C392.559 13.8824 393.082 13.479 393.91 13.479C394.737 13.479 395.26 13.8824 395.26 14.7395V15.0924C395.26 15.9496 394.737 16.3529 393.91 16.3529Z" fill="#4C4C4C"/>
<path d="M294.008 15.7309C294.008 19.8335 290.683 23.1594 286.58 23.1594C282.477 23.1594 279.152 19.8335 279.152 15.7309C279.152 11.6283 282.477 8.30243 286.58 8.30243C290.683 8.30243 294.008 11.6283 294.008 15.7309Z" fill="#A6E8D6"/>
<path fill-rule="evenodd" clip-rule="evenodd" d="M291.223 13.918L285.241 18.5167L282.866 16.1925L283.76 15.3177L285.342 16.8659L290.442 12.9453L291.223 13.918Z" fill="white"/>
<path d="M262 47.2388C262 46.0023 262.884 45 263.974 45H440.026C441.116 45 442 46.0023 442 47.2388V72.7612C442 73.9977 441.116 75 440.026 75H263.974C262.884 75 262 73.9977 262 72.7612V47.2388Z" fill="white"/>
<path d="M314.032 61.8511H316.036L317.892 65.8404H319.059L317.093 61.7447C318.211 61.4654 318.813 60.5479 318.813 59.1915C318.813 57.5027 317.916 56.5585 316.417 56.5585H313V65.8404H314.032V61.8511ZM314.032 60.8936V57.5426H316.417C317.228 57.5426 317.707 58.0213 317.707 58.8723V59.5638C317.707 60.4149 317.228 60.8936 316.417 60.8936H314.032Z" fill="#4C4C4C"/>
<path d="M322.968 66C324.16 66 325.069 65.3617 325.475 64.4309L324.774 63.8856C324.443 64.6436 323.828 65.0691 323.029 65.0691C321.849 65.0691 321.149 64.1782 321.149 62.9947V62.6755H325.708V62.1702C325.708 60.2287 324.664 58.8191 322.968 58.8191C321.247 58.8191 320.116 60.2287 320.116 62.4096C320.116 64.5904 321.247 66 322.968 66ZM322.968 59.7101C323.975 59.7101 324.651 60.5213 324.651 61.7314V61.8777H321.149V61.7846C321.149 60.5878 321.898 59.7101 322.968 59.7101Z" fill="#4C4C4C"/>
<path d="M328.312 65.8404V61.0798C328.312 60.2021 329.074 59.7766 329.861 59.7766C330.807 59.7766 331.299 60.4016 331.299 61.625V65.8404H332.282V61.4388C332.282 59.7766 331.458 58.8191 330.156 58.8191C329.209 58.8191 328.668 59.3245 328.361 60.0957H328.312V58.9787H327.329V65.8404H328.312Z" fill="#4C4C4C"/>
<path d="M336.699 66C337.891 66 338.8 65.3617 339.206 64.4309L338.505 63.8856C338.173 64.6436 337.559 65.0691 336.76 65.0691C335.58 65.0691 334.88 64.1782 334.88 62.9947V62.6755H339.439V62.1702C339.439 60.2287 338.395 58.8191 336.699 58.8191C334.978 58.8191 333.847 60.2287 333.847 62.4096C333.847 64.5904 334.978 66 336.699 66ZM336.699 59.7101C337.706 59.7101 338.382 60.5213 338.382 61.7314V61.8777H334.88V61.7846C334.88 60.5878 335.629 59.7101 336.699 59.7101Z" fill="#4C4C4C"/>
<path d="M342.032 65.8404H343.224L344.109 62.5426L344.65 60.4548H344.674L345.228 62.5426L346.112 65.8404H347.329L349.013 58.9787H348.091L347.403 61.9441L346.752 64.9495H346.727L345.94 61.9441L345.117 58.9787H344.244L343.445 61.9441L342.671 64.9495H342.647L341.971 61.9441L341.295 58.9787H340.336L342.032 65.8404Z" fill="#4C4C4C"/>
<path d="M355.488 65.8404V64.9096H354.762V61.133C354.762 59.6835 353.853 58.8191 352.329 58.8191C351.186 58.8191 350.424 59.4309 350.08 60.1622L350.67 60.7606C351.014 60.1356 351.518 59.7367 352.28 59.7367C353.288 59.7367 353.779 60.2686 353.779 61.2394V61.9176H352.526C350.682 61.9176 349.822 62.6356 349.822 63.9255C349.822 65.2021 350.608 66 351.948 66C352.833 66 353.509 65.5612 353.779 64.7234H353.841C353.914 65.3617 354.209 65.8404 354.934 65.8404H355.488ZM352.108 65.0957C351.346 65.0957 350.854 64.7101 350.854 64.0319V63.7527C350.854 63.0878 351.358 62.7154 352.476 62.7154H353.779V63.8457C353.779 64.5505 353.079 65.0957 352.108 65.0957Z" fill="#4C4C4C"/>
<path d="M358.808 65.8404V64.9096H357.874V56H356.891V64.7367C356.891 65.375 357.26 65.8404 357.936 65.8404H358.808Z" fill="#4C4C4C"/>
<path d="M364.275 61.8511H366.278L368.134 65.8404H369.302L367.335 61.7447C368.454 61.4654 369.056 60.5479 369.056 59.1915C369.056 57.5027 368.159 56.5585 366.659 56.5585H363.243V65.8404H364.275V61.8511ZM364.275 60.8936V57.5426H366.659C367.471 57.5426 367.95 58.0213 367.95 58.8723V59.5638C367.95 60.4149 367.471 60.8936 366.659 60.8936H364.275Z" fill="#4C4C4C"/>
<path d="M373.21 66C374.402 66 375.312 65.3617 375.717 64.4309L375.017 63.8856C374.685 64.6436 374.071 65.0691 373.272 65.0691C372.092 65.0691 371.391 64.1782 371.391 62.9947V62.6755H375.951V62.1702C375.951 60.2287 374.906 58.8191 373.21 58.8191C371.49 58.8191 370.359 60.2287 370.359 62.4096C370.359 64.5904 371.49 66 373.21 66ZM373.21 59.7101C374.218 59.7101 374.894 60.5213 374.894 61.7314V61.8777H371.391V61.7846C371.391 60.5878 372.141 59.7101 373.21 59.7101Z" fill="#4C4C4C"/>
<path d="M378.554 65.8404V61.0798C378.554 60.2021 379.292 59.7766 380.066 59.7766C381 59.7766 381.43 60.4016 381.43 61.625V65.8404H382.414V61.0798C382.414 60.2021 383.127 59.7766 383.901 59.7766C384.86 59.7766 385.29 60.4149 385.29 61.625V65.8404H386.273V61.4388C386.273 59.7766 385.499 58.8191 384.208 58.8191C383.127 58.8191 382.512 59.4707 382.279 60.2154H382.254C381.91 59.2314 381.148 58.8191 380.312 58.8191C379.329 58.8191 378.886 59.391 378.604 60.0957H378.554V58.9787H377.571V65.8404H378.554Z" fill="#4C4C4C"/>
<path d="M388.793 57.3697C389.211 57.3697 389.395 57.1303 389.395 56.7713V56.5984C389.395 56.2394 389.211 56 388.793 56C388.375 56 388.191 56.2394 388.191 56.5984V56.7713C388.191 57.1303 388.375 57.3697 388.793 57.3697ZM388.301 65.8404H389.285V58.9787H388.301V65.8404Z" fill="#4C4C4C"/>
<path d="M392.357 65.8404V61.0798C392.357 60.2021 393.119 59.7766 393.906 59.7766C394.852 59.7766 395.344 60.4016 395.344 61.625V65.8404H396.327V61.4388C396.327 59.7766 395.504 58.8191 394.201 58.8191C393.255 58.8191 392.714 59.3245 392.407 60.0957H392.357V58.9787H391.374V65.8404H392.357Z" fill="#4C4C4C"/>
<path d="M402.415 65.8404H403.399V56H402.415V60.0957H402.366C402.034 59.2314 401.383 58.8191 400.51 58.8191C398.925 58.8191 397.929 60.2154 397.929 62.4096C397.929 64.6037 398.925 66 400.51 66C401.383 66 401.985 65.5745 402.366 64.7234H402.415V65.8404ZM400.781 65.0426C399.675 65.0426 398.986 64.2181 398.986 62.9947V61.8245C398.986 60.6011 399.675 59.7766 400.781 59.7766C401.678 59.7766 402.415 60.3351 402.415 61.0931V63.6463C402.415 64.5372 401.678 65.0426 400.781 65.0426Z" fill="#4C4C4C"/>
<path d="M407.873 66C409.066 66 409.975 65.3617 410.381 64.4309L409.68 63.8856C409.348 64.6436 408.734 65.0691 407.935 65.0691C406.755 65.0691 406.054 64.1782 406.054 62.9947V62.6755H410.614V62.1702C410.614 60.2287 409.57 58.8191 407.873 58.8191C406.153 58.8191 405.022 60.2287 405.022 62.4096C405.022 64.5904 406.153 66 407.873 66ZM407.873 59.7101C408.881 59.7101 409.557 60.5213 409.557 61.7314V61.8777H406.054V61.7846C406.054 60.5878 406.804 59.7101 407.873 59.7101Z" fill="#4C4C4C"/>
<path d="M413.218 65.8404V61.1862C413.218 60.5346 413.857 60.0426 414.914 60.0426H415.492V58.9787H415.111C414.078 58.9787 413.5 59.5904 413.279 60.242H413.218V58.9787H412.235V65.8404H413.218Z" fill="#4C4C4C"/>
<path d="M418.653 66C420.103 66 421 65.1888 421 63.859C421 62.8218 420.459 62.1569 419.058 61.9309L418.566 61.8511C417.78 61.7181 417.35 61.4521 417.35 60.7872C417.35 60.1356 417.78 59.7234 418.591 59.7234C419.402 59.7234 419.943 60.1356 420.226 60.5612L420.877 59.9229C420.361 59.2314 419.685 58.8191 418.665 58.8191C417.374 58.8191 416.403 59.484 416.403 60.8404C416.403 62.117 417.276 62.6356 418.444 62.8218L418.947 62.9016C419.783 63.0346 420.054 63.4468 420.054 63.9787C420.054 64.6835 419.562 65.0957 418.726 65.0957C417.927 65.0957 417.337 64.7101 416.846 64.0452L416.145 64.6569C416.711 65.4681 417.485 66 418.653 66Z" fill="#4C4C4C"/>
<path d="M262 94.2388C262 93.0023 262.884 92 263.974 92H440.026C441.116 92 442 93.0023 442 94.2388V119.761C442 120.998 441.116 122 440.026 122H263.974C262.884 122 262 120.998 262 119.761V94.2388Z" fill="white"/>
<path d="M316.42 111.55V110.742H315.223V104.294H316.42V103.485H313V104.294H314.197V110.742H313V111.55H316.42Z" fill="#4C4C4C"/>
<path d="M319.172 111.55V107.414C319.172 106.651 319.93 106.282 320.711 106.282C321.652 106.282 322.14 106.825 322.14 107.888V111.55H323.117V107.726C323.117 106.282 322.299 105.45 321.004 105.45C320.064 105.45 319.527 105.889 319.221 106.559H319.172V105.588H318.195V111.55H319.172Z" fill="#4C4C4C"/>
<path d="M327.75 111.55V110.742H326.468V106.397H327.848V105.588H326.468V103.936H325.589V105.045C325.589 105.45 325.454 105.588 325.039 105.588H324.453V106.397H325.491V110.568C325.491 111.146 325.857 111.55 326.529 111.55H327.75Z" fill="#4C4C4C"/>
<path d="M331.74 111.689C332.925 111.689 333.829 111.134 334.232 110.326L333.535 109.852C333.206 110.511 332.595 110.88 331.801 110.88C330.629 110.88 329.933 110.106 329.933 109.078V108.8H334.464V108.361C334.464 106.674 333.426 105.45 331.74 105.45C330.03 105.45 328.907 106.674 328.907 108.569C328.907 110.464 330.03 111.689 331.74 111.689ZM331.74 106.224C332.742 106.224 333.413 106.929 333.413 107.98V108.107H329.933V108.026C329.933 106.986 330.678 106.224 331.74 106.224Z" fill="#4C4C4C"/>
<path d="M337.979 111.55V110.742H337.051V103H336.074V110.591C336.074 111.146 336.44 111.55 337.112 111.55H337.979Z" fill="#4C4C4C"/>
<path d="M341.247 111.55V110.742H340.319V103H339.342V110.591C339.342 111.146 339.708 111.55 340.38 111.55H341.247Z" fill="#4C4C4C"/>
<path d="M343.158 104.19C343.573 104.19 343.756 103.982 343.756 103.67V103.52C343.756 103.208 343.573 103 343.158 103C342.743 103 342.559 103.208 342.559 103.52V103.67C342.559 103.982 342.743 104.19 343.158 104.19ZM342.669 111.55H343.646V105.588H342.669V111.55Z" fill="#4C4C4C"/>
<path d="M351.035 112.209C351.035 111.227 350.364 110.626 348.8 110.626H347.457C346.883 110.626 346.492 110.534 346.492 110.175C346.492 109.806 346.907 109.609 347.322 109.505C347.506 109.54 347.725 109.563 347.933 109.563C349.374 109.563 350.315 108.72 350.315 107.506C350.315 106.871 350.046 106.339 349.594 105.97V105.588H350.791V104.779H349.851C349.325 104.779 349.118 105.114 349.118 105.577V105.681C348.776 105.53 348.373 105.45 347.921 105.45C346.492 105.45 345.552 106.293 345.552 107.506C345.552 108.338 345.991 108.997 346.736 109.332V109.378C346.101 109.528 345.649 109.817 345.649 110.418C345.649 110.822 345.857 111.088 346.211 111.25V111.377C345.588 111.539 345.21 111.886 345.21 112.533C345.21 113.468 346.016 114 347.982 114C350.009 114 351.035 113.434 351.035 112.209ZM350.119 112.278C350.119 112.925 349.484 113.249 348.397 113.249H347.493C346.504 113.249 346.126 112.821 346.126 112.301C346.126 111.932 346.309 111.666 346.712 111.493H348.812C349.789 111.493 350.119 111.805 350.119 112.278ZM347.933 108.824C347.103 108.824 346.577 108.454 346.577 107.668V107.345C346.577 106.559 347.103 106.189 347.933 106.189C348.764 106.189 349.289 106.559 349.289 107.345V107.668C349.289 108.454 348.764 108.824 347.933 108.824Z" fill="#4C4C4C"/>
<path d="M354.473 111.689C355.657 111.689 356.561 111.134 356.964 110.326L356.268 109.852C355.938 110.511 355.328 110.88 354.534 110.88C353.361 110.88 352.665 110.106 352.665 109.078V108.8H357.196V108.361C357.196 106.674 356.158 105.45 354.473 105.45C352.763 105.45 351.639 106.674 351.639 108.569C351.639 110.464 352.763 111.689 354.473 111.689ZM354.473 106.224C355.474 106.224 356.146 106.929 356.146 107.98V108.107H352.665V108.026C352.665 106.986 353.41 106.224 354.473 106.224Z" fill="#4C4C4C"/>
<path d="M359.783 111.55V107.414C359.783 106.651 360.541 106.282 361.322 106.282C362.263 106.282 362.751 106.825 362.751 107.888V111.55H363.728V107.726C363.728 106.282 362.91 105.45 361.615 105.45C360.675 105.45 360.138 105.889 359.832 106.559H359.783V105.588H358.806V111.55H359.783Z" fill="#4C4C4C"/>
<path d="M368.361 111.55V110.742H367.079V106.397H368.459V105.588H367.079V103.936H366.2V105.045C366.2 105.45 366.065 105.588 365.65 105.588H365.064V106.397H366.102V110.568C366.102 111.146 366.468 111.55 367.14 111.55H368.361Z" fill="#4C4C4C"/>
<path d="M374.039 108.084H376.03L377.874 111.55H379.035L377.08 107.992C378.192 107.749 378.79 106.952 378.79 105.773C378.79 104.306 377.899 103.485 376.409 103.485H373.013V111.55H374.039V108.084ZM374.039 107.252V104.34H376.409C377.215 104.34 377.691 104.756 377.691 105.496V106.097C377.691 106.836 377.215 107.252 376.409 107.252H374.039Z" fill="#4C4C4C"/>
<path d="M382.918 111.689C384.103 111.689 385.007 111.134 385.41 110.326L384.714 109.852C384.384 110.511 383.773 110.88 382.979 110.88C381.807 110.88 381.111 110.106 381.111 109.078V108.8H385.642V108.361C385.642 106.674 384.604 105.45 382.918 105.45C381.208 105.45 380.085 106.674 380.085 108.569C380.085 110.464 381.208 111.689 382.918 111.689ZM382.918 106.224C383.92 106.224 384.591 106.929 384.591 107.98V108.107H381.111V108.026C381.111 106.986 381.856 106.224 382.918 106.224Z" fill="#4C4C4C"/>
<path d="M389.865 111.55V110.742H388.583V106.397H389.963V105.588H388.583V103.936H387.704V105.045C387.704 105.45 387.569 105.588 387.154 105.588H386.568V106.397H387.606V110.568C387.606 111.146 387.972 111.55 388.644 111.55H389.865Z" fill="#4C4C4C"/>
<path d="M392.511 111.55V107.506C392.511 106.94 393.146 106.513 394.196 106.513H394.77V105.588H394.391C393.366 105.588 392.792 106.12 392.572 106.686H392.511V105.588H391.534V111.55H392.511Z" fill="#4C4C4C"/>
<path d="M396.507 104.19C396.922 104.19 397.105 103.982 397.105 103.67V103.52C397.105 103.208 396.922 103 396.507 103C396.091 103 395.908 103.208 395.908 103.52V103.67C395.908 103.982 396.091 104.19 396.507 104.19ZM396.018 111.55H396.995V105.588H396.018V111.55Z" fill="#4C4C4C"/>
<path d="M401.441 111.689C402.625 111.689 403.529 111.134 403.932 110.326L403.236 109.852C402.906 110.511 402.296 110.88 401.502 110.88C400.329 110.88 399.633 110.106 399.633 109.078V108.8H404.164V108.361C404.164 106.674 403.126 105.45 401.441 105.45C399.731 105.45 398.607 106.674 398.607 108.569C398.607 110.464 399.731 111.689 401.441 111.689ZM401.441 106.224C402.442 106.224 403.114 106.929 403.114 107.98V108.107H399.633V108.026C399.633 106.986 400.378 106.224 401.441 106.224Z" fill="#4C4C4C"/>
<path d="M407.667 111.689C409.108 111.689 410 110.984 410 109.829C410 108.928 409.463 108.35 408.07 108.153L407.582 108.084C406.8 107.968 406.373 107.737 406.373 107.16C406.373 106.593 406.8 106.235 407.606 106.235C408.412 106.235 408.95 106.593 409.231 106.963L409.878 106.409C409.365 105.808 408.693 105.45 407.68 105.45C406.397 105.45 405.432 106.027 405.432 107.206C405.432 108.315 406.299 108.766 407.46 108.928L407.96 108.997C408.791 109.112 409.06 109.471 409.06 109.933C409.06 110.545 408.571 110.903 407.741 110.903C406.947 110.903 406.36 110.568 405.872 109.991L405.176 110.522C405.738 111.227 406.507 111.689 407.667 111.689Z" fill="#4C4C4C"/>
<path d="M262 140.239C262 139.002 262.884 138 263.974 138H440.026C441.116 138 442 139.002 442 140.239V165.761C442 166.998 441.116 168 440.026 168H263.974C262.884 168 262 166.998 262 165.761V140.239Z" fill="white"/>
<path d="M316.435 157C317.853 157 318.892 156.27 319.43 155.097L318.611 154.594C318.269 155.504 317.523 156.102 316.435 156.102C314.968 156.102 314.1 155.061 314.1 153.35V152.105C314.1 150.394 314.968 149.257 316.435 149.257C317.486 149.257 318.195 149.819 318.538 150.681L319.369 150.19C318.831 149.029 317.853 148.359 316.435 148.359C314.284 148.359 313 149.939 313 152.727C313 155.516 314.284 157 316.435 157Z" fill="#4C4C4C"/>
<path d="M324.81 156.856H325.788V150.681H324.81V154.953C324.81 155.767 324.052 156.138 323.282 156.138C322.341 156.138 321.84 155.576 321.84 154.475V150.681H320.862V154.642C320.862 156.138 321.693 157 322.989 157C324.04 157 324.517 156.438 324.761 155.851H324.81V156.856Z" fill="#4C4C4C"/>
<path d="M329.765 157C331.208 157 332.1 156.27 332.1 155.073C332.1 154.14 331.562 153.541 330.169 153.338L329.68 153.266C328.897 153.146 328.47 152.907 328.47 152.309C328.47 151.722 328.897 151.351 329.704 151.351C330.511 151.351 331.049 151.722 331.33 152.105L331.978 151.531C331.465 150.908 330.792 150.537 329.778 150.537C328.494 150.537 327.528 151.136 327.528 152.356C327.528 153.505 328.396 153.972 329.558 154.14L330.059 154.211C330.89 154.331 331.159 154.702 331.159 155.181C331.159 155.815 330.67 156.186 329.839 156.186C329.044 156.186 328.457 155.839 327.968 155.241L327.272 155.791C327.834 156.521 328.604 157 329.765 157Z" fill="#4C4C4C"/>
<path d="M336.36 156.856V156.019H335.077V151.519H336.458V150.681H335.077V148.969H334.196V150.118C334.196 150.537 334.062 150.681 333.646 150.681H333.06V151.519H334.099V155.839C334.099 156.438 334.465 156.856 335.138 156.856H336.36Z" fill="#4C4C4C"/>
<path d="M340.366 157C342.053 157 343.214 155.731 343.214 153.769C343.214 151.806 342.053 150.537 340.366 150.537C338.679 150.537 337.518 151.806 337.518 153.769C337.518 155.731 338.679 157 340.366 157ZM340.366 156.15C339.315 156.15 338.569 155.516 338.569 154.211V153.326C338.569 152.021 339.315 151.387 340.366 151.387C341.417 151.387 342.163 152.021 342.163 153.326V154.211C342.163 155.516 341.417 156.15 340.366 156.15Z" fill="#4C4C4C"/>
<path d="M345.801 156.856V152.572C345.801 151.782 346.534 151.399 347.304 151.399C348.233 151.399 348.661 151.961 348.661 153.063V156.856H349.639V152.572C349.639 151.782 350.348 151.399 351.118 151.399C352.072 151.399 352.5 151.973 352.5 153.063V156.856H353.478V152.895C353.478 151.399 352.707 150.537 351.424 150.537C350.348 150.537 349.737 151.124 349.505 151.794H349.48C349.138 150.908 348.38 150.537 347.549 150.537C346.571 150.537 346.131 151.052 345.85 151.686H345.801V150.681H344.823V156.856H345.801Z" fill="#4C4C4C"/>
<path d="M357.867 157C359.053 157 359.957 156.426 360.361 155.588L359.664 155.097C359.334 155.779 358.723 156.162 357.928 156.162C356.754 156.162 356.058 155.36 356.058 154.295V154.008H360.593V153.553C360.593 151.806 359.554 150.537 357.867 150.537C356.155 150.537 355.031 151.806 355.031 153.769C355.031 155.731 356.155 157 357.867 157ZM357.867 151.339C358.869 151.339 359.542 152.069 359.542 153.158V153.29H356.058V153.206C356.058 152.129 356.803 151.339 357.867 151.339Z" fill="#4C4C4C"/>
<path d="M363.182 156.856V152.668C363.182 152.081 363.818 151.638 364.869 151.638H365.444V150.681H365.065C364.038 150.681 363.464 151.231 363.244 151.818H363.182V150.681H362.204V156.856H363.182Z" fill="#4C4C4C"/>
<path d="M372.076 157C373.91 157 375.01 156.019 375.01 154.487C375.01 153.242 374.289 152.524 372.626 152.153L371.929 151.997C370.854 151.758 370.328 151.399 370.328 150.609C370.328 149.711 371 149.245 372.088 149.245C373.078 149.245 373.726 149.64 374.191 150.274L374.961 149.723C374.325 148.838 373.421 148.359 372.137 148.359C370.462 148.359 369.313 149.161 369.313 150.645C369.313 151.926 370.169 152.596 371.721 152.943L372.418 153.098C373.543 153.35 373.995 153.745 373.995 154.535C373.995 155.492 373.335 156.114 372.113 156.114C371.122 156.114 370.413 155.695 369.814 154.918L369.057 155.54C369.741 156.449 370.707 157 372.076 157Z" fill="#4C4C4C"/>
<path d="M379.057 157C380.243 157 381.147 156.426 381.551 155.588L380.854 155.097C380.524 155.779 379.913 156.162 379.118 156.162C377.944 156.162 377.248 155.36 377.248 154.295V154.008H381.783V153.553C381.783 151.806 380.744 150.537 379.057 150.537C377.345 150.537 376.221 151.806 376.221 153.769C376.221 155.731 377.345 157 379.057 157ZM379.057 151.339C380.059 151.339 380.732 152.069 380.732 153.158V153.29H377.248V153.206C377.248 152.129 377.993 151.339 379.057 151.339Z" fill="#4C4C4C"/>
<path d="M385.302 156.856V156.019H384.372V148H383.395V155.863C383.395 156.438 383.761 156.856 384.434 156.856H385.302Z" fill="#4C4C4C"/>
<path d="M387.068 156.856H388.045V151.519H389.402V150.681H388.045V148.838H389.402V148H388.449C387.52 148 387.068 148.586 387.068 149.436V150.681H386.041V151.519H387.068V156.856Z" fill="#4C4C4C"/>
<path d="M393.684 153.733V152.703H390.493V153.733H393.684Z" fill="#4C4C4C"/>
<path d="M397.826 157C399.66 157 400.76 156.019 400.76 154.487C400.76 153.242 400.039 152.524 398.376 152.153L397.68 151.997C396.604 151.758 396.078 151.399 396.078 150.609C396.078 149.711 396.751 149.245 397.839 149.245C398.829 149.245 399.477 149.64 399.941 150.274L400.711 149.723C400.076 148.838 399.171 148.359 397.887 148.359C396.213 148.359 395.064 149.161 395.064 150.645C395.064 151.926 395.919 152.596 397.472 152.943L398.169 153.098C399.293 153.35 399.746 153.745 399.746 154.535C399.746 155.492 399.085 156.114 397.863 156.114C396.873 156.114 396.164 155.695 395.565 154.918L394.807 155.54C395.491 156.449 396.457 157 397.826 157Z" fill="#4C4C4C"/>
<path d="M404.807 157C405.993 157 406.898 156.426 407.301 155.588L406.604 155.097C406.274 155.779 405.663 156.162 404.868 156.162C403.695 156.162 402.998 155.36 402.998 154.295V154.008H407.533V153.553C407.533 151.806 406.494 150.537 404.807 150.537C403.096 150.537 401.971 151.806 401.971 153.769C401.971 155.731 403.096 157 404.807 157ZM404.807 151.339C405.81 151.339 406.482 152.069 406.482 153.158V153.29H402.998V153.206C402.998 152.129 403.744 151.339 404.807 151.339Z" fill="#4C4C4C"/>
<path d="M410.123 156.856V152.668C410.123 152.081 410.759 151.638 411.81 151.638H412.384V150.681H412.005C410.979 150.681 410.404 151.231 410.184 151.818H410.123V150.681H409.145V156.856H410.123Z" fill="#4C4C4C"/>
<path d="M416.283 156.856L418.508 150.681H417.567L416.442 153.745L415.758 155.851H415.697L415.012 153.745L413.912 150.681H412.934L415.147 156.856H416.283Z" fill="#4C4C4C"/>
<path d="M420.259 149.233C420.674 149.233 420.858 149.017 420.858 148.694V148.539C420.858 148.215 420.674 148 420.259 148C419.843 148 419.66 148.215 419.66 148.539V148.694C419.66 149.017 419.843 149.233 420.259 149.233ZM419.77 156.856H420.748V150.681H419.77V156.856Z" fill="#4C4C4C"/>
<path d="M425.173 157C426.371 157 427.19 156.426 427.593 155.54L426.884 155.073C426.542 155.779 425.968 156.15 425.173 156.15C424.012 156.15 423.413 155.372 423.413 154.295V153.242C423.413 152.165 424.012 151.387 425.173 151.387C425.943 151.387 426.481 151.758 426.713 152.392L427.532 151.985C427.166 151.136 426.42 150.537 425.173 150.537C423.4 150.537 422.361 151.794 422.361 153.769C422.361 155.743 423.4 157 425.173 157Z" fill="#4C4C4C"/>
<path d="M431.274 157C432.46 157 433.364 156.426 433.768 155.588L433.071 155.097C432.741 155.779 432.13 156.162 431.335 156.162C430.161 156.162 429.465 155.36 429.465 154.295V154.008H434V153.553C434 151.806 432.961 150.537 431.274 150.537C429.562 150.537 428.438 151.806 428.438 153.769C428.438 155.731 429.562 157 431.274 157ZM431.274 151.339C432.276 151.339 432.949 152.069 432.949 153.158V153.29H429.465V153.206C429.465 152.129 430.21 151.339 431.274 151.339Z" fill="#4C4C4C"/>
<path d="M294.008 60.3015C294.008 64.4041 290.683 67.7299 286.58 67.7299C282.477 67.7299 279.152 64.4041 279.152 60.3015C279.152 56.1988 282.477 52.873 286.58 52.873C290.683 52.873 294.008 56.1988 294.008 60.3015Z" fill="#A6E8D6"/>
<path fill-rule="evenodd" clip-rule="evenodd" d="M291.223 58.4886L285.241 63.0872L282.866 60.763L283.76 59.8883L285.342 61.4365L290.442 57.5159L291.223 58.4886Z" fill="white"/>
<path d="M294.008 107.057C294.008 111.16 290.683 114.486 286.58 114.486C282.477 114.486 279.152 111.16 279.152 107.057C279.152 102.955 282.477 99.6287 286.58 99.6287C290.683 99.6287 294.008 102.955 294.008 107.057Z" fill="#A6E8D6"/>
<path fill-rule="evenodd" clip-rule="evenodd" d="M291.223 105.244L285.241 109.843L282.866 107.519L283.76 106.644L285.342 108.192L290.442 104.272L291.223 105.244Z" fill="white"/>
<path d="M294.008 153.813C294.008 157.915 290.683 161.241 286.58 161.241C282.477 161.241 279.152 157.915 279.152 153.813C279.152 149.71 282.477 146.384 286.58 146.384C290.683 146.384 294.008 149.71 294.008 153.813Z" fill="#A6E8D6"/>
<path fill-rule="evenodd" clip-rule="evenodd" d="M291.223 152L285.241 156.599L282.866 154.274L283.76 153.4L285.342 154.948L290.442 151.027L291.223 152Z" fill="white"/>
<defs>
<filter id="filter0_d" x="0" y="107.158" width="262.369" height="302.075" filterUnits="userSpaceOnUse" color-interpolation-filters="sRGB">
<feFlood flood-opacity="0" result="BackgroundImageFix"/>
<feColorMatrix in="SourceAlpha" type="matrix" values="0 0 0 0 0 0 0 0 0 0 0 0 0 0 0 0 0 0 127 0"/>
<feOffset dy="7"/>
<feGaussianBlur stdDeviation="9"/>
<feColorMatrix type="matrix" values="0 0 0 0 0.704792 0 0 0 0 0.85 0 0 0 0 0.85 0 0 0 1 0"/>
<feBlend mode="multiply" in2="BackgroundImageFix" result="effect1_dropShadow"/>
<feBlend mode="normal" in="SourceGraphic" in2="effect1_dropShadow" result="shape"/>
</filter>
<filter id="filter1_d" x="204" y="188" width="262" height="303" filterUnits="userSpaceOnUse" color-interpolation-filters="sRGB">
<feFlood flood-opacity="0" result="BackgroundImageFix"/>
<feColorMatrix in="SourceAlpha" type="matrix" values="0 0 0 0 0 0 0 0 0 0 0 0 0 0 0 0 0 0 127 0"/>
<feOffset dy="7"/>
<feGaussianBlur stdDeviation="9"/>
<feColorMatrix type="matrix" values="0 0 0 0 0.704792 0 0 0 0 0.85 0 0 0 0 0.85 0 0 0 1 0"/>
<feBlend mode="multiply" in2="BackgroundImageFix" result="effect1_dropShadow"/>
<feBlend mode="normal" in="SourceGraphic" in2="effect1_dropShadow" result="shape"/>
</filter>
<filter id="filter2_d" x="318.264" y="179.264" width="33.074" height="33.074" filterUnits="userSpaceOnUse" color-interpolation-filters="sRGB">
<feFlood flood-opacity="0" result="BackgroundImageFix"/>
<feColorMatrix in="SourceAlpha" type="matrix" values="0 0 0 0 0 0 0 0 0 0 0 0 0 0 0 0 0 0 127 0"/>
<feOffset dy="4"/>
<feGaussianBlur stdDeviation="6.5"/>
<feColorMatrix type="matrix" values="0 0 0 0 0.909804 0 0 0 0 0.898039 0 0 0 0 0.960784 0 0 0 1 0"/>
<feBlend mode="multiply" in2="BackgroundImageFix" result="effect1_dropShadow"/>
<feBlend mode="normal" in="SourceGraphic" in2="effect1_dropShadow" result="shape"/>
</filter>
<filter id="filter3_d" x="114.952" y="382.264" width="33.074" height="33.074" filterUnits="userSpaceOnUse" color-interpolation-filters="sRGB">
<feFlood flood-opacity="0" result="BackgroundImageFix"/>
<feColorMatrix in="SourceAlpha" type="matrix" values="0 0 0 0 0 0 0 0 0 0 0 0 0 0 0 0 0 0 127 0"/>
<feOffset dy="4"/>
<feGaussianBlur stdDeviation="6.5"/>
<feColorMatrix type="matrix" values="0 0 0 0 0.909804 0 0 0 0 0.898039 0 0 0 0 0.960784 0 0 0 1 0"/>
<feBlend mode="multiply" in2="BackgroundImageFix" result="effect1_dropShadow"/>
<feBlend mode="normal" in="SourceGraphic" in2="effect1_dropShadow" result="shape"/>
</filter>
<linearGradient id="paint0_linear" x1="321.364" y1="232.365" x2="341.157" y2="232.195" gradientUnits="userSpaceOnUse">
<stop stop-color="#8AAAFF"/>
<stop offset="1" stop-color="#BFCDFF"/>
</linearGradient>
<linearGradient id="paint1_linear" x1="237.523" y1="198.939" x2="93.5092" y2="179.449" gradientUnits="userSpaceOnUse">
<stop stop-color="#E9FCF7"/>
<stop offset="1" stop-color="#A6E7D5"/>
</linearGradient>
<linearGradient id="paint2_linear" x1="239.307" y1="434.677" x2="239.307" y2="434.859" gradientUnits="userSpaceOnUse">
<stop stop-color="#8AAAFF"/>
<stop offset="1" stop-color="#BFCDFF"/>
</linearGradient>
</defs>
</svg>
