<svg width="46" height="45" viewBox="0 0 46 45" fill="none" xmlns="http://www.w3.org/2000/svg">
<g style="mix-blend-mode:multiply" opacity="0.8">
<circle r="22.5" transform="matrix(1 0 0 -1 22.7463 22.5)" fill="url(#paint0_radial)"/>
</g>
<path d="M32.1462 9.28863L38.3405 18.1014C38.452 18.2576 38.4666 18.4631 38.3781 18.6334C38.2897 18.8038 38.1132 18.9101 37.9213 18.9087H34.8164V20.4612C34.8172 24.3159 33.1534 27.9831 30.2522 30.5211L28.9791 31.6337C27.4268 32.9936 26.5365 34.957 26.5366 37.0207V38.5732C26.5366 38.859 26.3049 39.0907 26.0191 39.0907H20.8442C20.5584 39.0907 20.3268 38.859 20.3268 38.5732V37.0207C20.3364 33.1683 21.9984 29.5052 24.891 26.9608L26.164 25.8482C27.7164 24.4883 28.6066 22.5249 28.6065 20.4612V18.9087H25.5016C25.3097 18.9101 25.1332 18.8038 25.0448 18.6334C24.9564 18.4631 24.9709 18.2576 25.0825 18.1014L31.3078 9.28863C31.4054 9.15453 31.5612 9.0752 31.727 9.0752C31.8928 9.0752 32.0486 9.15453 32.1462 9.28863Z" fill="#F7F7FF"/>
<path opacity="0.6" d="M20.8734 18.3964C20.8728 18.533 20.818 18.6638 20.7209 18.7599C20.6238 18.856 20.4925 18.9095 20.3559 18.9087H17.251V20.4612C17.2509 22.5249 18.1412 24.4883 19.6935 25.8482L20.9665 26.9608C21.2304 27.1937 21.484 27.4369 21.7272 27.6853C21.6962 27.7267 21.66 27.7629 21.6289 27.8043C20.1467 29.5779 19.1152 31.6835 18.6223 33.9417C18.2061 33.0605 17.6124 32.2747 16.8784 31.6337L15.6054 30.5211C12.7041 27.9831 11.0403 24.3158 11.0411 20.4612V18.9087H7.93622C7.74432 18.9101 7.56784 18.8038 7.4794 18.6334C7.39097 18.4631 7.40551 18.2576 7.51705 18.1014L13.7424 9.28863C13.84 9.15453 13.9958 9.0752 14.1616 9.0752C14.3274 9.0752 14.4832 9.15453 14.5807 9.28863L20.7751 18.1014C20.8381 18.1869 20.8725 18.2902 20.8734 18.3964Z" fill="#F9F4FF" fill-opacity="0.86"/>
<defs>
<radialGradient id="paint0_radial" cx="0" cy="0" r="1" gradientUnits="userSpaceOnUse" gradientTransform="translate(29.3615 0.184815) rotate(116.112) scale(55.375 57.0101)">
<stop stop-color="#5701B1"/>
<stop offset="0.71875" stop-color="#CE91FF"/>
</radialGradient>
</defs>
</svg>
