<?xml version="1.0" encoding="UTF-8"?>
<svg width="200px" height="80px" viewBox="0 0 200 80" version="1.1" xmlns="http://www.w3.org/2000/svg" xmlns:xlink="http://www.w3.org/1999/xlink">
    <!-- Generator: Sketch 63.1 (92452) - https://sketch.com -->
    <title>Customer - Logo</title>
    <desc>Created with Sketch.</desc>
    <g id="Customer---Logo" stroke="none" stroke-width="1" fill="none" fill-rule="evenodd">
        <g id="okta" transform="translate(32.000000, 16.750000)" fill="#ffffff" fill-rule="nonzero">
            <g id="Group" transform="translate(0.000000, 0.250000)">
                <path d="M17.1311594,11.517037 C7.66304348,11.517037 0,19.1837037 0,28.6562963 C0,38.1288889 7.66304348,45.7955556 17.1311594,45.7955556 C26.5992754,45.7955556 34.2623188,38.1288889 34.2623188,28.6562963 C34.2623188,19.1837037 26.5992754,11.517037 17.1311594,11.517037 Z M17.1311594,37.242963 C12.3971014,37.242963 8.54855072,33.3925926 8.54855072,28.6562963 C8.54855072,23.92 12.3971014,20.0696296 17.1311594,20.0696296 C21.8652174,20.0696296 25.7137681,23.92 25.7137681,28.6562963 C25.7137681,33.3925926 21.8652174,37.242963 17.1311594,37.242963 Z" id="Shape"></path>
                <path d="M47.2384058,34.4148148 C47.2384058,33.0518519 48.8731884,32.4044444 49.8268116,33.3585185 C54.1181159,37.72 61.2021739,45.2162963 61.2362319,45.2503704 C61.3384058,45.3525926 61.4405797,45.522963 61.8492754,45.6592593 C62.0195652,45.7274074 62.292029,45.7274074 62.5985507,45.7274074 L70.3297101,45.7274074 C71.726087,45.7274074 72.1347826,44.1259259 71.4876812,43.3081481 L58.6818841,30.1896296 L58.0007246,29.5081481 C56.5362319,27.7703704 56.7065217,27.0888889 58.3753623,25.317037 L68.5246377,13.9703704 C69.1717391,13.1525926 68.7630435,11.5851852 67.3326087,11.5851852 L60.3166667,11.5851852 C60.0442029,11.5851852 59.8398551,11.5851852 59.6355072,11.6533333 C59.2268116,11.7896296 59.0565217,11.9259259 58.9543478,12.0622222 C58.9202899,12.0962963 53.3007246,18.1614815 49.8268116,21.8755556 C48.8731884,22.8977778 47.1702899,22.2162963 47.1702899,20.8192593 L47.1702899,1.36296296 C47.1702899,0.374814815 46.3528986,0 45.7057971,0 L39.984058,0 C38.9963768,0 38.5195652,0.647407407 38.5195652,1.22666667 L38.5195652,44.3644444 C38.5195652,45.3525926 39.3369565,45.6251852 40.0181159,45.6251852 L45.7398551,45.6251852 C46.6253623,45.6251852 47.2043478,44.9777778 47.2043478,44.3303704 L47.2043478,43.8874074 L47.2043478,34.4148148 L47.2384058,34.4148148 Z" id="Path"></path>
                <path d="M93.965942,44.16 L93.3528986,38.4355556 C93.2847826,37.6518519 92.5355072,37.1066667 91.7521739,37.242963 C91.3094203,37.3111111 90.8666667,37.3451852 90.423913,37.3451852 C85.8601449,37.3451852 82.1478261,33.7674074 81.8753623,29.2355556 C81.8753623,29.0992593 81.8753623,28.9288889 81.8753623,28.7585185 L81.8753623,21.7392593 C81.8753623,20.8192593 82.5565217,20.0696296 83.476087,20.0696296 L91.1391304,20.0696296 C91.684058,20.0696296 92.5014493,19.5925926 92.5014493,18.6044444 L92.5014493,13.1866667 C92.5014493,12.1303704 91.8202899,11.5851852 91.2072464,11.5851852 L83.476087,11.5851852 C82.5905797,11.5851852 81.8753623,10.9377778 81.8413043,10.0518519 L81.8413043,1.36296296 C81.8413043,0.817777778 81.4326087,0 80.3768116,0 L74.6891304,0 C73.973913,0 73.2927536,0.442962963 73.2927536,1.32888889 C73.2927536,1.32888889 73.2927536,29.0992593 73.2927536,29.2355556 C73.5311594,38.5037037 81.126087,45.8977778 90.423913,45.8977778 C91.2072464,45.8977778 91.9565217,45.8296296 92.7057971,45.7274074 C93.5231884,45.6251852 94.0681159,44.9437037 93.965942,44.16 Z" id="Path"></path>
            </g>
            <path d="M135.009167,36.5284701 C130.1575,36.5284701 129.405833,34.8049381 129.405833,28.3501416 C129.405833,28.3163468 129.405833,28.3163468 129.405833,28.2825521 L129.405833,12.7707636 C129.405833,12.2300476 128.995833,11.3175895 127.9025,11.3175895 L122.1625,11.3175895 C121.445,11.3175895 120.659167,11.8921002 120.659167,12.7707636 L120.659167,13.4804532 C118.165,12.0610739 115.260833,11.25 112.185833,11.25 C102.6875,11.25 95,18.8538179 95,28.2487573 C95,37.6436968 102.6875,45.2475147 112.185833,45.2475147 C116.456667,45.2475147 120.351667,43.6929563 123.358333,41.1583504 C124.964167,43.5915721 127.560833,45.2137199 131.626667,45.2475147 C132.31,45.2475147 136,45.3826936 136,43.6591616 L136,37.609902 C136,37.1029808 135.59,36.5284701 135.009167,36.5284701 Z M112.22,36.7988281 C107.470833,36.7988281 103.61,32.9800218 103.61,28.2825521 C103.61,23.5850824 107.470833,19.766276 112.22,19.766276 C116.969167,19.766276 120.83,23.5850824 120.83,28.2825521 C120.795833,32.9800218 116.935,36.7988281 112.22,36.7988281 Z" id="Shape"></path>
        </g>
    </g>
</svg>