<svg width="43" height="45" viewBox="0 0 43 45" fill="none" xmlns="http://www.w3.org/2000/svg">
<g style="mix-blend-mode:multiply" opacity="0.8">
<path d="M13.8331 41.5337L14.3634 41.328C14.8783 41.1282 15.1337 40.5489 14.934 40.034L13.2045 35.5757C12.4088 33.5247 12.5308 31.2194 13.5355 29.2505L15.0763 26.2347C15.3818 25.6343 15.4165 24.9604 15.1747 24.3371C14.9329 23.7139 14.4523 23.2383 13.8223 23.0024L10.6509 21.8147C8.58124 21.0383 6.93595 19.417 6.14086 17.3674L4.41134 12.9091C4.21159 12.3942 3.63226 12.1387 3.11736 12.3385L2.58713 12.5442C1.77835 12.8579 0.872688 12.4622 0.562299 11.6621C0.251909 10.862 0.653751 9.95898 1.46253 9.64523L24.8631 0.567366C25.6719 0.253613 26.5775 0.649365 26.8879 1.44948C27.1983 2.24959 26.7965 3.15256 25.9877 3.46632L25.4574 3.67201C24.9425 3.87176 24.6871 4.45109 24.8868 4.96599L26.6163 9.42428C27.412 11.4753 27.29 13.7806 26.2854 15.7495L24.7445 18.7653C24.439 19.3657 24.4043 20.0396 24.6461 20.6629C24.8879 21.2861 25.3685 21.7617 25.9985 21.9976L29.17 23.1853C31.2396 23.9617 32.8849 25.583 33.68 27.6326L35.4095 32.0909C35.6092 32.6058 36.1886 32.8613 36.7035 32.6615L37.2337 32.4558C38.0425 32.1421 38.9481 32.5378 39.2585 33.3379C39.5689 34.138 39.1671 35.041 38.3583 35.3548L14.9577 44.4326C14.149 44.7464 13.2433 44.3506 12.9329 43.5505C12.6225 42.7504 13.0244 41.8474 13.8331 41.5337Z" fill="url(#paint0_radial)"/>
</g>
<path d="M20.6599 24.8409C13.3035 27.6947 13.6006 35.9341 17.1146 40.3507L33.9732 33.8107C32.7616 27.3621 28.0164 21.9871 20.6599 24.8409Z" fill="url(#paint1_linear)" fill-opacity="0.7"/>
<path fill-rule="evenodd" clip-rule="evenodd" d="M41.9217 13.6971C42.4507 13.2855 42.4507 12.4858 41.9217 12.0741L32.5706 4.79867C31.8953 4.27322 30.9111 4.75448 30.9111 5.61017V5.61017C30.9111 7.3855 29.4719 8.8247 27.6965 8.8247L22.9183 8.8247C20.6755 8.8247 18.8574 10.6428 18.8574 12.8856C18.8574 15.1283 20.6755 16.9464 22.9183 16.9464L27.6964 16.9464C29.4718 16.9464 30.9111 18.3857 30.9111 20.1611V20.1611C30.9111 21.0168 31.8953 21.498 32.5706 20.9726L41.9217 13.6971Z" fill="url(#paint2_radial)" fill-opacity="0.8"/>
<defs>
<radialGradient id="paint0_radial" cx="0" cy="0" r="1" gradientUnits="userSpaceOnUse" gradientTransform="translate(19.5355 15.4228) rotate(90) scale(29.8174 45.4319)">
<stop stop-color="#5701B1"/>
<stop offset="0.71875" stop-color="#CE91FF"/>
</radialGradient>
<linearGradient id="paint1_linear" x1="21.0778" y1="23.6482" x2="26.2187" y2="36.5006" gradientUnits="userSpaceOnUse">
<stop stop-color="#F7F7FF"/>
<stop offset="1" stop-color="#4E0EA6"/>
</linearGradient>
<radialGradient id="paint2_radial" cx="0" cy="0" r="1" gradientUnits="userSpaceOnUse" gradientTransform="translate(30.5879 12.8856) rotate(178.648) scale(16.7626 11.875)">
<stop offset="0.619911" stop-color="#CE91FF"/>
<stop offset="1" stop-color="white"/>
</radialGradient>
</defs>
</svg>
