<svg width="55" height="45" viewBox="0 0 55 45" fill="none" xmlns="http://www.w3.org/2000/svg">
<g style="mix-blend-mode:multiply" opacity="0.8">
<circle r="20.9772" transform="matrix(1 0 0 -1 21.9502 24.0228)" fill="url(#paint0_radial)"/>
</g>
<g opacity="0.7">
<mask id="mask0" mask-type="alpha" maskUnits="userSpaceOnUse" x="0" y="3" width="43" height="42">
<circle r="20.9772" transform="matrix(1 0 0 -1 21.9502 24.0228)" fill="#A066F2"/>
</mask>
<g mask="url(#mask0)">
<path d="M20.4244 32.7955C21.3398 37.3724 12.0336 42.0763 7.26602 43.8562C3.26129 40.1693 -4.74817 31.8039 -4.74817 27.8373C-4.74817 22.879 5.35901 24.4047 9.36374 29.3629C13.3685 34.3211 19.2802 27.0745 20.4244 32.7955Z" fill="#F9F4FF" fill-opacity="0.86"/>
<path d="M7.26602 18.4929C7.26602 15.7468 -0.743439 9.2121 -4.74817 6.28801C-0.743439 3.87246 9.8977 -0.958641 20.4244 -0.958641C33.5828 -0.958641 27.6711 13.7254 21.7593 12.5812C15.8476 11.437 17.7546 17.158 16.0383 21.1627C14.322 25.1675 7.26602 21.9255 7.26602 18.4929Z" fill="#F9F4FF" fill-opacity="0.86"/>
</g>
</g>
<path fill-rule="evenodd" clip-rule="evenodd" d="M53.0207 15.1287C53.9331 15.1287 54.4462 14.0793 53.8859 13.3592L43.8211 0.423085C43.3822 -0.141027 42.5296 -0.141029 42.0907 0.423083L32.0259 13.3592C31.4656 14.0793 31.9787 15.1287 32.8911 15.1287H36.5306C37.136 15.1287 37.6268 15.6195 37.6268 16.2249L37.6268 29.8501C37.6268 30.4556 38.1177 30.9464 38.7231 30.9464L47.1885 30.9464C47.794 30.9464 48.2848 30.4555 48.2848 29.8501V16.2249C48.2848 15.6195 48.7756 15.1287 49.3811 15.1287H53.0207Z" fill="url(#paint1_radial)" fill-opacity="0.8"/>
<defs>
<radialGradient id="paint0_radial" cx="0" cy="0" r="1" gradientUnits="userSpaceOnUse" gradientTransform="translate(31.3068 7.19172) rotate(127.826) scale(41.8451 48.4057)">
<stop offset="0.175072" stop-color="#5701B1"/>
<stop offset="0.367785" stop-color="#8134CD"/>
<stop offset="1" stop-color="#CE91FF"/>
</radialGradient>
<radialGradient id="paint1_radial" cx="0" cy="0" r="1" gradientUnits="userSpaceOnUse" gradientTransform="translate(42.9559 15.4732) rotate(88.6224) scale(22.1109 15.9604)">
<stop offset="0.619911" stop-color="#CE91FF"/>
<stop offset="1" stop-color="white"/>
</radialGradient>
</defs>
</svg>
