<?xml version="1.0" encoding="UTF-8"?>
<svg width="250px" height="283px" viewBox="0 0 250 283" version="1.1" xmlns="http://www.w3.org/2000/svg" xmlns:xlink="http://www.w3.org/1999/xlink">
    <!-- Generator: Sketch 63.1 (92452) - https://sketch.com -->
    <title>g2crowd-spring</title>
    <desc>Created with Sketch.</desc>
    <g id="Page-1" stroke="none" stroke-width="1" fill="none" fill-rule="evenodd">
        <g id="g2crowd-spring" fill-rule="nonzero">
            <polygon id="Path" fill="#FFFFFF" points="20.7509881 220.422492 127.017723 275 229.249012 220.422492 229.249012 7 20.7509881 7"></polygon>
            <polygon id="Path" fill="#F2F3F2" points="231.225296 8 18.7747036 223.987 128.89448 279 231.225296 226.155"></polygon>
            <path d="M13.8339921,78.1438159 L13.8339921,224.934803 L17.5932291,226.834132 L123.657415,281.372004 L126.879618,283 L130.101822,281.372004 L232.406771,226.834132 L236.166008,224.934803 L236.166008,0 L13.8339921,0 L13.8339921,78.1438159 Z M20.8154322,220.864813 L20.8154322,7.05465005 L229.184568,7.05465005 L229.184568,220.864813 L126.879618,275.402685 L20.8154322,220.864813 Z" id="Shape" fill="#DCDEDC"></path>
            <path d="M125.628583,10.5147059 C126.704675,10.5147059 127.780767,10.5147059 128.856859,10.7843137 L125.628583,16.9852941 C120.786168,16.7156863 116.4818,20.4901961 116.212777,25.3431373 C115.943753,30.1960784 119.710076,34.5098039 124.552491,34.7794118 L125.628583,34.7794118 C127.780767,34.7794118 129.932951,33.9705882 131.547089,32.622549 L135.044389,38.5539216 C132.354158,40.4411765 129.125882,41.5196078 125.628583,41.5196078 C117.019846,41.7892157 109.756224,35.3186275 109.487201,26.6911765 C109.218178,18.0637255 115.67473,10.7843137 124.283467,10.5147059 L125.628583,10.5147059 Z M136.658527,23.7254902 L140.693872,30.4656863 L136.658527,36.9362745 L132.892205,30.4656863 L125.090537,30.4656863 L129.125882,23.7254902 L136.658527,23.7254902 Z M130.201974,21.2990196 C130.201974,20.2205882 130.470997,19.1421569 131.009043,18.3333333 C131.547089,17.5245098 132.623182,16.7156863 133.430251,16.1764706 L133.968297,15.9068627 C135.044389,15.3676471 135.313412,15.0980392 135.313412,14.5588235 C135.313412,14.0196078 134.506343,13.4803922 133.968297,13.4803922 C132.892205,13.4803922 132.085135,14.0196078 131.547089,15.0980392 L130.201974,13.75 C130.470997,13.2107843 131.009043,12.6715686 131.547089,12.1323529 C132.354158,11.5931373 133.161228,11.5931373 133.968297,11.5931373 C134.775366,11.5931373 135.851458,11.8627451 136.389504,12.4019608 C136.92755,12.9411765 137.465596,13.75 137.465596,14.5588235 C137.465596,15.9068627 136.658527,16.9852941 135.044389,17.5245098 L134.23732,18.0637255 C133.430251,18.6029412 132.892205,18.872549 132.623182,19.6813725 L137.465596,19.6813725 L137.465596,21.5686275 L130.201974,21.2990196 L130.201974,21.2990196 Z M125.628583,55 L151.185771,40.4411765 L151.185771,0 L99.8023715,0 L99.8023715,40.1715686 L125.628583,55 Z" id="logo" fill="#FF492C"></path>
            <polygon id="banner" fill="#FF492C" points="241.657696 151 8.61141012 151 0 170 8.61141012 189 241.657696 189 250 170"></polygon>
            <path d="M50.9588523,139.615385 L50.9588523,139.615385 C50.797825,139.615385 50.6636357,139.56044 50.5562842,139.450549 L50.5562842,139.450549 L50.5562842,139.450549 C50.4489327,139.322344 50.3952569,139.175824 50.3952569,139.010989 L50.3952569,139.010989 L50.3952569,105.604396 L50.3952569,105.604396 C50.3952569,105.43956 50.4489327,105.29304 50.5562842,105.164835 L50.5562842,105.164835 L50.5562842,105.164835 C50.6636357,105.054945 50.797825,105 50.9588523,105 L50.9588523,105 L56.6216438,105 L56.6216438,105 C56.7826711,105 56.9168604,105.054945 57.0242119,105.164835 L57.0242119,105.164835 L57.0242119,105.164835 C57.1494554,105.29304 57.2120771,105.43956 57.2120771,105.604396 L57.2120771,105.604396 L57.2120771,133.379121 L57.2120771,133.379121 C57.2120771,133.543956 57.2925907,133.626374 57.4536179,133.626374 L57.4536179,133.626374 L73.2342882,133.626374 L73.2342882,133.626374 C73.3953155,133.626374 73.5384508,133.681319 73.6636942,133.791209 L73.6636942,133.791209 L73.6636942,133.791209 C73.7710457,133.919414 73.8247214,134.065934 73.8247214,134.230769 L73.8247214,134.230769 L73.8247214,139.010989 L73.8247214,139.010989 C73.8247214,139.175824 73.7710457,139.322344 73.6636942,139.450549 L73.6636942,139.450549 L73.6636942,139.450549 C73.5384508,139.56044 73.3953155,139.615385 73.2342882,139.615385 L73.2342882,139.615385 L50.9588523,139.615385 Z M99.5622432,124.285714 L99.5622432,124.285714 C99.7590543,125.531136 99.821676,126.932234 99.7501083,128.489011 L99.7501083,128.489011 L99.7501083,128.489011 C99.7322164,128.891941 99.5264594,129.093407 99.1328372,129.093407 L99.1328372,129.093407 L84.2109789,129.093407 L84.2109789,129.093407 C84.0141678,129.093407 83.9515461,129.175824 84.0231138,129.340659 L84.0231138,129.340659 L84.0231138,129.340659 C84.1125734,130 84.2825466,130.659341 84.5330334,131.318681 L84.5330334,131.318681 L84.5330334,131.318681 C85.3739535,133.150183 87.0826315,134.065934 89.6590675,134.065934 L89.6590675,134.065934 L89.6590675,134.065934 C91.7166378,134.047619 93.3448022,133.195971 94.5435606,131.510989 L94.5435606,131.510989 L94.5435606,131.510989 C94.6688041,131.309524 94.8119394,131.208791 94.9729666,131.208791 L94.9729666,131.208791 L94.9729666,131.208791 C95.0803181,131.208791 95.1966156,131.272894 95.321859,131.401099 L95.321859,131.401099 L98.7839448,134.917582 L98.7839448,134.917582 C98.9449721,135.082418 99.0254857,135.228938 99.0254857,135.357143 L99.0254857,135.357143 L99.0254857,135.357143 C99.0254857,135.430403 98.962864,135.567766 98.8376206,135.769231 L98.8376206,135.769231 L98.8376206,135.769231 C97.7819975,137.106227 96.4132659,138.150183 94.7314258,138.901099 L94.7314258,138.901099 L94.7314258,138.901099 C93.0674775,139.6337 91.2335561,140 89.2296615,140 L89.2296615,140 L89.2296615,140 C86.4564144,140 84.1125734,139.358974 82.1981383,138.076923 L82.1981383,138.076923 L82.1981383,138.076923 C80.2837033,136.794872 78.9060257,135 78.0651056,132.692308 L78.0651056,132.692308 L78.0651056,132.692308 C77.3852128,131.043956 77.0452664,128.882784 77.0452664,126.208791 L77.0452664,126.208791 L77.0452664,126.208791 C77.0452664,124.395604 77.2868073,122.802198 77.769889,121.428571 L77.769889,121.428571 L77.769889,121.428571 C78.5213495,119.084249 79.8185134,117.216117 81.6613808,115.824176 L81.6613808,115.824176 L81.6613808,115.824176 C83.5221401,114.450549 85.7228459,113.763736 88.263498,113.763736 L88.263498,113.763736 L88.263498,113.763736 C91.4840429,113.763736 94.0694249,114.716117 96.0196437,116.620879 L96.0196437,116.620879 L96.0196437,116.620879 C97.9698626,118.525641 99.1507291,121.080586 99.5622432,124.285714 L99.5622432,124.285714 Z M88.3171737,119.78022 L88.3171737,119.78022 C86.2774953,119.78022 84.9356015,120.750916 84.2914925,122.692308 L84.2914925,122.692308 L84.2914925,122.692308 C84.1662491,123.131868 84.0588976,123.663004 83.969438,124.285714 L83.969438,124.285714 L83.969438,124.285714 C83.969438,124.450549 84.0499517,124.532967 84.2109789,124.532967 L84.2109789,124.532967 L92.5575579,124.532967 L92.5575579,124.532967 C92.754369,124.532967 92.8169907,124.450549 92.745423,124.285714 L92.745423,124.285714 L92.745423,124.285714 C92.5843958,123.333333 92.5038822,122.875458 92.5038822,122.912088 L92.5038822,122.912088 L92.5038822,122.912088 C92.2176115,121.923077 91.7166378,121.153846 91.0009612,120.604396 L91.0009612,120.604396 L91.0009612,120.604396 C90.2673926,120.054945 89.3727968,119.78022 88.3171737,119.78022 L88.3171737,119.78022 Z M113.86683,113.791209 L113.86683,113.791209 C115.960185,113.791209 117.82989,114.166667 119.475946,114.917582 L119.475946,114.917582 L119.475946,114.917582 C121.122002,115.650183 122.401274,116.666667 123.313762,117.967033 L123.313762,117.967033 L123.313762,117.967033 C124.22625,119.249084 124.682494,120.677656 124.682494,122.252747 L124.682494,122.252747 L124.682494,139.010989 L124.682494,139.010989 C124.682494,139.175824 124.628818,139.322344 124.521467,139.450549 L124.521467,139.450549 L124.521467,139.450549 C124.414115,139.56044 124.279926,139.615385 124.118898,139.615385 L124.118898,139.615385 L118.456107,139.615385 L118.456107,139.615385 C118.29508,139.615385 118.16089,139.56044 118.053539,139.450549 L118.053539,139.450549 L118.053539,139.450549 C117.928295,139.322344 117.865674,139.175824 117.865674,139.010989 L117.865674,139.010989 L117.865674,137.39011 L117.865674,137.39011 C117.865674,137.298535 117.838836,137.234432 117.78516,137.197802 L117.78516,137.197802 L117.78516,137.197802 C117.713592,137.161172 117.650971,137.188645 117.597295,137.28022 L117.597295,137.28022 L117.597295,137.28022 C116.237509,139.093407 114.063641,140 111.075691,140 L111.075691,140 L111.075691,140 C108.552931,140 106.522199,139.377289 104.983494,138.131868 L104.983494,138.131868 L104.983494,138.131868 C103.426897,136.886447 102.648599,135.03663 102.648599,132.582418 L102.648599,132.582418 L102.648599,132.582418 C102.648599,130.054945 103.525303,128.086081 105.27871,126.675824 L105.27871,126.675824 L105.27871,126.675824 C107.014226,125.283883 109.492257,124.587912 112.712802,124.587912 L112.712802,124.587912 L117.624133,124.587912 L117.624133,124.587912 C117.78516,124.587912 117.865674,124.505495 117.865674,124.340659 L117.865674,124.340659 L117.865674,123.241758 L117.865674,123.241758 C117.865674,122.161172 117.543619,121.309524 116.89951,120.686813 L116.89951,120.686813 L116.89951,120.686813 C116.255401,120.082418 115.289238,119.78022 114.00102,119.78022 L114.00102,119.78022 L114.00102,119.78022 C113.016964,119.78022 112.193936,119.96337 111.531935,120.32967 L111.531935,120.32967 L111.531935,120.32967 C110.869934,120.695971 110.440528,121.208791 110.243717,121.868132 L110.243717,121.868132 L110.243717,121.868132 C110.154258,122.234432 109.948501,122.399267 109.626446,122.362637 L109.626446,122.362637 L103.77579,121.565934 L103.77579,121.565934 C103.382167,121.492674 103.203248,121.346154 103.239032,121.126374 L103.239032,121.126374 L103.239032,121.126374 C103.364275,119.734432 103.901033,118.479853 104.849304,117.362637 L104.849304,117.362637 L104.849304,117.362637 C105.797576,116.245421 107.058956,115.375458 108.633445,114.752747 L108.633445,114.752747 L108.633445,114.752747 C110.190042,114.111722 111.934503,113.791209 113.86683,113.791209 L113.86683,113.791209 Z M112.900667,134.807692 L112.900667,134.807692 C114.278344,134.807692 115.450265,134.432234 116.416428,133.681319 L116.416428,133.681319 L116.416428,133.681319 C117.382592,132.930403 117.865674,131.959707 117.865674,130.769231 L117.865674,130.769231 L117.865674,128.983516 L117.865674,128.983516 C117.865674,128.818681 117.78516,128.736264 117.624133,128.736264 L117.624133,128.736264 L114.162047,128.736264 L114.162047,128.736264 C112.712802,128.736264 111.576665,129.020147 110.753637,129.587912 L110.753637,129.587912 L110.753637,129.587912 C109.930609,130.137363 109.519095,130.924908 109.519095,131.950549 L109.519095,131.950549 L109.519095,131.950549 C109.519095,132.847985 109.823257,133.543956 110.431582,134.038462 L110.431582,134.038462 L110.431582,134.038462 C111.039908,134.551282 111.862936,134.807692 112.900667,134.807692 L112.900667,134.807692 Z M144.891413,105.604396 L144.891413,105.604396 C144.891413,105.43956 144.945089,105.29304 145.052441,105.164835 L145.052441,105.164835 L145.052441,105.164835 C145.159792,105.054945 145.293982,105 145.455009,105 L145.455009,105 L151.1178,105 L151.1178,105 C151.278828,105 151.413017,105.054945 151.520368,105.164835 L151.520368,105.164835 L151.520368,105.164835 C151.62772,105.29304 151.681396,105.43956 151.681396,105.604396 L151.681396,105.604396 L151.681396,139.010989 L151.681396,139.010989 C151.681396,139.175824 151.62772,139.322344 151.520368,139.450549 L151.520368,139.450549 L151.520368,139.450549 C151.413017,139.56044 151.278828,139.615385 151.1178,139.615385 L151.1178,139.615385 L145.455009,139.615385 L145.455009,139.615385 C145.293982,139.615385 145.159792,139.56044 145.052441,139.450549 L145.052441,139.450549 L145.052441,139.450549 C144.945089,139.322344 144.891413,139.175824 144.891413,139.010989 L144.891413,139.010989 L144.891413,137.39011 L144.891413,137.39011 C144.891413,137.298535 144.85563,137.24359 144.784062,137.225275 L144.784062,137.225275 L144.784062,137.225275 C144.712494,137.20696 144.649873,137.225275 144.596197,137.28022 L144.596197,137.28022 L144.596197,137.28022 C143.236411,139.093407 141.384598,140 139.040757,140 L139.040757,140 L139.040757,140 C136.786375,140 134.845102,139.358974 133.216938,138.076923 L133.216938,138.076923 L133.216938,138.076923 C131.588774,136.794872 130.416853,135.03663 129.701176,132.802198 L129.701176,132.802198 L129.701176,132.802198 C129.164419,131.080586 128.89604,129.084249 128.89604,126.813187 L128.89604,126.813187 L128.89604,126.813187 C128.89604,124.468864 129.182311,122.42674 129.754852,120.686813 L129.754852,120.686813 L129.754852,120.686813 C130.506313,118.562271 131.678233,116.886447 133.270614,115.659341 L133.270614,115.659341 L133.270614,115.659341 C134.862994,114.413919 136.831105,113.791209 139.174946,113.791209 L139.174946,113.791209 L139.174946,113.791209 C141.500895,113.791209 143.307979,114.615385 144.596197,116.263736 L144.596197,116.263736 L144.596197,116.263736 C144.649873,116.373626 144.712494,116.410256 144.784062,116.373626 L144.784062,116.373626 L144.784062,116.373626 C144.85563,116.336996 144.891413,116.272894 144.891413,116.181319 L144.891413,116.181319 L144.891413,105.604396 Z M143.871574,131.895604 L143.871574,131.895604 C144.515683,130.686813 144.837738,129.020147 144.837738,126.895604 L144.837738,126.895604 L144.837738,126.895604 C144.837738,124.697802 144.479899,122.967033 143.764223,121.703297 L143.764223,121.703297 L143.764223,121.703297 C143.030654,120.421245 141.957139,119.78022 140.543678,119.78022 L140.543678,119.78022 L140.543678,119.78022 C139.022865,119.78022 137.877782,120.421245 137.10843,121.703297 L137.10843,121.703297 L137.10843,121.703297 C136.303294,123.003663 135.900725,124.752747 135.900725,126.950549 L135.900725,126.950549 L135.900725,126.950549 C135.900725,128.928571 136.240672,130.576923 136.920565,131.895604 L136.920565,131.895604 L136.920565,131.895604 C137.725701,133.324176 138.915513,134.038462 140.490002,134.038462 L140.490002,134.038462 L140.490002,134.038462 C141.939247,134.038462 143.066438,133.324176 143.871574,131.895604 L143.871574,131.895604 Z M178.787649,124.285714 L178.787649,124.285714 C178.98446,125.531136 179.047082,126.932234 178.975514,128.489011 L178.975514,128.489011 L178.975514,128.489011 C178.957622,128.891941 178.751865,129.093407 178.358243,129.093407 L178.358243,129.093407 L163.436385,129.093407 L163.436385,129.093407 C163.239574,129.093407 163.176952,129.175824 163.24852,129.340659 L163.24852,129.340659 L163.24852,129.340659 C163.337979,130 163.507952,130.659341 163.758439,131.318681 L163.758439,131.318681 L163.758439,131.318681 C164.599359,133.150183 166.308037,134.065934 168.884473,134.065934 L168.884473,134.065934 L168.884473,134.065934 C170.942044,134.047619 172.570208,133.195971 173.768966,131.510989 L173.768966,131.510989 L173.768966,131.510989 C173.89421,131.309524 174.037345,131.208791 174.198372,131.208791 L174.198372,131.208791 L174.198372,131.208791 C174.305724,131.208791 174.422021,131.272894 174.547265,131.401099 L174.547265,131.401099 L178.009351,134.917582 L178.009351,134.917582 C178.170378,135.082418 178.250892,135.228938 178.250892,135.357143 L178.250892,135.357143 L178.250892,135.357143 C178.250892,135.430403 178.18827,135.567766 178.063026,135.769231 L178.063026,135.769231 L178.063026,135.769231 C177.007403,137.106227 175.638672,138.150183 173.956832,138.901099 L173.956832,138.901099 L173.956832,138.901099 C172.292883,139.6337 170.458962,140 168.455067,140 L168.455067,140 L168.455067,140 C165.68182,140 163.337979,139.358974 161.423544,138.076923 L161.423544,138.076923 L161.423544,138.076923 C159.509109,136.794872 158.131432,135 157.290511,132.692308 L157.290511,132.692308 L157.290511,132.692308 C156.610619,131.043956 156.270672,128.882784 156.270672,126.208791 L156.270672,126.208791 L156.270672,126.208791 C156.270672,124.395604 156.512213,122.802198 156.995295,121.428571 L156.995295,121.428571 L156.995295,121.428571 C157.746755,119.084249 159.043919,117.216117 160.886787,115.824176 L160.886787,115.824176 L160.886787,115.824176 C162.747546,114.450549 164.948252,113.763736 167.488904,113.763736 L167.488904,113.763736 L167.488904,113.763736 C170.709449,113.763736 173.294831,114.716117 175.24505,116.620879 L175.24505,116.620879 L175.24505,116.620879 C177.195268,118.525641 178.376135,121.080586 178.787649,124.285714 L178.787649,124.285714 Z M167.54258,119.78022 L167.54258,119.78022 C165.502901,119.78022 164.161007,120.750916 163.516898,122.692308 L163.516898,122.692308 L163.516898,122.692308 C163.391655,123.131868 163.284303,123.663004 163.194844,124.285714 L163.194844,124.285714 L163.194844,124.285714 C163.194844,124.450549 163.275357,124.532967 163.436385,124.532967 L163.436385,124.532967 L171.782964,124.532967 L171.782964,124.532967 C171.979775,124.532967 172.042397,124.450549 171.970829,124.285714 L171.970829,124.285714 L171.970829,124.285714 C171.809802,123.333333 171.729288,122.875458 171.729288,122.912088 L171.729288,122.912088 L171.729288,122.912088 C171.443017,121.923077 170.942044,121.153846 170.226367,120.604396 L170.226367,120.604396 L170.226367,120.604396 C169.492798,120.054945 168.598203,119.78022 167.54258,119.78022 L167.54258,119.78022 Z M195.561321,113.846154 L195.561321,113.846154 C196.724295,113.846154 197.636783,114.075092 198.298784,114.532967 L198.298784,114.532967 L198.298784,114.532967 C198.567163,114.679487 198.665568,114.92674 198.594,115.274725 L198.594,115.274725 L197.574161,120.934066 L197.574161,120.934066 C197.556269,121.318681 197.33262,121.428571 196.903214,121.263736 L196.903214,121.263736 L196.903214,121.263736 C196.420133,121.098901 195.856537,121.016484 195.212428,121.016484 L195.212428,121.016484 L195.212428,121.016484 C194.961941,121.016484 194.613049,121.053114 194.165751,121.126374 L194.165751,121.126374 L194.165751,121.126374 C193.002777,121.217949 192.018721,121.648352 191.213585,122.417582 L191.213585,122.417582 L191.213585,122.417582 C190.408449,123.205128 190.005881,124.239927 190.005881,125.521978 L190.005881,125.521978 L190.005881,139.010989 L190.005881,139.010989 C190.005881,139.175824 189.952205,139.322344 189.844853,139.450549 L189.844853,139.450549 L189.844853,139.450549 C189.71961,139.56044 189.576475,139.615385 189.415447,139.615385 L189.415447,139.615385 L183.779494,139.615385 L183.779494,139.615385 C183.618466,139.615385 183.475331,139.56044 183.350088,139.450549 L183.350088,139.450549 L183.350088,139.450549 C183.242736,139.322344 183.18906,139.175824 183.18906,139.010989 L183.18906,139.010989 L183.18906,114.78022 L183.18906,114.78022 C183.18906,114.615385 183.242736,114.478022 183.350088,114.368132 L183.350088,114.368132 L183.350088,114.368132 C183.475331,114.258242 183.618466,114.203297 183.779494,114.203297 L183.779494,114.203297 L189.415447,114.203297 L189.415447,114.203297 C189.576475,114.203297 189.71961,114.258242 189.844853,114.368132 L189.844853,114.368132 L189.844853,114.368132 C189.952205,114.478022 190.005881,114.615385 190.005881,114.78022 L190.005881,114.78022 L190.005881,116.675824 L190.005881,116.675824 C190.005881,116.767399 190.032718,116.831502 190.086394,116.868132 L190.086394,116.868132 L190.086394,116.868132 C190.157962,116.904762 190.211638,116.886447 190.247421,116.813187 L190.247421,116.813187 L190.247421,116.813187 C191.571423,114.835165 193.342723,113.846154 195.561321,113.846154 L195.561321,113.846154 Z" id="Shape" fill="#252530"></path>
            <path d="M87.9166403,181 L87.9166403,181 C86.5227626,181 85.3075872,180.778864 84.2711141,180.336592 L84.2711141,180.336592 L84.2711141,180.336592 C83.2346409,179.89432 82.4304808,179.27514 81.8586335,178.47905 L81.8586335,178.47905 L81.8586335,178.47905 C81.3046565,177.682961 81.027668,176.745345 81.027668,175.666201 L81.027668,175.666201 L81.027668,175.002793 L81.027668,175.002793 C81.027668,174.914339 81.0634084,174.83473 81.1348893,174.763966 L81.1348893,174.763966 L81.1348893,174.763966 C81.1885,174.710894 81.2599809,174.684358 81.3493321,174.684358 L81.3493321,174.684358 L83.7350073,174.684358 L83.7350073,174.684358 C83.8243584,174.684358 83.9047744,174.710894 83.9762553,174.763966 L83.9762553,174.763966 L83.9762553,174.763966 C84.029866,174.83473 84.0566714,174.914339 84.0566714,175.002793 L84.0566714,175.002793 L84.0566714,175.506983 L84.0566714,175.506983 C84.0566714,176.320764 84.423011,176.993017 85.1556903,177.523743 L85.1556903,177.523743 L85.1556903,177.523743 C85.8883696,178.07216 86.8891022,178.346369 88.1578883,178.346369 L88.1578883,178.346369 L88.1578883,178.346369 C89.2479721,178.346369 90.0700026,178.116387 90.6239796,177.656425 L90.6239796,177.656425 L90.6239796,177.656425 C91.1779566,177.196462 91.4549451,176.603818 91.4549451,175.878492 L91.4549451,175.878492 L91.4549451,175.878492 C91.4549451,175.383147 91.3030482,174.958566 90.9992543,174.604749 L90.9992543,174.604749 L90.9992543,174.604749 C90.6954605,174.268622 90.266575,173.959032 89.712598,173.675978 L89.712598,173.675978 L89.712598,173.675978 C89.1407508,173.392924 88.291915,173.039106 87.1660908,172.614525 L87.1660908,172.614525 L87.1660908,172.614525 C85.8973047,172.154562 84.8697667,171.721136 84.0834767,171.314246 L84.0834767,171.314246 L84.0834767,171.314246 C83.2971867,170.907356 82.6449235,170.350093 82.1266869,169.642458 L82.1266869,169.642458 L82.1266869,169.642458 C81.5905801,168.952514 81.3225267,168.085661 81.3225267,167.041899 L81.3225267,167.041899 L81.3225267,167.041899 C81.3225267,165.485102 81.894374,164.255587 83.0380685,163.353352 L83.0380685,163.353352 L83.0380685,163.353352 C84.1817629,162.451117 85.7096673,162 87.6217815,162 L87.6217815,162 L87.6217815,162 C88.9620485,162 90.1504186,162.229981 91.1868917,162.689944 L91.1868917,162.689944 L91.1868917,162.689944 C92.2054946,163.149907 93.0007197,163.795624 93.5725669,164.627095 L93.5725669,164.627095 L93.5725669,164.627095 C94.1444142,165.440875 94.4303378,166.387337 94.4303378,167.46648 L94.4303378,167.46648 L94.4303378,167.917598 L94.4303378,167.917598 C94.4303378,168.006052 94.3945973,168.085661 94.3231164,168.156425 L94.3231164,168.156425 L94.3231164,168.156425 C94.2695058,168.209497 94.1980249,168.236034 94.1086737,168.236034 L94.1086737,168.236034 L91.6961932,168.236034 L91.6961932,168.236034 C91.606842,168.236034 91.5353611,168.209497 91.4817504,168.156425 L91.4817504,168.156425 L91.4817504,168.156425 C91.4102695,168.085661 91.3745291,168.006052 91.3745291,167.917598 L91.3745291,167.917598 L91.3745291,167.625698 L91.3745291,167.625698 C91.3745291,166.794227 91.0349948,166.095438 90.3559262,165.52933 L90.3559262,165.52933 L90.3559262,165.52933 C89.6589873,164.945531 88.7029302,164.653631 87.4877548,164.653631 L87.4877548,164.653631 L87.4877548,164.653631 C86.5048924,164.653631 85.7454078,164.857076 85.209301,165.263966 L85.209301,165.263966 L85.209301,165.263966 C84.6553239,165.670857 84.3783354,166.24581 84.3783354,166.988827 L84.3783354,166.988827 L84.3783354,166.988827 C84.3783354,167.519553 84.5212972,167.95298 84.8072209,168.289106 L84.8072209,168.289106 L84.8072209,168.289106 C85.0931445,168.625233 85.5220299,168.925978 86.0938772,169.191341 L86.0938772,169.191341 L86.0938772,169.191341 C86.6657244,169.474395 87.5503006,169.828212 88.7476058,170.252793 L88.7476058,170.252793 L88.7476058,170.252793 C90.0163919,170.730447 91.0349948,171.163873 91.8034145,171.553073 L91.8034145,171.553073 L91.8034145,171.553073 C92.553964,171.942272 93.2062273,172.481844 93.7602043,173.171788 L93.7602043,173.171788 L93.7602043,173.171788 C94.2963111,173.879423 94.5643645,174.755121 94.5643645,175.798883 L94.5643645,175.798883 L94.5643645,175.798883 C94.5643645,177.391061 93.9657119,178.655959 92.7684067,179.593575 L92.7684067,179.593575 L92.7684067,179.593575 C91.5889718,180.531192 89.9717163,181 87.9166403,181 L87.9166403,181 Z M105.23289,162.185754 L105.23289,162.185754 C106.358714,162.185754 107.350511,162.415736 108.208282,162.875698 L108.208282,162.875698 L108.208282,162.875698 C109.066053,163.335661 109.727252,163.981378 110.191877,164.812849 L110.191877,164.812849 L110.191877,164.812849 C110.674374,165.662011 110.915622,166.635009 110.915622,167.731844 L110.915622,167.731844 L110.915622,167.731844 C110.915622,168.810987 110.674374,169.766294 110.191877,170.597765 L110.191877,170.597765 L110.191877,170.597765 C109.709381,171.429236 109.030313,172.066108 108.154672,172.50838 L108.154672,172.50838 L108.154672,172.50838 C107.26116,172.968343 106.233622,173.198324 105.072058,173.198324 L105.072058,173.198324 L100.783203,173.198324 L100.783203,173.198324 C100.693852,173.198324 100.649177,173.242551 100.649177,173.331006 L100.649177,173.331006 L100.649177,180.469274 L100.649177,180.469274 C100.649177,180.557728 100.622371,180.628492 100.568761,180.681564 L100.568761,180.681564 L100.568761,180.681564 C100.49728,180.752328 100.416864,180.787709 100.327513,180.787709 L100.327513,180.787709 L97.8614213,180.787709 L97.8614213,180.787709 C97.7720701,180.787709 97.7005892,180.752328 97.6469786,180.681564 L97.6469786,180.681564 L97.6469786,180.681564 C97.5754976,180.628492 97.5397572,180.557728 97.5397572,180.469274 L97.5397572,180.469274 L97.5397572,162.50419 L97.5397572,162.50419 C97.5397572,162.415736 97.5754976,162.336127 97.6469786,162.265363 L97.6469786,162.265363 L97.6469786,162.265363 C97.7005892,162.212291 97.7720701,162.185754 97.8614213,162.185754 L97.8614213,162.185754 L105.23289,162.185754 Z M104.777199,170.703911 L104.777199,170.703911 C105.68858,170.703911 106.42126,170.438547 106.975237,169.907821 L106.975237,169.907821 L106.975237,169.907821 C107.529214,169.377095 107.806202,168.678305 107.806202,167.811453 L107.806202,167.811453 L107.806202,167.811453 C107.806202,166.926909 107.529214,166.210428 106.975237,165.662011 L106.975237,165.662011 L106.975237,165.662011 C106.42126,165.113594 105.68858,164.839385 104.777199,164.839385 L104.777199,164.839385 L100.783203,164.839385 L100.783203,164.839385 C100.693852,164.839385 100.649177,164.883613 100.649177,164.972067 L100.649177,164.972067 L100.649177,170.571229 L100.649177,170.571229 C100.649177,170.659683 100.693852,170.703911 100.783203,170.703911 L100.783203,170.703911 L104.777199,170.703911 Z M124.184265,180.787709 L124.184265,180.787709 C124.005563,180.787709 123.880471,180.708101 123.80899,180.548883 L123.80899,180.548883 L120.270685,172.906425 L120.270685,172.906425 C120.234945,172.835661 120.181334,172.800279 120.109853,172.800279 L120.109853,172.800279 L116.893212,172.800279 L116.893212,172.800279 C116.803861,172.800279 116.759186,172.844507 116.759186,172.932961 L116.759186,172.932961 L116.759186,180.469274 L116.759186,180.469274 C116.759186,180.557728 116.723445,180.628492 116.651964,180.681564 L116.651964,180.681564 L116.651964,180.681564 C116.598354,180.752328 116.526873,180.787709 116.437522,180.787709 L116.437522,180.787709 L113.97143,180.787709 L113.97143,180.787709 C113.882079,180.787709 113.810598,180.752328 113.756988,180.681564 L113.756988,180.681564 L113.756988,180.681564 C113.685507,180.628492 113.649766,180.557728 113.649766,180.469274 L113.649766,180.469274 L113.649766,162.530726 L113.649766,162.530726 C113.649766,162.442272 113.685507,162.371508 113.756988,162.318436 L113.756988,162.318436 L113.756988,162.318436 C113.810598,162.247672 113.882079,162.212291 113.97143,162.212291 L113.97143,162.212291 L121.342899,162.212291 L121.342899,162.212291 C122.432983,162.212291 123.397975,162.433426 124.237875,162.875698 L124.237875,162.875698 L124.237875,162.875698 C125.077776,163.335661 125.730039,163.972533 126.194665,164.786313 L126.194665,164.786313 L126.194665,164.786313 C126.659291,165.617784 126.891604,166.564246 126.891604,167.625698 L126.891604,167.625698 L126.891604,167.625698 C126.891604,168.846369 126.578875,169.881285 125.953417,170.730447 L125.953417,170.730447 L125.953417,170.730447 C125.310089,171.5973 124.425513,172.19879 123.299689,172.534916 L123.299689,172.534916 L123.299689,172.534916 C123.263948,172.534916 123.237143,172.552607 123.219273,172.587989 L123.219273,172.587989 L123.219273,172.587989 C123.201402,172.623371 123.201402,172.658752 123.219273,172.694134 L123.219273,172.694134 L126.998825,180.416201 L126.998825,180.416201 C127.034566,180.486965 127.052436,180.540037 127.052436,180.575419 L127.052436,180.575419 L127.052436,180.575419 C127.052436,180.716946 126.95415,180.787709 126.757577,180.787709 L126.757577,180.787709 L124.184265,180.787709 Z M116.893212,164.865922 L116.893212,164.865922 C116.803861,164.865922 116.759186,164.910149 116.759186,164.998603 L116.759186,164.998603 L116.759186,170.27933 L116.759186,170.27933 C116.759186,170.367784 116.803861,170.412011 116.893212,170.412011 L116.893212,170.412011 L120.914013,170.412011 L120.914013,170.412011 C121.771784,170.412011 122.459788,170.155493 122.978024,169.642458 L122.978024,169.642458 L122.978024,169.642458 C123.514131,169.147114 123.782185,168.483706 123.782185,167.652235 L123.782185,167.652235 L123.782185,167.652235 C123.782185,166.820764 123.514131,166.14851 122.978024,165.635475 L122.978024,165.635475 L122.978024,165.635475 C122.459788,165.122439 121.771784,164.865922 120.914013,164.865922 L120.914013,164.865922 L116.893212,164.865922 Z M130.403104,180.787709 L130.403104,180.787709 C130.313752,180.787709 130.233336,180.752328 130.161856,180.681564 L130.161856,180.681564 L130.161856,180.681564 C130.108245,180.628492 130.081439,180.557728 130.081439,180.469274 L130.081439,180.469274 L130.081439,162.530726 L130.081439,162.530726 C130.081439,162.442272 130.108245,162.371508 130.161856,162.318436 L130.161856,162.318436 L130.161856,162.318436 C130.233336,162.247672 130.313752,162.212291 130.403104,162.212291 L130.403104,162.212291 L132.869195,162.212291 L132.869195,162.212291 C132.958546,162.212291 133.030027,162.247672 133.083638,162.318436 L133.083638,162.318436 L133.083638,162.318436 C133.155118,162.371508 133.190859,162.442272 133.190859,162.530726 L133.190859,162.530726 L133.190859,180.469274 L133.190859,180.469274 C133.190859,180.557728 133.155118,180.628492 133.083638,180.681564 L133.083638,180.681564 L133.083638,180.681564 C133.030027,180.752328 132.958546,180.787709 132.869195,180.787709 L132.869195,180.787709 L130.403104,180.787709 Z M148.014212,162.530726 L148.014212,162.530726 C148.014212,162.442272 148.049952,162.371508 148.121433,162.318436 L148.121433,162.318436 L148.121433,162.318436 C148.175044,162.247672 148.246525,162.212291 148.335876,162.212291 L148.335876,162.212291 L150.801967,162.212291 L150.801967,162.212291 C150.891318,162.212291 150.971734,162.247672 151.043215,162.318436 L151.043215,162.318436 L151.043215,162.318436 C151.096826,162.371508 151.123631,162.442272 151.123631,162.530726 L151.123631,162.530726 L151.123631,180.469274 L151.123631,180.469274 C151.123631,180.557728 151.096826,180.628492 151.043215,180.681564 L151.043215,180.681564 L151.043215,180.681564 C150.971734,180.752328 150.891318,180.787709 150.801967,180.787709 L150.801967,180.787709 L148.416292,180.787709 L148.416292,180.787709 C148.23759,180.787709 148.112498,180.716946 148.041017,180.575419 L148.041017,180.575419 L140.321079,168.050279 L140.321079,168.050279 C140.285339,167.997207 140.249598,167.97067 140.213858,167.97067 L140.213858,167.97067 L140.213858,167.97067 C140.178117,167.988361 140.160247,168.032588 140.160247,168.103352 L140.160247,168.103352 L140.213858,180.469274 L140.213858,180.469274 C140.213858,180.557728 140.178117,180.628492 140.106637,180.681564 L140.106637,180.681564 L140.106637,180.681564 C140.053026,180.752328 139.981545,180.787709 139.892194,180.787709 L139.892194,180.787709 L137.426103,180.787709 L137.426103,180.787709 C137.336751,180.787709 137.265271,180.752328 137.21166,180.681564 L137.21166,180.681564 L137.21166,180.681564 C137.140179,180.628492 137.104438,180.557728 137.104438,180.469274 L137.104438,180.469274 L137.104438,162.530726 L137.104438,162.530726 C137.104438,162.442272 137.140179,162.371508 137.21166,162.318436 L137.21166,162.318436 L137.21166,162.318436 C137.265271,162.247672 137.336751,162.212291 137.426103,162.212291 L137.426103,162.212291 L139.811778,162.212291 L139.811778,162.212291 C139.99048,162.212291 140.115572,162.283054 140.187053,162.424581 L140.187053,162.424581 L147.880185,174.949721 L147.880185,174.949721 C147.915925,175.002793 147.951666,175.020484 147.987406,175.002793 L147.987406,175.002793 L147.987406,175.002793 C148.023147,175.002793 148.041017,174.967412 148.041017,174.896648 L148.041017,174.896648 L148.014212,162.530726 Z M161.30966,181 L161.30966,181 C159.969393,181 158.789958,180.743482 157.771355,180.230447 L157.771355,180.230447 L157.771355,180.230447 C156.752752,179.699721 155.966462,178.956704 155.412485,178.001397 L155.412485,178.001397 L155.412485,178.001397 C154.858508,177.046089 154.58152,175.949255 154.58152,174.710894 L154.58152,174.710894 L154.58152,168.289106 L154.58152,168.289106 C154.58152,167.033054 154.858508,165.927374 155.412485,164.972067 L155.412485,164.972067 L155.412485,164.972067 C155.966462,164.034451 156.752752,163.300279 157.771355,162.769553 L157.771355,162.769553 L157.771355,162.769553 C158.789958,162.256518 159.969393,162 161.30966,162 L161.30966,162 L161.30966,162 C162.632057,162 163.802557,162.256518 164.82116,162.769553 L164.82116,162.769553 L164.82116,162.769553 C165.821892,163.282588 166.599247,163.981378 167.153224,164.865922 L167.153224,164.865922 L167.153224,164.865922 C167.707201,165.750466 167.98419,166.75 167.98419,167.864525 L167.98419,167.864525 L167.98419,168.076816 L167.98419,168.076816 C167.98419,168.16527 167.957384,168.236034 167.903774,168.289106 L167.903774,168.289106 L167.903774,168.289106 C167.832293,168.35987 167.751877,168.395251 167.662526,168.395251 L167.662526,168.395251 L165.22324,168.395251 L165.22324,168.395251 C165.133889,168.395251 165.062408,168.35987 165.008797,168.289106 L165.008797,168.289106 L165.008797,168.289106 C164.937316,168.236034 164.901576,168.16527 164.901576,168.076816 L164.901576,168.076816 L164.901576,167.944134 L164.901576,167.944134 C164.901576,166.988827 164.570976,166.201583 163.909778,165.582402 L163.909778,165.582402 L163.909778,165.582402 C163.26645,164.963222 162.399744,164.653631 161.30966,164.653631 L161.30966,164.653631 L161.30966,164.653631 C160.219576,164.653631 159.343935,164.980912 158.682737,165.635475 L158.682737,165.635475 L158.682737,165.635475 C158.021538,166.272346 157.690939,167.121508 157.690939,168.182961 L157.690939,168.182961 L157.690939,174.817039 L157.690939,174.817039 C157.690939,175.878492 158.039409,176.736499 158.736348,177.391061 L158.736348,177.391061 L158.736348,177.391061 C159.433286,178.027933 160.335733,178.346369 161.443687,178.346369 L161.443687,178.346369 L161.443687,178.346369 C162.5159,178.346369 163.364736,178.063315 163.990194,177.497207 L163.990194,177.497207 L163.990194,177.497207 C164.597782,176.94879 164.901576,176.188082 164.901576,175.215084 L164.901576,175.215084 L164.901576,173.569832 L164.901576,173.569832 C164.901576,173.481378 164.8569,173.437151 164.767549,173.437151 L164.767549,173.437151 L161.470492,173.437151 L161.470492,173.437151 C161.381141,173.437151 161.300725,173.401769 161.229244,173.331006 L161.229244,173.331006 L161.229244,173.331006 C161.175633,173.277933 161.148828,173.207169 161.148828,173.118715 L161.148828,173.118715 L161.148828,171.155028 L161.148828,171.155028 C161.148828,171.066574 161.175633,170.99581 161.229244,170.942737 L161.229244,170.942737 L161.229244,170.942737 C161.300725,170.871974 161.381141,170.836592 161.470492,170.836592 L161.470492,170.836592 L167.662526,170.836592 L167.662526,170.836592 C167.751877,170.836592 167.832293,170.871974 167.903774,170.942737 L167.903774,170.942737 L167.903774,170.942737 C167.957384,170.99581 167.98419,171.066574 167.98419,171.155028 L167.98419,171.155028 L167.98419,174.551676 L167.98419,174.551676 C167.98419,176.586127 167.385537,178.16946 166.188232,179.301676 L166.188232,179.301676 L166.188232,179.301676 C164.973057,180.433892 163.346866,181 161.30966,181 L161.30966,181 Z" id="Shape" fill="#FFFFFF"></path>
            <path d="M94.4976446,229.630872 L94.4976446,229.630872 C94.4435864,229.684564 94.425567,229.738255 94.4435864,229.791946 L94.4435864,229.791946 L94.4435864,229.791946 C94.4796252,229.845638 94.5336834,229.872483 94.6057611,229.872483 L94.6057611,229.872483 L105.228203,229.872483 L105.228203,229.872483 C105.354339,229.872483 105.462455,229.917226 105.552552,230.006711 L105.552552,230.006711 L105.552552,230.006711 C105.660669,230.096197 105.714727,230.203579 105.714727,230.328859 L105.714727,230.328859 L105.714727,234.114094 L105.714727,234.114094 C105.714727,234.239374 105.660669,234.346756 105.552552,234.436242 L105.552552,234.436242 L105.552552,234.436242 C105.462455,234.525727 105.354339,234.57047 105.228203,234.57047 L105.228203,234.57047 L87.6052205,234.57047 L87.6052205,234.57047 C87.4610652,234.57047 87.343939,234.525727 87.253842,234.436242 L87.253842,234.436242 L87.253842,234.436242 C87.1637449,234.346756 87.1186964,234.239374 87.1186964,234.114094 L87.1186964,234.114094 L87.1186964,230.516779 L87.1186964,230.516779 C87.1186964,230.284116 87.1997838,230.087248 87.3619585,229.926174 L87.3619585,229.926174 L87.3619585,229.926174 C88.6413365,228.691275 89.9477437,227.340045 91.28118,225.872483 L91.28118,225.872483 L91.28118,225.872483 C92.6146163,224.404922 93.4525189,223.49217 93.7948876,223.134228 L93.7948876,223.134228 L93.7948876,223.134228 C94.515664,222.275168 95.2544598,221.451902 96.011275,220.66443 L96.011275,220.66443 L96.011275,220.66443 C98.3898371,218.051454 99.5791181,216.10962 99.5791181,214.838926 L99.5791181,214.838926 L99.5791181,214.838926 C99.5791181,213.926174 99.2547687,213.174497 98.60607,212.583893 L98.60607,212.583893 L98.60607,212.583893 C97.9573712,212.011186 97.110459,211.724832 96.0653332,211.724832 L96.0653332,211.724832 L96.0653332,211.724832 C95.0202075,211.724832 94.1732952,212.011186 93.5245965,212.583893 L93.5245965,212.583893 L93.5245965,212.583893 C92.8578783,213.174497 92.5245193,213.95302 92.5245193,214.919463 L92.5245193,214.919463 L92.5245193,215.885906 L92.5245193,215.885906 C92.5245193,216.011186 92.4794707,216.118568 92.3893737,216.208054 L92.3893737,216.208054 L92.3893737,216.208054 C92.2992766,216.297539 92.1911602,216.342282 92.0650243,216.342282 L92.0650243,216.342282 L87.4430458,216.342282 L87.4430458,216.342282 C87.3169099,216.342282 87.2087935,216.297539 87.1186964,216.208054 L87.1186964,216.208054 L87.1186964,216.208054 C87.01058,216.118568 86.9565217,216.011186 86.9565217,215.885906 L86.9565217,215.885906 L86.9565217,214.060403 L86.9565217,214.060403 C87.0466188,212.66443 87.497104,211.420582 88.3079774,210.328859 L88.3079774,210.328859 L88.3079774,210.328859 C89.1188509,209.255034 90.1910057,208.431767 91.524442,207.85906 L91.524442,207.85906 L91.524442,207.85906 C92.8758978,207.286353 94.3895281,207 96.0653332,207 L96.0653332,207 L96.0653332,207 C97.9213324,207 99.5340696,207.348993 100.903545,208.04698 L100.903545,208.04698 L100.903545,208.04698 C102.27302,208.727069 103.327155,209.64877 104.065951,210.812081 L104.065951,210.812081 L104.065951,210.812081 C104.822766,211.993289 105.201174,213.290828 105.201174,214.704698 L105.201174,214.704698 L105.201174,214.704698 C105.201174,215.796421 104.921873,216.914989 104.363271,218.060403 L104.363271,218.060403 L104.363271,218.060403 C103.822689,219.205817 103.002806,220.440716 101.903622,221.765101 L101.903622,221.765101 L101.903622,221.765101 C101.092748,222.767338 100.218807,223.769575 99.2817978,224.771812 L99.2817978,224.771812 L99.2817978,224.771812 C98.3447885,225.756152 96.9482843,227.178971 95.0922851,229.040268 L95.0922851,229.040268 L94.4976446,229.630872 Z M118.44544,235 L118.44544,235 C115.562334,235 113.291889,234.203579 111.634103,232.610738 L111.634103,232.610738 L111.634103,232.610738 C109.958298,231.017897 109.120395,228.8434 109.120395,226.087248 L109.120395,226.087248 L109.120395,215.805369 L109.120395,215.805369 C109.120395,213.102908 109.958298,210.964206 111.634103,209.389262 L111.634103,209.389262 L111.634103,209.389262 C113.291889,207.796421 115.562334,207 118.44544,207 L118.44544,207 L118.44544,207 C121.310526,207 123.589981,207.796421 125.283806,209.389262 L125.283806,209.389262 L125.283806,209.389262 C126.959611,210.964206 127.797513,213.102908 127.797513,215.805369 L127.797513,215.805369 L127.797513,226.087248 L127.797513,226.087248 C127.797513,228.8434 126.959611,231.017897 125.283806,232.610738 L125.283806,232.610738 L125.283806,232.610738 C123.589981,234.203579 121.310526,235 118.44544,235 L118.44544,235 Z M118.44544,230.302013 L118.44544,230.302013 C119.616701,230.302013 120.544701,229.944072 121.229439,229.228188 L121.229439,229.228188 L121.229439,229.228188 C121.932196,228.512304 122.283574,227.55481 122.283574,226.355705 L122.283574,226.355705 L122.283574,215.644295 L122.283574,215.644295 C122.283574,214.463087 121.932196,213.514541 121.229439,212.798658 L121.229439,212.798658 L121.229439,212.798658 C120.544701,212.082774 119.616701,211.724832 118.44544,211.724832 L118.44544,211.724832 L118.44544,211.724832 C117.292198,211.724832 116.373208,212.082774 115.68847,212.798658 L115.68847,212.798658 L115.68847,212.798658 C114.985713,213.514541 114.634335,214.463087 114.634335,215.644295 L114.634335,215.644295 L114.634335,226.355705 L114.634335,226.355705 C114.634335,227.55481 114.985713,228.512304 115.68847,229.228188 L115.68847,229.228188 L115.68847,229.228188 C116.373208,229.944072 117.292198,230.302013 118.44544,230.302013 L118.44544,230.302013 Z M138.771334,229.630872 L138.771334,229.630872 C138.717275,229.684564 138.708266,229.738255 138.744305,229.791946 L138.744305,229.791946 L138.744305,229.791946 C138.762324,229.845638 138.816382,229.872483 138.906479,229.872483 L138.906479,229.872483 L149.528921,229.872483 L149.528921,229.872483 C149.655057,229.872483 149.763173,229.917226 149.853271,230.006711 L149.853271,230.006711 L149.853271,230.006711 C149.943368,230.096197 149.988416,230.203579 149.988416,230.328859 L149.988416,230.328859 L149.988416,234.114094 L149.988416,234.114094 C149.988416,234.239374 149.943368,234.346756 149.853271,234.436242 L149.853271,234.436242 L149.853271,234.436242 C149.763173,234.525727 149.655057,234.57047 149.528921,234.57047 L149.528921,234.57047 L131.87891,234.57047 L131.87891,234.57047 C131.752774,234.57047 131.644657,234.525727 131.55456,234.436242 L131.55456,234.436242 L131.55456,234.436242 C131.464463,234.346756 131.419415,234.239374 131.419415,234.114094 L131.419415,234.114094 L131.419415,230.516779 L131.419415,230.516779 C131.419415,230.284116 131.491492,230.087248 131.635648,229.926174 L131.635648,229.926174 L131.635648,229.926174 C132.933045,228.691275 134.239452,227.340045 135.554869,225.872483 L135.554869,225.872483 L135.554869,225.872483 C136.888305,224.404922 137.726208,223.49217 138.068577,223.134228 L138.068577,223.134228 L138.068577,223.134228 C138.807373,222.275168 139.555178,221.451902 140.311993,220.66443 L140.311993,220.66443 L140.311993,220.66443 C142.690555,218.051454 143.879836,216.10962 143.879836,214.838926 L143.879836,214.838926 L143.879836,214.838926 C143.879836,213.926174 143.555487,213.174497 142.906788,212.583893 L142.906788,212.583893 L142.906788,212.583893 C142.24007,212.011186 141.384148,211.724832 140.339022,211.724832 L140.339022,211.724832 L140.339022,211.724832 C139.293897,211.724832 138.446984,212.011186 137.798286,212.583893 L137.798286,212.583893 L137.798286,212.583893 C137.149587,213.174497 136.825237,213.95302 136.825237,214.919463 L136.825237,214.919463 L136.825237,215.885906 L136.825237,215.885906 C136.825237,216.011186 136.780189,216.118568 136.690092,216.208054 L136.690092,216.208054 L136.690092,216.208054 C136.599995,216.297539 136.482869,216.342282 136.338713,216.342282 L136.338713,216.342282 L131.716735,216.342282 L131.716735,216.342282 C131.590599,216.342282 131.482483,216.297539 131.392386,216.208054 L131.392386,216.208054 L131.392386,216.208054 C131.302288,216.118568 131.25724,216.011186 131.25724,215.885906 L131.25724,215.885906 L131.25724,214.060403 L131.25724,214.060403 C131.329318,212.66443 131.770793,211.420582 132.581667,210.328859 L132.581667,210.328859 L132.581667,210.328859 C133.39254,209.255034 134.473705,208.431767 135.82516,207.85906 L135.82516,207.85906 L135.82516,207.85906 C137.176616,207.286353 138.681237,207 140.339022,207 L140.339022,207 L140.339022,207 C142.195021,207 143.807759,207.348993 145.177234,208.04698 L145.177234,208.04698 L145.177234,208.04698 C146.564728,208.727069 147.627873,209.64877 148.366669,210.812081 L148.366669,210.812081 L148.366669,210.812081 C149.105465,211.993289 149.474863,213.290828 149.474863,214.704698 L149.474863,214.704698 L149.474863,214.704698 C149.474863,215.796421 149.204572,216.914989 148.663989,218.060403 L148.663989,218.060403 L148.663989,218.060403 C148.105388,219.205817 147.276495,220.440716 146.177311,221.765101 L146.177311,221.765101 L146.177311,221.765101 C145.366438,222.767338 144.492496,223.769575 143.555487,224.771812 L143.555487,224.771812 L143.555487,224.771812 C142.618478,225.756152 141.221973,227.178971 139.365974,229.040268 L139.365974,229.040268 L138.771334,229.630872 Z M157.232219,207.42953 L157.232219,207.42953 C157.376374,207.357942 157.574587,207.322148 157.826859,207.322148 L157.826859,207.322148 L162.583983,207.322148 L162.583983,207.322148 C162.710119,207.322148 162.818236,207.36689 162.908333,207.456376 L162.908333,207.456376 L162.908333,207.456376 C162.99843,207.545861 163.043478,207.653244 163.043478,207.778523 L163.043478,207.778523 L163.043478,234.114094 L163.043478,234.114094 C163.043478,234.239374 162.99843,234.346756 162.908333,234.436242 L162.908333,234.436242 L162.908333,234.436242 C162.818236,234.525727 162.710119,234.57047 162.583983,234.57047 L162.583983,234.57047 L157.989034,234.57047 L157.989034,234.57047 C157.862898,234.57047 157.754782,234.525727 157.664685,234.436242 L157.664685,234.436242 L157.664685,234.436242 C157.556568,234.346756 157.50251,234.239374 157.50251,234.114094 L157.50251,234.114094 L157.50251,212.771812 L157.50251,212.771812 C157.50251,212.718121 157.48449,212.66443 157.448452,212.610738 L157.448452,212.610738 L157.448452,212.610738 C157.394393,212.557047 157.340335,212.548098 157.286277,212.583893 L157.286277,212.583893 L153.394084,213.630872 L153.23191,213.657718 L153.23191,213.657718 C152.997657,213.657718 152.880531,213.514541 152.880531,213.228188 L152.880531,213.228188 L152.772415,209.899329 L152.772415,209.899329 C152.772415,209.630872 152.889541,209.442953 153.123793,209.33557 L153.123793,209.33557 L157.232219,207.42953 Z" id="Shape" fill="#252530"></path>
        </g>
    </g>
</svg>